  0
SECTION
  2
HEADER
  9
$ACADVER
  1
AC1009
  9
$FILLMODE
 70
1
  9
$EXTMIN
 10
0.6512
 20
-1.1019
 30
0.0000
  9
$EXTMAX
 10
30.4698
 20
45.6096
 30
0.0000
  0
ENDSEC
  0
SECTION
  2
TABLES
  0
TABLE
  2
LTYPE
 70
1
  0
LTYPE
  2
CONTINUOUS
 70
64
  3
Solid line
 72
65
 73
0
 40
0
  0
ENDTAB
  0
TABLE
  2
LAYER
 70
255
  0
LAYER
  2
17
 70
64
 62
82
  6
CONTINUOUS
  0
LAYER
  2
20
 70
64
 62
7
  6
CONTINUOUS
  0
LAYER
  2
21
 70
64
 62
7
  6
CONTINUOUS
  0
LAYER
  2
23
 70
64
 62
7
  6
CONTINUOUS
  0
LAYER
  2
31
 70
64
 62
253
  6
CONTINUOUS
  0
LAYER
  2
45
 70
64
 62
253
  6
CONTINUOUS
  0
LAYER
  2
51
 70
64
 62
53
  6
CONTINUOUS
  0
ENDTAB
  0
ENDSEC
  0
SECTION
  2
BLOCKS
  0
BLOCK
  8
0
  2
RECT
 70
64
 10
0.0000
 20
0.0000
 30
0.0000
  3
RECT
  0
SOLID
  8
0
 10
-0.5000
 20
-0.5000
 30
0.0000
 11
0.5000
 21
-0.5000
 31
0.0000
 12
-0.5000
 22
0.5000
 32
0.0000
 13
0.5000
 23
0.5000
 33
0.0000
  0
ENDBLK
  8
0
  0
BLOCK
  8
0
  2
PIE
 70
64
 10
0.0000
 20
0.0000
 30
0.0000
  3
PIE
  0
POLYLINE
  8
0
 66
1
 10
0.0000
 20
0.0000
 30
0.0000
 40
0.5000
 41
0.5000
 70
0
  0
VERTEX
  8
0
 10
0.0000
 20
-0.2500
 30
0.0000
 42
1.0000
  0
VERTEX
  8
0
 10
0.0000
 20
0.2500
 30
0.0000
 42
1.0000
  0
VERTEX
  8
0
 10
0.0000
 20
-0.2500
 30
0.0000
  0
SEQEND
  8
0
  0
ENDBLK
  8
0
  0
BLOCK
  8
0
  2
OCTAGONP
 70
64
 10
0.0000
 20
0.0000
 30
0.0000
  3
OCTAGONP
  0
POLYLINE
  8
0
 66
1
 10
0.0000
 20
0.0000
 30
0.0000
 40
0.5000
 41
0.5000
 70
0
  0
VERTEX
  8
0
 10
-0.2500
 20
-0.1036
 30
0.0000
  0
VERTEX
  8
0
 10
-0.2500
 20
0.1036
 30
0.0000
  0
VERTEX
  8
0
 10
-0.1036
 20
0.2500
 30
0.0000
  0
VERTEX
  8
0
 10
0.1036
 20
0.2500
 30
0.0000
  0
VERTEX
  8
0
 10
0.2500
 20
0.1036
 30
0.0000
  0
VERTEX
  8
0
 10
0.2500
 20
-0.1036
 30
0.0000
  0
VERTEX
  8
0
 10
0.1036
 20
-0.2500
 30
0.0000
  0
VERTEX
  8
0
 10
-0.1036
 20
-0.2500
 30
0.0000
  0
VERTEX
  8
0
 10
-0.2500
 20
-0.1036
 30
0.0000
  0
VERTEX
  8
0
 10
-0.2500
 20
0.1036
 30
0.0000
  0
SEQEND
  8
0
  0
ENDBLK
  8
0
  0
BLOCK
  8
0
  2
SQUAREP
 70
64
 10
0.0000
 20
0.0000
 30
0.0000
  3
SQUAREP
  0
SOLID
  8
0
 10
-0.5000
 20
-0.5000
 30
0.0000
 11
0.5000
 21
-0.5000
 31
0.0000
 12
-0.5000
 22
0.5000
 32
0.0000
 13
0.5000
 23
0.5000
 33
0.0000
  0
ENDBLK
  8
0
  0
BLOCK
  8
0
  2
ROUNDP
 70
64
 10
0.0000
 20
0.0000
 30
0.0000
  3
ROUNDP
  0
POLYLINE
  8
0
 66
1
 10
0.0000
 20
0.0000
 30
0.0000
 40
0.5000
 41
0.5000
 70
0
  0
VERTEX
  8
0
 10
0.0000
 20
-0.2500
 30
0.0000
 42
1.0000
  0
VERTEX
  8
0
 10
0.0000
 20
0.2500
 30
0.0000
 42
1.0000
  0
VERTEX
  8
0
 10
0.0000
 20
-0.2500
 30
0.0000
  0
SEQEND
  8
0
  0
ENDBLK
  8
0
  0
BLOCK
  8
0
  2
ANNULUSP
 70
64
 10
0.0000
 20
0.0000
 30
0.0000
  3
ANNULUSP
  0
POLYLINE
  8
0
 66
1
 10
0.0000
 20
0.0000
 30
0.0000
 40
0.5000
 41
0.5000
 70
0
  0
VERTEX
  8
0
 10
0.0000
 20
-0.2500
 30
0.0000
 42
1.0000
  0
VERTEX
  8
0
 10
0.0000
 20
0.2500
 30
0.0000
 42
1.0000
  0
VERTEX
  8
0
 10
0.0000
 20
-0.2500
 30
0.0000
  0
SEQEND
  8
0
  0
ENDBLK
  8
0
  0
BLOCK
  8
0
  2
THERMALP
 70
64
 10
0.0000
 20
0.0000
 30
0.0000
  3
THERMALP
  0
POLYLINE
  8
0
 66
1
 10
0.0000
 20
0.0000
 30
0.0000
 40
0.1000
 41
0.1000
 70
0
  0
VERTEX
  8
0
 10
-0.2379
 20
0.4500
 30
0.0000
  0
VERTEX
  8
0
 10
0.2379
 20
0.4500
 30
0.0000
  0
SEQEND
  8
0
  0
POLYLINE
  8
0
 66
1
 10
0.0000
 20
0.0000
 30
0.0000
 40
0.0500
 41
0.0500
 70
0
  0
VERTEX
  8
0
 10
0.2379
 20
0.4250
 30
0.0000
 42
1.0000
  0
VERTEX
  8
0
 10
0.2379
 20
0.4750
 30
0.0000
  0
SEQEND
  8
0
  0
POLYLINE
  8
0
 66
1
 10
0.0000
 20
0.0000
 30
0.0000
 40
0.0500
 41
0.0500
 70
0
  0
VERTEX
  8
0
 10
-0.2379
 20
0.4750
 30
0.0000
 42
1.0000
  0
VERTEX
  8
0
 10
-0.2379
 20
0.4250
 30
0.0000
  0
SEQEND
  8
0
  0
POLYLINE
  8
0
 66
1
 10
0.0000
 20
0.0000
 30
0.0000
 40
0.1000
 41
0.1000
 70
0
  0
VERTEX
  8
0
 10
0.4500
 20
0.2379
 30
0.0000
  0
VERTEX
  8
0
 10
0.4500
 20
-0.2379
 30
0.0000
  0
SEQEND
  8
0
  0
POLYLINE
  8
0
 66
1
 10
0.0000
 20
0.0000
 30
0.0000
 40
0.0500
 41
0.0500
 70
0
  0
VERTEX
  8
0
 10
0.4250
 20
-0.2379
 30
0.0000
 42
1.0000
  0
VERTEX
  8
0
 10
0.4750
 20
-0.2379
 30
0.0000
  0
SEQEND
  8
0
  0
POLYLINE
  8
0
 66
1
 10
0.0000
 20
0.0000
 30
0.0000
 40
0.0500
 41
0.0500
 70
0
  0
VERTEX
  8
0
 10
0.4750
 20
0.2379
 30
0.0000
 42
1.0000
  0
VERTEX
  8
0
 10
0.4250
 20
0.2379
 30
0.0000
  0
SEQEND
  8
0
  0
POLYLINE
  8
0
 66
1
 10
0.0000
 20
0.0000
 30
0.0000
 40
0.1000
 41
0.1000
 70
0
  0
VERTEX
  8
0
 10
0.2379
 20
-0.4500
 30
0.0000
  0
VERTEX
  8
0
 10
-0.2379
 20
-0.4500
 30
0.0000
  0
SEQEND
  8
0
  0
POLYLINE
  8
0
 66
1
 10
0.0000
 20
0.0000
 30
0.0000
 40
0.0500
 41
0.0500
 70
0
  0
VERTEX
  8
0
 10
-0.2379
 20
-0.4250
 30
0.0000
 42
1.0000
  0
VERTEX
  8
0
 10
-0.2379
 20
-0.4750
 30
0.0000
  0
SEQEND
  8
0
  0
POLYLINE
  8
0
 66
1
 10
0.0000
 20
0.0000
 30
0.0000
 40
0.0500
 41
0.0500
 70
0
  0
VERTEX
  8
0
 10
0.2379
 20
-0.4750
 30
0.0000
 42
1.0000
  0
VERTEX
  8
0
 10
0.2379
 20
-0.4250
 30
0.0000
  0
SEQEND
  8
0
  0
POLYLINE
  8
0
 66
1
 10
0.0000
 20
0.0000
 30
0.0000
 40
0.1000
 41
0.1000
 70
0
  0
VERTEX
  8
0
 10
-0.4500
 20
-0.2379
 30
0.0000
  0
VERTEX
  8
0
 10
-0.4500
 20
0.2379
 30
0.0000
  0
SEQEND
  8
0
  0
POLYLINE
  8
0
 66
1
 10
0.0000
 20
0.0000
 30
0.0000
 40
0.0500
 41
0.0500
 70
0
  0
VERTEX
  8
0
 10
-0.4250
 20
0.2379
 30
0.0000
 42
1.0000
  0
VERTEX
  8
0
 10
-0.4750
 20
0.2379
 30
0.0000
  0
SEQEND
  8
0
  0
POLYLINE
  8
0
 66
1
 10
0.0000
 20
0.0000
 30
0.0000
 40
0.0500
 41
0.0500
 70
0
  0
VERTEX
  8
0
 10
-0.4750
 20
-0.2379
 30
0.0000
 42
1.0000
  0
VERTEX
  8
0
 10
-0.4250
 20
-0.2379
 30
0.0000
  0
SEQEND
  8
0
  0
ENDBLK
  8
0
  0
BLOCK
  8
0
  2
OCTAGONV
 70
64
 10
0.0000
 20
0.0000
 30
0.0000
  3
OCTAGONV
  0
POLYLINE
  8
0
 66
1
 10
0.0000
 20
0.0000
 30
0.0000
 40
0.5000
 41
0.5000
 70
0
  0
VERTEX
  8
0
 10
-0.2500
 20
-0.1036
 30
0.0000
  0
VERTEX
  8
0
 10
-0.2500
 20
0.1036
 30
0.0000
  0
VERTEX
  8
0
 10
-0.1036
 20
0.2500
 30
0.0000
  0
VERTEX
  8
0
 10
0.1036
 20
0.2500
 30
0.0000
  0
VERTEX
  8
0
 10
0.2500
 20
0.1036
 30
0.0000
  0
VERTEX
  8
0
 10
0.2500
 20
-0.1036
 30
0.0000
  0
VERTEX
  8
0
 10
0.1036
 20
-0.2500
 30
0.0000
  0
VERTEX
  8
0
 10
-0.1036
 20
-0.2500
 30
0.0000
  0
VERTEX
  8
0
 10
-0.2500
 20
-0.1036
 30
0.0000
  0
VERTEX
  8
0
 10
-0.2500
 20
0.1036
 30
0.0000
  0
SEQEND
  8
0
  0
ENDBLK
  8
0
  0
BLOCK
  8
0
  2
SQUAREV
 70
64
 10
0.0000
 20
0.0000
 30
0.0000
  3
SQUAREV
  0
SOLID
  8
0
 10
-0.5000
 20
-0.5000
 30
0.0000
 11
0.5000
 21
-0.5000
 31
0.0000
 12
-0.5000
 22
0.5000
 32
0.0000
 13
0.5000
 23
0.5000
 33
0.0000
  0
ENDBLK
  8
0
  0
BLOCK
  8
0
  2
ROUNDV
 70
64
 10
0.0000
 20
0.0000
 30
0.0000
  3
ROUNDV
  0
POLYLINE
  8
0
 66
1
 10
0.0000
 20
0.0000
 30
0.0000
 40
0.5000
 41
0.5000
 70
0
  0
VERTEX
  8
0
 10
0.0000
 20
-0.2500
 30
0.0000
 42
1.0000
  0
VERTEX
  8
0
 10
0.0000
 20
0.2500
 30
0.0000
 42
1.0000
  0
VERTEX
  8
0
 10
0.0000
 20
-0.2500
 30
0.0000
  0
SEQEND
  8
0
  0
ENDBLK
  8
0
  0
BLOCK
  8
0
  2
ANNULUSV
 70
64
 10
0.0000
 20
0.0000
 30
0.0000
  3
ANNULUSV
  0
POLYLINE
  8
0
 66
1
 10
0.0000
 20
0.0000
 30
0.0000
 40
0.5000
 41
0.5000
 70
0
  0
VERTEX
  8
0
 10
0.0000
 20
-0.2500
 30
0.0000
 42
1.0000
  0
VERTEX
  8
0
 10
0.0000
 20
0.2500
 30
0.0000
 42
1.0000
  0
VERTEX
  8
0
 10
0.0000
 20
-0.2500
 30
0.0000
  0
SEQEND
  8
0
  0
ENDBLK
  8
0
  0
BLOCK
  8
0
  2
THERMALV
 70
64
 10
0.0000
 20
0.0000
 30
0.0000
  3
THERMALV
  0
POLYLINE
  8
0
 66
1
 10
0.0000
 20
0.0000
 30
0.0000
 40
0.1000
 41
0.1000
 70
0
  0
VERTEX
  8
0
 10
-0.2379
 20
0.4500
 30
0.0000
  0
VERTEX
  8
0
 10
0.2379
 20
0.4500
 30
0.0000
  0
SEQEND
  8
0
  0
POLYLINE
  8
0
 66
1
 10
0.0000
 20
0.0000
 30
0.0000
 40
0.0500
 41
0.0500
 70
0
  0
VERTEX
  8
0
 10
0.2379
 20
0.4250
 30
0.0000
 42
1.0000
  0
VERTEX
  8
0
 10
0.2379
 20
0.4750
 30
0.0000
  0
SEQEND
  8
0
  0
POLYLINE
  8
0
 66
1
 10
0.0000
 20
0.0000
 30
0.0000
 40
0.0500
 41
0.0500
 70
0
  0
VERTEX
  8
0
 10
-0.2379
 20
0.4750
 30
0.0000
 42
1.0000
  0
VERTEX
  8
0
 10
-0.2379
 20
0.4250
 30
0.0000
  0
SEQEND
  8
0
  0
POLYLINE
  8
0
 66
1
 10
0.0000
 20
0.0000
 30
0.0000
 40
0.1000
 41
0.1000
 70
0
  0
VERTEX
  8
0
 10
0.4500
 20
0.2379
 30
0.0000
  0
VERTEX
  8
0
 10
0.4500
 20
-0.2379
 30
0.0000
  0
SEQEND
  8
0
  0
POLYLINE
  8
0
 66
1
 10
0.0000
 20
0.0000
 30
0.0000
 40
0.0500
 41
0.0500
 70
0
  0
VERTEX
  8
0
 10
0.4250
 20
-0.2379
 30
0.0000
 42
1.0000
  0
VERTEX
  8
0
 10
0.4750
 20
-0.2379
 30
0.0000
  0
SEQEND
  8
0
  0
POLYLINE
  8
0
 66
1
 10
0.0000
 20
0.0000
 30
0.0000
 40
0.0500
 41
0.0500
 70
0
  0
VERTEX
  8
0
 10
0.4750
 20
0.2379
 30
0.0000
 42
1.0000
  0
VERTEX
  8
0
 10
0.4250
 20
0.2379
 30
0.0000
  0
SEQEND
  8
0
  0
POLYLINE
  8
0
 66
1
 10
0.0000
 20
0.0000
 30
0.0000
 40
0.1000
 41
0.1000
 70
0
  0
VERTEX
  8
0
 10
0.2379
 20
-0.4500
 30
0.0000
  0
VERTEX
  8
0
 10
-0.2379
 20
-0.4500
 30
0.0000
  0
SEQEND
  8
0
  0
POLYLINE
  8
0
 66
1
 10
0.0000
 20
0.0000
 30
0.0000
 40
0.0500
 41
0.0500
 70
0
  0
VERTEX
  8
0
 10
-0.2379
 20
-0.4250
 30
0.0000
 42
1.0000
  0
VERTEX
  8
0
 10
-0.2379
 20
-0.4750
 30
0.0000
  0
SEQEND
  8
0
  0
POLYLINE
  8
0
 66
1
 10
0.0000
 20
0.0000
 30
0.0000
 40
0.0500
 41
0.0500
 70
0
  0
VERTEX
  8
0
 10
0.2379
 20
-0.4750
 30
0.0000
 42
1.0000
  0
VERTEX
  8
0
 10
0.2379
 20
-0.4250
 30
0.0000
  0
SEQEND
  8
0
  0
POLYLINE
  8
0
 66
1
 10
0.0000
 20
0.0000
 30
0.0000
 40
0.1000
 41
0.1000
 70
0
  0
VERTEX
  8
0
 10
-0.4500
 20
-0.2379
 30
0.0000
  0
VERTEX
  8
0
 10
-0.4500
 20
0.2379
 30
0.0000
  0
SEQEND
  8
0
  0
POLYLINE
  8
0
 66
1
 10
0.0000
 20
0.0000
 30
0.0000
 40
0.0500
 41
0.0500
 70
0
  0
VERTEX
  8
0
 10
-0.4250
 20
0.2379
 30
0.0000
 42
1.0000
  0
VERTEX
  8
0
 10
-0.4750
 20
0.2379
 30
0.0000
  0
SEQEND
  8
0
  0
POLYLINE
  8
0
 66
1
 10
0.0000
 20
0.0000
 30
0.0000
 40
0.0500
 41
0.0500
 70
0
  0
VERTEX
  8
0
 10
-0.4750
 20
-0.2379
 30
0.0000
 42
1.0000
  0
VERTEX
  8
0
 10
-0.4250
 20
-0.2379
 30
0.0000
  0
SEQEND
  8
0
  0
ENDBLK
  8
0
  0
ENDSEC
  0
SECTION
  2
ENTITIES
  0
LINE
  8
20
 10
0.8544
 20
0.4064
 30
0.0000
 11
28.8544
 21
0.4064
 31
0.0000
  0
LINE
  8
20
 10
28.8544
 20
0.4064
 30
0.0000
 11
22.8544
 21
45.4064
 31
0.0000
  0
LINE
  8
20
 10
22.8544
 20
45.4064
 30
0.0000
 11
6.8544
 21
45.4064
 31
0.0000
  0
LINE
  8
20
 10
6.8544
 20
45.4064
 30
0.0000
 11
0.8544
 21
0.4064
 31
0.0000
  0
POLYLINE
  8
21
 66
1
 10
0.0000
 20
0.0000
 30
0.0000
 40
0.4064
 41
0.4064
 70
0
  0
VERTEX
  8
21
 10
12.3744
 20
31.2674
 30
0.0000
  0
VERTEX
  8
21
 10
17.4544
 20
31.2674
 30
0.0000
  0
SEQEND
  8
0
  0
POLYLINE
  8
21
 66
1
 10
0.0000
 20
0.0000
 30
0.0000
 40
0.2032
 41
0.2032
 70
0
  0
VERTEX
  8
21
 10
17.4544
 20
31.1658
 30
0.0000
 42
1.0000
  0
VERTEX
  8
21
 10
17.4544
 20
31.3690
 30
0.0000
  0
SEQEND
  8
0
  0
POLYLINE
  8
21
 66
1
 10
0.0000
 20
0.0000
 30
0.0000
 40
0.2032
 41
0.2032
 70
0
  0
VERTEX
  8
21
 10
12.3744
 20
31.3690
 30
0.0000
 42
1.0000
  0
VERTEX
  8
21
 10
12.3744
 20
31.1658
 30
0.0000
  0
SEQEND
  8
0
  0
POLYLINE
  8
21
 66
1
 10
0.0000
 20
0.0000
 30
0.0000
 40
0.4064
 41
0.4064
 70
0
  0
VERTEX
  8
21
 10
9.8344
 20
14.2494
 30
0.0000
  0
VERTEX
  8
21
 10
19.9944
 20
14.2494
 30
0.0000
  0
SEQEND
  8
0
  0
POLYLINE
  8
21
 66
1
 10
0.0000
 20
0.0000
 30
0.0000
 40
0.2032
 41
0.2032
 70
0
  0
VERTEX
  8
21
 10
19.9944
 20
14.1478
 30
0.0000
 42
1.0000
  0
VERTEX
  8
21
 10
19.9944
 20
14.3510
 30
0.0000
  0
SEQEND
  8
0
  0
POLYLINE
  8
21
 66
1
 10
0.0000
 20
0.0000
 30
0.0000
 40
0.2032
 41
0.2032
 70
0
  0
VERTEX
  8
21
 10
9.8344
 20
14.3510
 30
0.0000
 42
1.0000
  0
VERTEX
  8
21
 10
9.8344
 20
14.1478
 30
0.0000
  0
SEQEND
  8
0
  0
POLYLINE
  8
21
 66
1
 10
0.0000
 20
0.0000
 30
0.0000
 40
0.4064
 41
0.4064
 70
0
  0
VERTEX
  8
21
 10
9.8344
 20
36.8554
 30
0.0000
  0
VERTEX
  8
21
 10
19.9944
 20
36.8554
 30
0.0000
  0
SEQEND
  8
0
  0
POLYLINE
  8
21
 66
1
 10
0.0000
 20
0.0000
 30
0.0000
 40
0.2032
 41
0.2032
 70
0
  0
VERTEX
  8
21
 10
19.9944
 20
36.7538
 30
0.0000
 42
1.0000
  0
VERTEX
  8
21
 10
19.9944
 20
36.9570
 30
0.0000
  0
SEQEND
  8
0
  0
POLYLINE
  8
21
 66
1
 10
0.0000
 20
0.0000
 30
0.0000
 40
0.2032
 41
0.2032
 70
0
  0
VERTEX
  8
21
 10
9.8344
 20
36.9570
 30
0.0000
 42
1.0000
  0
VERTEX
  8
21
 10
9.8344
 20
36.7538
 30
0.0000
  0
SEQEND
  8
0
  0
POLYLINE
  8
21
 66
1
 10
0.0000
 20
0.0000
 30
0.0000
 40
0.4064
 41
0.4064
 70
0
  0
VERTEX
  8
21
 10
9.8344
 20
25.5524
 30
0.0000
  0
VERTEX
  8
21
 10
19.9944
 20
25.5524
 30
0.0000
  0
SEQEND
  8
0
  0
POLYLINE
  8
21
 66
1
 10
0.0000
 20
0.0000
 30
0.0000
 40
0.2032
 41
0.2032
 70
0
  0
VERTEX
  8
21
 10
19.9944
 20
25.4508
 30
0.0000
 42
1.0000
  0
VERTEX
  8
21
 10
19.9944
 20
25.6540
 30
0.0000
  0
SEQEND
  8
0
  0
POLYLINE
  8
21
 66
1
 10
0.0000
 20
0.0000
 30
0.0000
 40
0.2032
 41
0.2032
 70
0
  0
VERTEX
  8
21
 10
9.8344
 20
25.6540
 30
0.0000
 42
1.0000
  0
VERTEX
  8
21
 10
9.8344
 20
25.4508
 30
0.0000
  0
SEQEND
  8
0
  0
POLYLINE
  8
21
 66
1
 10
0.0000
 20
0.0000
 30
0.0000
 40
0.4064
 41
0.4064
 70
0
  0
VERTEX
  8
21
 10
12.3744
 20
19.9644
 30
0.0000
  0
VERTEX
  8
21
 10
17.4544
 20
19.9644
 30
0.0000
  0
SEQEND
  8
0
  0
POLYLINE
  8
21
 66
1
 10
0.0000
 20
0.0000
 30
0.0000
 40
0.2032
 41
0.2032
 70
0
  0
VERTEX
  8
21
 10
17.4544
 20
19.8628
 30
0.0000
 42
1.0000
  0
VERTEX
  8
21
 10
17.4544
 20
20.0660
 30
0.0000
  0
SEQEND
  8
0
  0
POLYLINE
  8
21
 66
1
 10
0.0000
 20
0.0000
 30
0.0000
 40
0.2032
 41
0.2032
 70
0
  0
VERTEX
  8
21
 10
12.3744
 20
20.0660
 30
0.0000
 42
1.0000
  0
VERTEX
  8
21
 10
12.3744
 20
19.8628
 30
0.0000
  0
SEQEND
  8
0
  0
POLYLINE
  8
21
 66
1
 10
0.0000
 20
0.0000
 30
0.0000
 40
0.2032
 41
0.2032
 70
0
  0
VERTEX
  8
21
 10
3.7268
 20
2.3858
 30
0.0000
  0
VERTEX
  8
21
 10
3.5489
 20
2.5637
 30
0.0000
  0
SEQEND
  8
0
  0
POLYLINE
  8
21
 66
1
 10
0.0000
 20
0.0000
 30
0.0000
 40
0.1016
 41
0.1016
 70
0
  0
VERTEX
  8
21
 10
3.5848
 20
2.5996
 30
0.0000
 42
1.0000
  0
VERTEX
  8
21
 10
3.5129
 20
2.5278
 30
0.0000
  0
SEQEND
  8
0
  0
POLYLINE
  8
21
 66
1
 10
0.0000
 20
0.0000
 30
0.0000
 40
0.1016
 41
0.1016
 70
0
  0
VERTEX
  8
21
 10
3.6909
 20
2.3498
 30
0.0000
 42
1.0000
  0
VERTEX
  8
21
 10
3.7627
 20
2.4217
 30
0.0000
  0
SEQEND
  8
0
  0
POLYLINE
  8
21
 66
1
 10
0.0000
 20
0.0000
 30
0.0000
 40
0.2032
 41
0.2032
 70
0
  0
VERTEX
  8
21
 10
3.5489
 20
2.5637
 30
0.0000
  0
VERTEX
  8
21
 10
3.1930
 20
2.5637
 30
0.0000
  0
SEQEND
  8
0
  0
POLYLINE
  8
21
 66
1
 10
0.0000
 20
0.0000
 30
0.0000
 40
0.1016
 41
0.1016
 70
0
  0
VERTEX
  8
21
 10
3.1930
 20
2.6145
 30
0.0000
 42
1.0000
  0
VERTEX
  8
21
 10
3.1930
 20
2.5129
 30
0.0000
  0
SEQEND
  8
0
  0
POLYLINE
  8
21
 66
1
 10
0.0000
 20
0.0000
 30
0.0000
 40
0.1016
 41
0.1016
 70
0
  0
VERTEX
  8
21
 10
3.5489
 20
2.5129
 30
0.0000
 42
1.0000
  0
VERTEX
  8
21
 10
3.5489
 20
2.6145
 30
0.0000
  0
SEQEND
  8
0
  0
POLYLINE
  8
21
 66
1
 10
0.0000
 20
0.0000
 30
0.0000
 40
0.2032
 41
0.2032
 70
0
  0
VERTEX
  8
21
 10
3.1930
 20
2.5637
 30
0.0000
  0
VERTEX
  8
21
 10
3.0150
 20
2.3858
 30
0.0000
  0
SEQEND
  8
0
  0
POLYLINE
  8
21
 66
1
 10
0.0000
 20
0.0000
 30
0.0000
 40
0.1016
 41
0.1016
 70
0
  0
VERTEX
  8
21
 10
2.9791
 20
2.4217
 30
0.0000
 42
1.0000
  0
VERTEX
  8
21
 10
3.0509
 20
2.3498
 30
0.0000
  0
SEQEND
  8
0
  0
POLYLINE
  8
21
 66
1
 10
0.0000
 20
0.0000
 30
0.0000
 40
0.1016
 41
0.1016
 70
0
  0
VERTEX
  8
21
 10
3.2289
 20
2.5278
 30
0.0000
 42
1.0000
  0
VERTEX
  8
21
 10
3.1570
 20
2.5996
 30
0.0000
  0
SEQEND
  8
0
  0
POLYLINE
  8
21
 66
1
 10
0.0000
 20
0.0000
 30
0.0000
 40
0.2032
 41
0.2032
 70
0
  0
VERTEX
  8
21
 10
3.0150
 20
2.3858
 30
0.0000
  0
VERTEX
  8
21
 10
3.0150
 20
2.2078
 30
0.0000
  0
SEQEND
  8
0
  0
POLYLINE
  8
21
 66
1
 10
0.0000
 20
0.0000
 30
0.0000
 40
0.1016
 41
0.1016
 70
0
  0
VERTEX
  8
21
 10
2.9642
 20
2.2078
 30
0.0000
 42
1.0000
  0
VERTEX
  8
21
 10
3.0658
 20
2.2078
 30
0.0000
  0
SEQEND
  8
0
  0
POLYLINE
  8
21
 66
1
 10
0.0000
 20
0.0000
 30
0.0000
 40
0.1016
 41
0.1016
 70
0
  0
VERTEX
  8
21
 10
3.0658
 20
2.3858
 30
0.0000
 42
1.0000
  0
VERTEX
  8
21
 10
2.9642
 20
2.3858
 30
0.0000
  0
SEQEND
  8
0
  0
POLYLINE
  8
21
 66
1
 10
0.0000
 20
0.0000
 30
0.0000
 40
0.2032
 41
0.2032
 70
0
  0
VERTEX
  8
21
 10
3.0150
 20
2.2078
 30
0.0000
  0
VERTEX
  8
21
 10
3.1930
 20
2.0299
 30
0.0000
  0
SEQEND
  8
0
  0
POLYLINE
  8
21
 66
1
 10
0.0000
 20
0.0000
 30
0.0000
 40
0.1016
 41
0.1016
 70
0
  0
VERTEX
  8
21
 10
3.1570
 20
1.9939
 30
0.0000
 42
1.0000
  0
VERTEX
  8
21
 10
3.2289
 20
2.0658
 30
0.0000
  0
SEQEND
  8
0
  0
POLYLINE
  8
21
 66
1
 10
0.0000
 20
0.0000
 30
0.0000
 40
0.1016
 41
0.1016
 70
0
  0
VERTEX
  8
21
 10
3.0509
 20
2.2437
 30
0.0000
 42
1.0000
  0
VERTEX
  8
21
 10
2.9791
 20
2.1719
 30
0.0000
  0
SEQEND
  8
0
  0
POLYLINE
  8
21
 66
1
 10
0.0000
 20
0.0000
 30
0.0000
 40
0.2032
 41
0.2032
 70
0
  0
VERTEX
  8
21
 10
3.1930
 20
2.0299
 30
0.0000
  0
VERTEX
  8
21
 10
3.5489
 20
2.0299
 30
0.0000
  0
SEQEND
  8
0
  0
POLYLINE
  8
21
 66
1
 10
0.0000
 20
0.0000
 30
0.0000
 40
0.1016
 41
0.1016
 70
0
  0
VERTEX
  8
21
 10
3.5489
 20
1.9791
 30
0.0000
 42
1.0000
  0
VERTEX
  8
21
 10
3.5489
 20
2.0807
 30
0.0000
  0
SEQEND
  8
0
  0
POLYLINE
  8
21
 66
1
 10
0.0000
 20
0.0000
 30
0.0000
 40
0.1016
 41
0.1016
 70
0
  0
VERTEX
  8
21
 10
3.1930
 20
2.0807
 30
0.0000
 42
1.0000
  0
VERTEX
  8
21
 10
3.1930
 20
1.9791
 30
0.0000
  0
SEQEND
  8
0
  0
POLYLINE
  8
21
 66
1
 10
0.0000
 20
0.0000
 30
0.0000
 40
0.2032
 41
0.2032
 70
0
  0
VERTEX
  8
21
 10
3.5489
 20
2.0299
 30
0.0000
  0
VERTEX
  8
21
 10
3.7268
 20
1.8519
 30
0.0000
  0
SEQEND
  8
0
  0
POLYLINE
  8
21
 66
1
 10
0.0000
 20
0.0000
 30
0.0000
 40
0.1016
 41
0.1016
 70
0
  0
VERTEX
  8
21
 10
3.6909
 20
1.8160
 30
0.0000
 42
1.0000
  0
VERTEX
  8
21
 10
3.7627
 20
1.8878
 30
0.0000
  0
SEQEND
  8
0
  0
POLYLINE
  8
21
 66
1
 10
0.0000
 20
0.0000
 30
0.0000
 40
0.1016
 41
0.1016
 70
0
  0
VERTEX
  8
21
 10
3.5848
 20
2.0658
 30
0.0000
 42
1.0000
  0
VERTEX
  8
21
 10
3.5129
 20
1.9939
 30
0.0000
  0
SEQEND
  8
0
  0
POLYLINE
  8
21
 66
1
 10
0.0000
 20
0.0000
 30
0.0000
 40
0.2032
 41
0.2032
 70
0
  0
VERTEX
  8
21
 10
3.7268
 20
1.8519
 30
0.0000
  0
VERTEX
  8
21
 10
3.7268
 20
1.6740
 30
0.0000
  0
SEQEND
  8
0
  0
POLYLINE
  8
21
 66
1
 10
0.0000
 20
0.0000
 30
0.0000
 40
0.1016
 41
0.1016
 70
0
  0
VERTEX
  8
21
 10
3.6760
 20
1.6740
 30
0.0000
 42
1.0000
  0
VERTEX
  8
21
 10
3.7776
 20
1.6740
 30
0.0000
  0
SEQEND
  8
0
  0
POLYLINE
  8
21
 66
1
 10
0.0000
 20
0.0000
 30
0.0000
 40
0.1016
 41
0.1016
 70
0
  0
VERTEX
  8
21
 10
3.7776
 20
1.8519
 30
0.0000
 42
1.0000
  0
VERTEX
  8
21
 10
3.6760
 20
1.8519
 30
0.0000
  0
SEQEND
  8
0
  0
POLYLINE
  8
21
 66
1
 10
0.0000
 20
0.0000
 30
0.0000
 40
0.2032
 41
0.2032
 70
0
  0
VERTEX
  8
21
 10
3.7268
 20
1.6740
 30
0.0000
  0
VERTEX
  8
21
 10
3.5489
 20
1.4960
 30
0.0000
  0
SEQEND
  8
0
  0
POLYLINE
  8
21
 66
1
 10
0.0000
 20
0.0000
 30
0.0000
 40
0.1016
 41
0.1016
 70
0
  0
VERTEX
  8
21
 10
3.5129
 20
1.5319
 30
0.0000
 42
1.0000
  0
VERTEX
  8
21
 10
3.5848
 20
1.4601
 30
0.0000
  0
SEQEND
  8
0
  0
POLYLINE
  8
21
 66
1
 10
0.0000
 20
0.0000
 30
0.0000
 40
0.1016
 41
0.1016
 70
0
  0
VERTEX
  8
21
 10
3.7627
 20
1.6380
 30
0.0000
 42
1.0000
  0
VERTEX
  8
21
 10
3.6909
 20
1.7099
 30
0.0000
  0
SEQEND
  8
0
  0
POLYLINE
  8
21
 66
1
 10
0.0000
 20
0.0000
 30
0.0000
 40
0.2032
 41
0.2032
 70
0
  0
VERTEX
  8
21
 10
3.5489
 20
1.4960
 30
0.0000
  0
VERTEX
  8
21
 10
3.1930
 20
1.4960
 30
0.0000
  0
SEQEND
  8
0
  0
POLYLINE
  8
21
 66
1
 10
0.0000
 20
0.0000
 30
0.0000
 40
0.1016
 41
0.1016
 70
0
  0
VERTEX
  8
21
 10
3.1930
 20
1.5468
 30
0.0000
 42
1.0000
  0
VERTEX
  8
21
 10
3.1930
 20
1.4452
 30
0.0000
  0
SEQEND
  8
0
  0
POLYLINE
  8
21
 66
1
 10
0.0000
 20
0.0000
 30
0.0000
 40
0.1016
 41
0.1016
 70
0
  0
VERTEX
  8
21
 10
3.5489
 20
1.4452
 30
0.0000
 42
1.0000
  0
VERTEX
  8
21
 10
3.5489
 20
1.5468
 30
0.0000
  0
SEQEND
  8
0
  0
POLYLINE
  8
21
 66
1
 10
0.0000
 20
0.0000
 30
0.0000
 40
0.2032
 41
0.2032
 70
0
  0
VERTEX
  8
21
 10
3.1930
 20
1.4960
 30
0.0000
  0
VERTEX
  8
21
 10
3.0150
 20
1.6740
 30
0.0000
  0
SEQEND
  8
0
  0
POLYLINE
  8
21
 66
1
 10
0.0000
 20
0.0000
 30
0.0000
 40
0.1016
 41
0.1016
 70
0
  0
VERTEX
  8
21
 10
3.0509
 20
1.7099
 30
0.0000
 42
1.0000
  0
VERTEX
  8
21
 10
2.9791
 20
1.6380
 30
0.0000
  0
SEQEND
  8
0
  0
POLYLINE
  8
21
 66
1
 10
0.0000
 20
0.0000
 30
0.0000
 40
0.1016
 41
0.1016
 70
0
  0
VERTEX
  8
21
 10
3.1570
 20
1.4601
 30
0.0000
 42
1.0000
  0
VERTEX
  8
21
 10
3.2289
 20
1.5319
 30
0.0000
  0
SEQEND
  8
0
  0
POLYLINE
  8
21
 66
1
 10
0.0000
 20
0.0000
 30
0.0000
 40
0.2032
 41
0.2032
 70
0
  0
VERTEX
  8
21
 10
4.1844
 20
1.4960
 30
0.0000
  0
VERTEX
  8
21
 10
4.1844
 20
2.5637
 30
0.0000
  0
SEQEND
  8
0
  0
POLYLINE
  8
21
 66
1
 10
0.0000
 20
0.0000
 30
0.0000
 40
0.1016
 41
0.1016
 70
0
  0
VERTEX
  8
21
 10
4.2352
 20
2.5637
 30
0.0000
 42
1.0000
  0
VERTEX
  8
21
 10
4.1336
 20
2.5637
 30
0.0000
  0
SEQEND
  8
0
  0
POLYLINE
  8
21
 66
1
 10
0.0000
 20
0.0000
 30
0.0000
 40
0.1016
 41
0.1016
 70
0
  0
VERTEX
  8
21
 10
4.1336
 20
1.4960
 30
0.0000
 42
1.0000
  0
VERTEX
  8
21
 10
4.2352
 20
1.4960
 30
0.0000
  0
SEQEND
  8
0
  0
POLYLINE
  8
21
 66
1
 10
0.0000
 20
0.0000
 30
0.0000
 40
0.2032
 41
0.2032
 70
0
  0
VERTEX
  8
21
 10
4.1844
 20
2.0299
 30
0.0000
  0
VERTEX
  8
21
 10
4.8962
 20
2.0299
 30
0.0000
  0
SEQEND
  8
0
  0
POLYLINE
  8
21
 66
1
 10
0.0000
 20
0.0000
 30
0.0000
 40
0.1016
 41
0.1016
 70
0
  0
VERTEX
  8
21
 10
4.8962
 20
1.9791
 30
0.0000
 42
1.0000
  0
VERTEX
  8
21
 10
4.8962
 20
2.0807
 30
0.0000
  0
SEQEND
  8
0
  0
POLYLINE
  8
21
 66
1
 10
0.0000
 20
0.0000
 30
0.0000
 40
0.1016
 41
0.1016
 70
0
  0
VERTEX
  8
21
 10
4.1844
 20
2.0807
 30
0.0000
 42
1.0000
  0
VERTEX
  8
21
 10
4.1844
 20
1.9791
 30
0.0000
  0
SEQEND
  8
0
  0
POLYLINE
  8
21
 66
1
 10
0.0000
 20
0.0000
 30
0.0000
 40
0.2032
 41
0.2032
 70
0
  0
VERTEX
  8
21
 10
4.8962
 20
2.5637
 30
0.0000
  0
VERTEX
  8
21
 10
4.8962
 20
1.4960
 30
0.0000
  0
SEQEND
  8
0
  0
POLYLINE
  8
21
 66
1
 10
0.0000
 20
0.0000
 30
0.0000
 40
0.1016
 41
0.1016
 70
0
  0
VERTEX
  8
21
 10
4.8454
 20
1.4960
 30
0.0000
 42
1.0000
  0
VERTEX
  8
21
 10
4.9470
 20
1.4960
 30
0.0000
  0
SEQEND
  8
0
  0
POLYLINE
  8
21
 66
1
 10
0.0000
 20
0.0000
 30
0.0000
 40
0.1016
 41
0.1016
 70
0
  0
VERTEX
  8
21
 10
4.9470
 20
2.5637
 30
0.0000
 42
1.0000
  0
VERTEX
  8
21
 10
4.8454
 20
2.5637
 30
0.0000
  0
SEQEND
  8
0
  0
POLYLINE
  8
21
 66
1
 10
0.0000
 20
0.0000
 30
0.0000
 40
0.2032
 41
0.2032
 70
0
  0
VERTEX
  8
21
 10
5.3538
 20
1.4960
 30
0.0000
  0
VERTEX
  8
21
 10
5.7097
 20
1.4960
 30
0.0000
  0
SEQEND
  8
0
  0
POLYLINE
  8
21
 66
1
 10
0.0000
 20
0.0000
 30
0.0000
 40
0.1016
 41
0.1016
 70
0
  0
VERTEX
  8
21
 10
5.7097
 20
1.4452
 30
0.0000
 42
1.0000
  0
VERTEX
  8
21
 10
5.7097
 20
1.5468
 30
0.0000
  0
SEQEND
  8
0
  0
POLYLINE
  8
21
 66
1
 10
0.0000
 20
0.0000
 30
0.0000
 40
0.1016
 41
0.1016
 70
0
  0
VERTEX
  8
21
 10
5.3538
 20
1.5468
 30
0.0000
 42
1.0000
  0
VERTEX
  8
21
 10
5.3538
 20
1.4452
 30
0.0000
  0
SEQEND
  8
0
  0
POLYLINE
  8
21
 66
1
 10
0.0000
 20
0.0000
 30
0.0000
 40
0.2032
 41
0.2032
 70
0
  0
VERTEX
  8
21
 10
5.5317
 20
1.4960
 30
0.0000
  0
VERTEX
  8
21
 10
5.5317
 20
2.5637
 30
0.0000
  0
SEQEND
  8
0
  0
POLYLINE
  8
21
 66
1
 10
0.0000
 20
0.0000
 30
0.0000
 40
0.1016
 41
0.1016
 70
0
  0
VERTEX
  8
21
 10
5.5825
 20
2.5637
 30
0.0000
 42
1.0000
  0
VERTEX
  8
21
 10
5.4809
 20
2.5637
 30
0.0000
  0
SEQEND
  8
0
  0
POLYLINE
  8
21
 66
1
 10
0.0000
 20
0.0000
 30
0.0000
 40
0.1016
 41
0.1016
 70
0
  0
VERTEX
  8
21
 10
5.4809
 20
1.4960
 30
0.0000
 42
1.0000
  0
VERTEX
  8
21
 10
5.5825
 20
1.4960
 30
0.0000
  0
SEQEND
  8
0
  0
POLYLINE
  8
21
 66
1
 10
0.0000
 20
0.0000
 30
0.0000
 40
0.2032
 41
0.2032
 70
0
  0
VERTEX
  8
21
 10
5.3538
 20
2.5637
 30
0.0000
  0
VERTEX
  8
21
 10
5.7097
 20
2.5637
 30
0.0000
  0
SEQEND
  8
0
  0
POLYLINE
  8
21
 66
1
 10
0.0000
 20
0.0000
 30
0.0000
 40
0.1016
 41
0.1016
 70
0
  0
VERTEX
  8
21
 10
5.7097
 20
2.5129
 30
0.0000
 42
1.0000
  0
VERTEX
  8
21
 10
5.7097
 20
2.6145
 30
0.0000
  0
SEQEND
  8
0
  0
POLYLINE
  8
21
 66
1
 10
0.0000
 20
0.0000
 30
0.0000
 40
0.1016
 41
0.1016
 70
0
  0
VERTEX
  8
21
 10
5.3538
 20
2.6145
 30
0.0000
 42
1.0000
  0
VERTEX
  8
21
 10
5.3538
 20
2.5129
 30
0.0000
  0
SEQEND
  8
0
  0
POLYLINE
  8
21
 66
1
 10
0.0000
 20
0.0000
 30
0.0000
 40
0.2032
 41
0.2032
 70
0
  0
VERTEX
  8
21
 10
6.8452
 20
2.5637
 30
0.0000
  0
VERTEX
  8
21
 10
6.1334
 20
2.5637
 30
0.0000
  0
SEQEND
  8
0
  0
POLYLINE
  8
21
 66
1
 10
0.0000
 20
0.0000
 30
0.0000
 40
0.1016
 41
0.1016
 70
0
  0
VERTEX
  8
21
 10
6.1334
 20
2.6145
 30
0.0000
 42
1.0000
  0
VERTEX
  8
21
 10
6.1334
 20
2.5129
 30
0.0000
  0
SEQEND
  8
0
  0
POLYLINE
  8
21
 66
1
 10
0.0000
 20
0.0000
 30
0.0000
 40
0.1016
 41
0.1016
 70
0
  0
VERTEX
  8
21
 10
6.8452
 20
2.5129
 30
0.0000
 42
1.0000
  0
VERTEX
  8
21
 10
6.8452
 20
2.6145
 30
0.0000
  0
SEQEND
  8
0
  0
POLYLINE
  8
21
 66
1
 10
0.0000
 20
0.0000
 30
0.0000
 40
0.2032
 41
0.2032
 70
0
  0
VERTEX
  8
21
 10
6.1334
 20
2.5637
 30
0.0000
  0
VERTEX
  8
21
 10
6.1334
 20
1.4960
 30
0.0000
  0
SEQEND
  8
0
  0
POLYLINE
  8
21
 66
1
 10
0.0000
 20
0.0000
 30
0.0000
 40
0.1016
 41
0.1016
 70
0
  0
VERTEX
  8
21
 10
6.0826
 20
1.4960
 30
0.0000
 42
1.0000
  0
VERTEX
  8
21
 10
6.1842
 20
1.4960
 30
0.0000
  0
SEQEND
  8
0
  0
POLYLINE
  8
21
 66
1
 10
0.0000
 20
0.0000
 30
0.0000
 40
0.1016
 41
0.1016
 70
0
  0
VERTEX
  8
21
 10
6.1842
 20
2.5637
 30
0.0000
 42
1.0000
  0
VERTEX
  8
21
 10
6.0826
 20
2.5637
 30
0.0000
  0
SEQEND
  8
0
  0
POLYLINE
  8
21
 66
1
 10
0.0000
 20
0.0000
 30
0.0000
 40
0.2032
 41
0.2032
 70
0
  0
VERTEX
  8
21
 10
6.1334
 20
1.4960
 30
0.0000
  0
VERTEX
  8
21
 10
6.8452
 20
1.4960
 30
0.0000
  0
SEQEND
  8
0
  0
POLYLINE
  8
21
 66
1
 10
0.0000
 20
0.0000
 30
0.0000
 40
0.1016
 41
0.1016
 70
0
  0
VERTEX
  8
21
 10
6.8452
 20
1.4452
 30
0.0000
 42
1.0000
  0
VERTEX
  8
21
 10
6.8452
 20
1.5468
 30
0.0000
  0
SEQEND
  8
0
  0
POLYLINE
  8
21
 66
1
 10
0.0000
 20
0.0000
 30
0.0000
 40
0.1016
 41
0.1016
 70
0
  0
VERTEX
  8
21
 10
6.1334
 20
1.5468
 30
0.0000
 42
1.0000
  0
VERTEX
  8
21
 10
6.1334
 20
1.4452
 30
0.0000
  0
SEQEND
  8
0
  0
POLYLINE
  8
21
 66
1
 10
0.0000
 20
0.0000
 30
0.0000
 40
0.2032
 41
0.2032
 70
0
  0
VERTEX
  8
21
 10
6.1334
 20
2.0299
 30
0.0000
  0
VERTEX
  8
21
 10
6.4893
 20
2.0299
 30
0.0000
  0
SEQEND
  8
0
  0
POLYLINE
  8
21
 66
1
 10
0.0000
 20
0.0000
 30
0.0000
 40
0.1016
 41
0.1016
 70
0
  0
VERTEX
  8
21
 10
6.4893
 20
1.9791
 30
0.0000
 42
1.0000
  0
VERTEX
  8
21
 10
6.4893
 20
2.0807
 30
0.0000
  0
SEQEND
  8
0
  0
POLYLINE
  8
21
 66
1
 10
0.0000
 20
0.0000
 30
0.0000
 40
0.1016
 41
0.1016
 70
0
  0
VERTEX
  8
21
 10
6.1334
 20
2.0807
 30
0.0000
 42
1.0000
  0
VERTEX
  8
21
 10
6.1334
 20
1.9791
 30
0.0000
  0
SEQEND
  8
0
  0
POLYLINE
  8
21
 66
1
 10
0.0000
 20
0.0000
 30
0.0000
 40
0.2032
 41
0.2032
 70
0
  0
VERTEX
  8
21
 10
7.3028
 20
2.5637
 30
0.0000
  0
VERTEX
  8
21
 10
7.3028
 20
1.4960
 30
0.0000
  0
SEQEND
  8
0
  0
POLYLINE
  8
21
 66
1
 10
0.0000
 20
0.0000
 30
0.0000
 40
0.1016
 41
0.1016
 70
0
  0
VERTEX
  8
21
 10
7.2520
 20
1.4960
 30
0.0000
 42
1.0000
  0
VERTEX
  8
21
 10
7.3536
 20
1.4960
 30
0.0000
  0
SEQEND
  8
0
  0
POLYLINE
  8
21
 66
1
 10
0.0000
 20
0.0000
 30
0.0000
 40
0.1016
 41
0.1016
 70
0
  0
VERTEX
  8
21
 10
7.3536
 20
2.5637
 30
0.0000
 42
1.0000
  0
VERTEX
  8
21
 10
7.2520
 20
2.5637
 30
0.0000
  0
SEQEND
  8
0
  0
POLYLINE
  8
21
 66
1
 10
0.0000
 20
0.0000
 30
0.0000
 40
0.2032
 41
0.2032
 70
0
  0
VERTEX
  8
21
 10
7.3028
 20
1.4960
 30
0.0000
  0
VERTEX
  8
21
 10
8.0146
 20
1.4960
 30
0.0000
  0
SEQEND
  8
0
  0
POLYLINE
  8
21
 66
1
 10
0.0000
 20
0.0000
 30
0.0000
 40
0.1016
 41
0.1016
 70
0
  0
VERTEX
  8
21
 10
8.0146
 20
1.4452
 30
0.0000
 42
1.0000
  0
VERTEX
  8
21
 10
8.0146
 20
1.5468
 30
0.0000
  0
SEQEND
  8
0
  0
POLYLINE
  8
21
 66
1
 10
0.0000
 20
0.0000
 30
0.0000
 40
0.1016
 41
0.1016
 70
0
  0
VERTEX
  8
21
 10
7.3028
 20
1.5468
 30
0.0000
 42
1.0000
  0
VERTEX
  8
21
 10
7.3028
 20
1.4452
 30
0.0000
  0
SEQEND
  8
0
  0
POLYLINE
  8
21
 66
1
 10
0.0000
 20
0.0000
 30
0.0000
 40
0.2032
 41
0.2032
 70
0
  0
VERTEX
  8
21
 10
8.4722
 20
2.5637
 30
0.0000
  0
VERTEX
  8
21
 10
8.4722
 20
1.4960
 30
0.0000
  0
SEQEND
  8
0
  0
POLYLINE
  8
21
 66
1
 10
0.0000
 20
0.0000
 30
0.0000
 40
0.1016
 41
0.1016
 70
0
  0
VERTEX
  8
21
 10
8.4214
 20
1.4960
 30
0.0000
 42
1.0000
  0
VERTEX
  8
21
 10
8.5230
 20
1.4960
 30
0.0000
  0
SEQEND
  8
0
  0
POLYLINE
  8
21
 66
1
 10
0.0000
 20
0.0000
 30
0.0000
 40
0.1016
 41
0.1016
 70
0
  0
VERTEX
  8
21
 10
8.5230
 20
2.5637
 30
0.0000
 42
1.0000
  0
VERTEX
  8
21
 10
8.4214
 20
2.5637
 30
0.0000
  0
SEQEND
  8
0
  0
POLYLINE
  8
21
 66
1
 10
0.0000
 20
0.0000
 30
0.0000
 40
0.2032
 41
0.2032
 70
0
  0
VERTEX
  8
21
 10
8.4722
 20
1.4960
 30
0.0000
  0
VERTEX
  8
21
 10
9.0060
 20
1.4960
 30
0.0000
  0
SEQEND
  8
0
  0
POLYLINE
  8
21
 66
1
 10
0.0000
 20
0.0000
 30
0.0000
 40
0.1016
 41
0.1016
 70
0
  0
VERTEX
  8
21
 10
9.0060
 20
1.4452
 30
0.0000
 42
1.0000
  0
VERTEX
  8
21
 10
9.0060
 20
1.5468
 30
0.0000
  0
SEQEND
  8
0
  0
POLYLINE
  8
21
 66
1
 10
0.0000
 20
0.0000
 30
0.0000
 40
0.1016
 41
0.1016
 70
0
  0
VERTEX
  8
21
 10
8.4722
 20
1.5468
 30
0.0000
 42
1.0000
  0
VERTEX
  8
21
 10
8.4722
 20
1.4452
 30
0.0000
  0
SEQEND
  8
0
  0
POLYLINE
  8
21
 66
1
 10
0.0000
 20
0.0000
 30
0.0000
 40
0.2032
 41
0.2032
 70
0
  0
VERTEX
  8
21
 10
9.0060
 20
1.4960
 30
0.0000
  0
VERTEX
  8
21
 10
9.1840
 20
1.6740
 30
0.0000
  0
SEQEND
  8
0
  0
POLYLINE
  8
21
 66
1
 10
0.0000
 20
0.0000
 30
0.0000
 40
0.1016
 41
0.1016
 70
0
  0
VERTEX
  8
21
 10
9.2199
 20
1.6380
 30
0.0000
 42
1.0000
  0
VERTEX
  8
21
 10
9.1481
 20
1.7099
 30
0.0000
  0
SEQEND
  8
0
  0
POLYLINE
  8
21
 66
1
 10
0.0000
 20
0.0000
 30
0.0000
 40
0.1016
 41
0.1016
 70
0
  0
VERTEX
  8
21
 10
8.9701
 20
1.5319
 30
0.0000
 42
1.0000
  0
VERTEX
  8
21
 10
9.0420
 20
1.4601
 30
0.0000
  0
SEQEND
  8
0
  0
POLYLINE
  8
21
 66
1
 10
0.0000
 20
0.0000
 30
0.0000
 40
0.2032
 41
0.2032
 70
0
  0
VERTEX
  8
21
 10
9.1840
 20
1.6740
 30
0.0000
  0
VERTEX
  8
21
 10
9.1840
 20
2.3858
 30
0.0000
  0
SEQEND
  8
0
  0
POLYLINE
  8
21
 66
1
 10
0.0000
 20
0.0000
 30
0.0000
 40
0.1016
 41
0.1016
 70
0
  0
VERTEX
  8
21
 10
9.2348
 20
2.3858
 30
0.0000
 42
1.0000
  0
VERTEX
  8
21
 10
9.1332
 20
2.3858
 30
0.0000
  0
SEQEND
  8
0
  0
POLYLINE
  8
21
 66
1
 10
0.0000
 20
0.0000
 30
0.0000
 40
0.1016
 41
0.1016
 70
0
  0
VERTEX
  8
21
 10
9.1332
 20
1.6740
 30
0.0000
 42
1.0000
  0
VERTEX
  8
21
 10
9.2348
 20
1.6740
 30
0.0000
  0
SEQEND
  8
0
  0
POLYLINE
  8
21
 66
1
 10
0.0000
 20
0.0000
 30
0.0000
 40
0.2032
 41
0.2032
 70
0
  0
VERTEX
  8
21
 10
9.1840
 20
2.3858
 30
0.0000
  0
VERTEX
  8
21
 10
9.0060
 20
2.5637
 30
0.0000
  0
SEQEND
  8
0
  0
POLYLINE
  8
21
 66
1
 10
0.0000
 20
0.0000
 30
0.0000
 40
0.1016
 41
0.1016
 70
0
  0
VERTEX
  8
21
 10
9.0420
 20
2.5996
 30
0.0000
 42
1.0000
  0
VERTEX
  8
21
 10
8.9701
 20
2.5278
 30
0.0000
  0
SEQEND
  8
0
  0
POLYLINE
  8
21
 66
1
 10
0.0000
 20
0.0000
 30
0.0000
 40
0.1016
 41
0.1016
 70
0
  0
VERTEX
  8
21
 10
9.1481
 20
2.3498
 30
0.0000
 42
1.0000
  0
VERTEX
  8
21
 10
9.2199
 20
2.4217
 30
0.0000
  0
SEQEND
  8
0
  0
POLYLINE
  8
21
 66
1
 10
0.0000
 20
0.0000
 30
0.0000
 40
0.2032
 41
0.2032
 70
0
  0
VERTEX
  8
21
 10
9.0060
 20
2.5637
 30
0.0000
  0
VERTEX
  8
21
 10
8.4722
 20
2.5637
 30
0.0000
  0
SEQEND
  8
0
  0
POLYLINE
  8
21
 66
1
 10
0.0000
 20
0.0000
 30
0.0000
 40
0.1016
 41
0.1016
 70
0
  0
VERTEX
  8
21
 10
8.4722
 20
2.6145
 30
0.0000
 42
1.0000
  0
VERTEX
  8
21
 10
8.4722
 20
2.5129
 30
0.0000
  0
SEQEND
  8
0
  0
POLYLINE
  8
21
 66
1
 10
0.0000
 20
0.0000
 30
0.0000
 40
0.1016
 41
0.1016
 70
0
  0
VERTEX
  8
21
 10
9.0060
 20
2.5129
 30
0.0000
 42
1.0000
  0
VERTEX
  8
21
 10
9.0060
 20
2.6145
 30
0.0000
  0
SEQEND
  8
0
  0
POLYLINE
  8
21
 66
1
 10
0.0000
 20
0.0000
 30
0.0000
 40
0.2032
 41
0.2032
 70
0
  0
VERTEX
  8
21
 10
12.8400
 20
1.4960
 30
0.0000
  0
VERTEX
  8
21
 10
12.8400
 20
2.2078
 30
0.0000
  0
SEQEND
  8
0
  0
POLYLINE
  8
21
 66
1
 10
0.0000
 20
0.0000
 30
0.0000
 40
0.1016
 41
0.1016
 70
0
  0
VERTEX
  8
21
 10
12.8908
 20
2.2078
 30
0.0000
 42
1.0000
  0
VERTEX
  8
21
 10
12.7892
 20
2.2078
 30
0.0000
  0
SEQEND
  8
0
  0
POLYLINE
  8
21
 66
1
 10
0.0000
 20
0.0000
 30
0.0000
 40
0.1016
 41
0.1016
 70
0
  0
VERTEX
  8
21
 10
12.7892
 20
1.4960
 30
0.0000
 42
1.0000
  0
VERTEX
  8
21
 10
12.8908
 20
1.4960
 30
0.0000
  0
SEQEND
  8
0
  0
POLYLINE
  8
21
 66
1
 10
0.0000
 20
0.0000
 30
0.0000
 40
0.2032
 41
0.2032
 70
0
  0
VERTEX
  8
21
 10
12.8400
 20
2.2078
 30
0.0000
  0
VERTEX
  8
21
 10
13.1959
 20
2.5637
 30
0.0000
  0
SEQEND
  8
0
  0
POLYLINE
  8
21
 66
1
 10
0.0000
 20
0.0000
 30
0.0000
 40
0.1016
 41
0.1016
 70
0
  0
VERTEX
  8
21
 10
13.2318
 20
2.5278
 30
0.0000
 42
1.0000
  0
VERTEX
  8
21
 10
13.1600
 20
2.5996
 30
0.0000
  0
SEQEND
  8
0
  0
POLYLINE
  8
21
 66
1
 10
0.0000
 20
0.0000
 30
0.0000
 40
0.1016
 41
0.1016
 70
0
  0
VERTEX
  8
21
 10
12.8041
 20
2.2437
 30
0.0000
 42
1.0000
  0
VERTEX
  8
21
 10
12.8759
 20
2.1719
 30
0.0000
  0
SEQEND
  8
0
  0
POLYLINE
  8
21
 66
1
 10
0.0000
 20
0.0000
 30
0.0000
 40
0.2032
 41
0.2032
 70
0
  0
VERTEX
  8
21
 10
13.1959
 20
2.5637
 30
0.0000
  0
VERTEX
  8
21
 10
13.5518
 20
2.2078
 30
0.0000
  0
SEQEND
  8
0
  0
POLYLINE
  8
21
 66
1
 10
0.0000
 20
0.0000
 30
0.0000
 40
0.1016
 41
0.1016
 70
0
  0
VERTEX
  8
21
 10
13.5159
 20
2.1719
 30
0.0000
 42
1.0000
  0
VERTEX
  8
21
 10
13.5877
 20
2.2437
 30
0.0000
  0
SEQEND
  8
0
  0
POLYLINE
  8
21
 66
1
 10
0.0000
 20
0.0000
 30
0.0000
 40
0.1016
 41
0.1016
 70
0
  0
VERTEX
  8
21
 10
13.2318
 20
2.5996
 30
0.0000
 42
1.0000
  0
VERTEX
  8
21
 10
13.1600
 20
2.5278
 30
0.0000
  0
SEQEND
  8
0
  0
POLYLINE
  8
21
 66
1
 10
0.0000
 20
0.0000
 30
0.0000
 40
0.2032
 41
0.2032
 70
0
  0
VERTEX
  8
21
 10
13.5518
 20
2.2078
 30
0.0000
  0
VERTEX
  8
21
 10
13.5518
 20
1.4960
 30
0.0000
  0
SEQEND
  8
0
  0
POLYLINE
  8
21
 66
1
 10
0.0000
 20
0.0000
 30
0.0000
 40
0.1016
 41
0.1016
 70
0
  0
VERTEX
  8
21
 10
13.5010
 20
1.4960
 30
0.0000
 42
1.0000
  0
VERTEX
  8
21
 10
13.6026
 20
1.4960
 30
0.0000
  0
SEQEND
  8
0
  0
POLYLINE
  8
21
 66
1
 10
0.0000
 20
0.0000
 30
0.0000
 40
0.1016
 41
0.1016
 70
0
  0
VERTEX
  8
21
 10
13.6026
 20
2.2078
 30
0.0000
 42
1.0000
  0
VERTEX
  8
21
 10
13.5010
 20
2.2078
 30
0.0000
  0
SEQEND
  8
0
  0
POLYLINE
  8
21
 66
1
 10
0.0000
 20
0.0000
 30
0.0000
 40
0.2032
 41
0.2032
 70
0
  0
VERTEX
  8
21
 10
12.8400
 20
2.0299
 30
0.0000
  0
VERTEX
  8
21
 10
13.5518
 20
2.0299
 30
0.0000
  0
SEQEND
  8
0
  0
POLYLINE
  8
21
 66
1
 10
0.0000
 20
0.0000
 30
0.0000
 40
0.1016
 41
0.1016
 70
0
  0
VERTEX
  8
21
 10
13.5518
 20
1.9791
 30
0.0000
 42
1.0000
  0
VERTEX
  8
21
 10
13.5518
 20
2.0807
 30
0.0000
  0
SEQEND
  8
0
  0
POLYLINE
  8
21
 66
1
 10
0.0000
 20
0.0000
 30
0.0000
 40
0.1016
 41
0.1016
 70
0
  0
VERTEX
  8
21
 10
12.8400
 20
2.0807
 30
0.0000
 42
1.0000
  0
VERTEX
  8
21
 10
12.8400
 20
1.9791
 30
0.0000
  0
SEQEND
  8
0
  0
POLYLINE
  8
21
 66
1
 10
0.0000
 20
0.0000
 30
0.0000
 40
0.2032
 41
0.2032
 70
0
  0
VERTEX
  8
21
 10
14.0094
 20
1.4960
 30
0.0000
  0
VERTEX
  8
21
 10
14.0094
 20
2.5637
 30
0.0000
  0
SEQEND
  8
0
  0
POLYLINE
  8
21
 66
1
 10
0.0000
 20
0.0000
 30
0.0000
 40
0.1016
 41
0.1016
 70
0
  0
VERTEX
  8
21
 10
14.0602
 20
2.5637
 30
0.0000
 42
1.0000
  0
VERTEX
  8
21
 10
13.9586
 20
2.5637
 30
0.0000
  0
SEQEND
  8
0
  0
POLYLINE
  8
21
 66
1
 10
0.0000
 20
0.0000
 30
0.0000
 40
0.1016
 41
0.1016
 70
0
  0
VERTEX
  8
21
 10
13.9586
 20
1.4960
 30
0.0000
 42
1.0000
  0
VERTEX
  8
21
 10
14.0602
 20
1.4960
 30
0.0000
  0
SEQEND
  8
0
  0
POLYLINE
  8
21
 66
1
 10
0.0000
 20
0.0000
 30
0.0000
 40
0.2032
 41
0.2032
 70
0
  0
VERTEX
  8
21
 10
14.0094
 20
2.5637
 30
0.0000
  0
VERTEX
  8
21
 10
14.3653
 20
2.2078
 30
0.0000
  0
SEQEND
  8
0
  0
POLYLINE
  8
21
 66
1
 10
0.0000
 20
0.0000
 30
0.0000
 40
0.1016
 41
0.1016
 70
0
  0
VERTEX
  8
21
 10
14.3294
 20
2.1719
 30
0.0000
 42
1.0000
  0
VERTEX
  8
21
 10
14.4012
 20
2.2437
 30
0.0000
  0
SEQEND
  8
0
  0
POLYLINE
  8
21
 66
1
 10
0.0000
 20
0.0000
 30
0.0000
 40
0.1016
 41
0.1016
 70
0
  0
VERTEX
  8
21
 10
14.0453
 20
2.5996
 30
0.0000
 42
1.0000
  0
VERTEX
  8
21
 10
13.9735
 20
2.5278
 30
0.0000
  0
SEQEND
  8
0
  0
POLYLINE
  8
21
 66
1
 10
0.0000
 20
0.0000
 30
0.0000
 40
0.2032
 41
0.2032
 70
0
  0
VERTEX
  8
21
 10
14.3653
 20
2.2078
 30
0.0000
  0
VERTEX
  8
21
 10
14.7212
 20
2.5637
 30
0.0000
  0
SEQEND
  8
0
  0
POLYLINE
  8
21
 66
1
 10
0.0000
 20
0.0000
 30
0.0000
 40
0.1016
 41
0.1016
 70
0
  0
VERTEX
  8
21
 10
14.7571
 20
2.5278
 30
0.0000
 42
1.0000
  0
VERTEX
  8
21
 10
14.6853
 20
2.5996
 30
0.0000
  0
SEQEND
  8
0
  0
POLYLINE
  8
21
 66
1
 10
0.0000
 20
0.0000
 30
0.0000
 40
0.1016
 41
0.1016
 70
0
  0
VERTEX
  8
21
 10
14.3294
 20
2.2437
 30
0.0000
 42
1.0000
  0
VERTEX
  8
21
 10
14.4012
 20
2.1719
 30
0.0000
  0
SEQEND
  8
0
  0
POLYLINE
  8
21
 66
1
 10
0.0000
 20
0.0000
 30
0.0000
 40
0.2032
 41
0.2032
 70
0
  0
VERTEX
  8
21
 10
14.7212
 20
2.5637
 30
0.0000
  0
VERTEX
  8
21
 10
14.7212
 20
1.4960
 30
0.0000
  0
SEQEND
  8
0
  0
POLYLINE
  8
21
 66
1
 10
0.0000
 20
0.0000
 30
0.0000
 40
0.1016
 41
0.1016
 70
0
  0
VERTEX
  8
21
 10
14.6704
 20
1.4960
 30
0.0000
 42
1.0000
  0
VERTEX
  8
21
 10
14.7720
 20
1.4960
 30
0.0000
  0
SEQEND
  8
0
  0
POLYLINE
  8
21
 66
1
 10
0.0000
 20
0.0000
 30
0.0000
 40
0.1016
 41
0.1016
 70
0
  0
VERTEX
  8
21
 10
14.7720
 20
2.5637
 30
0.0000
 42
1.0000
  0
VERTEX
  8
21
 10
14.6704
 20
2.5637
 30
0.0000
  0
SEQEND
  8
0
  0
POLYLINE
  8
21
 66
1
 10
0.0000
 20
0.0000
 30
0.0000
 40
0.2032
 41
0.2032
 70
0
  0
VERTEX
  8
21
 10
15.1788
 20
1.4960
 30
0.0000
  0
VERTEX
  8
21
 10
15.1788
 20
2.5637
 30
0.0000
  0
SEQEND
  8
0
  0
POLYLINE
  8
21
 66
1
 10
0.0000
 20
0.0000
 30
0.0000
 40
0.1016
 41
0.1016
 70
0
  0
VERTEX
  8
21
 10
15.2296
 20
2.5637
 30
0.0000
 42
1.0000
  0
VERTEX
  8
21
 10
15.1280
 20
2.5637
 30
0.0000
  0
SEQEND
  8
0
  0
POLYLINE
  8
21
 66
1
 10
0.0000
 20
0.0000
 30
0.0000
 40
0.1016
 41
0.1016
 70
0
  0
VERTEX
  8
21
 10
15.1280
 20
1.4960
 30
0.0000
 42
1.0000
  0
VERTEX
  8
21
 10
15.2296
 20
1.4960
 30
0.0000
  0
SEQEND
  8
0
  0
POLYLINE
  8
21
 66
1
 10
0.0000
 20
0.0000
 30
0.0000
 40
0.2032
 41
0.2032
 70
0
  0
VERTEX
  8
21
 10
15.1788
 20
2.5637
 30
0.0000
  0
VERTEX
  8
21
 10
15.5347
 20
2.2078
 30
0.0000
  0
SEQEND
  8
0
  0
POLYLINE
  8
21
 66
1
 10
0.0000
 20
0.0000
 30
0.0000
 40
0.1016
 41
0.1016
 70
0
  0
VERTEX
  8
21
 10
15.4988
 20
2.1719
 30
0.0000
 42
1.0000
  0
VERTEX
  8
21
 10
15.5706
 20
2.2437
 30
0.0000
  0
SEQEND
  8
0
  0
POLYLINE
  8
21
 66
1
 10
0.0000
 20
0.0000
 30
0.0000
 40
0.1016
 41
0.1016
 70
0
  0
VERTEX
  8
21
 10
15.2147
 20
2.5996
 30
0.0000
 42
1.0000
  0
VERTEX
  8
21
 10
15.1429
 20
2.5278
 30
0.0000
  0
SEQEND
  8
0
  0
POLYLINE
  8
21
 66
1
 10
0.0000
 20
0.0000
 30
0.0000
 40
0.2032
 41
0.2032
 70
0
  0
VERTEX
  8
21
 10
15.5347
 20
2.2078
 30
0.0000
  0
VERTEX
  8
21
 10
15.8906
 20
2.5637
 30
0.0000
  0
SEQEND
  8
0
  0
POLYLINE
  8
21
 66
1
 10
0.0000
 20
0.0000
 30
0.0000
 40
0.1016
 41
0.1016
 70
0
  0
VERTEX
  8
21
 10
15.9265
 20
2.5278
 30
0.0000
 42
1.0000
  0
VERTEX
  8
21
 10
15.8547
 20
2.5996
 30
0.0000
  0
SEQEND
  8
0
  0
POLYLINE
  8
21
 66
1
 10
0.0000
 20
0.0000
 30
0.0000
 40
0.1016
 41
0.1016
 70
0
  0
VERTEX
  8
21
 10
15.4988
 20
2.2437
 30
0.0000
 42
1.0000
  0
VERTEX
  8
21
 10
15.5706
 20
2.1719
 30
0.0000
  0
SEQEND
  8
0
  0
POLYLINE
  8
21
 66
1
 10
0.0000
 20
0.0000
 30
0.0000
 40
0.2032
 41
0.2032
 70
0
  0
VERTEX
  8
21
 10
15.8906
 20
2.5637
 30
0.0000
  0
VERTEX
  8
21
 10
15.8906
 20
1.4960
 30
0.0000
  0
SEQEND
  8
0
  0
POLYLINE
  8
21
 66
1
 10
0.0000
 20
0.0000
 30
0.0000
 40
0.1016
 41
0.1016
 70
0
  0
VERTEX
  8
21
 10
15.8398
 20
1.4960
 30
0.0000
 42
1.0000
  0
VERTEX
  8
21
 10
15.9414
 20
1.4960
 30
0.0000
  0
SEQEND
  8
0
  0
POLYLINE
  8
21
 66
1
 10
0.0000
 20
0.0000
 30
0.0000
 40
0.1016
 41
0.1016
 70
0
  0
VERTEX
  8
21
 10
15.9414
 20
2.5637
 30
0.0000
 42
1.0000
  0
VERTEX
  8
21
 10
15.8398
 20
2.5637
 30
0.0000
  0
SEQEND
  8
0
  0
POLYLINE
  8
21
 66
1
 10
0.0000
 20
0.0000
 30
0.0000
 40
0.2032
 41
0.2032
 70
0
  0
VERTEX
  8
21
 10
16.8820
 20
2.5637
 30
0.0000
  0
VERTEX
  8
21
 10
16.5261
 20
2.5637
 30
0.0000
  0
SEQEND
  8
0
  0
POLYLINE
  8
21
 66
1
 10
0.0000
 20
0.0000
 30
0.0000
 40
0.1016
 41
0.1016
 70
0
  0
VERTEX
  8
21
 10
16.5261
 20
2.6145
 30
0.0000
 42
1.0000
  0
VERTEX
  8
21
 10
16.5261
 20
2.5129
 30
0.0000
  0
SEQEND
  8
0
  0
POLYLINE
  8
21
 66
1
 10
0.0000
 20
0.0000
 30
0.0000
 40
0.1016
 41
0.1016
 70
0
  0
VERTEX
  8
21
 10
16.8820
 20
2.5129
 30
0.0000
 42
1.0000
  0
VERTEX
  8
21
 10
16.8820
 20
2.6145
 30
0.0000
  0
SEQEND
  8
0
  0
POLYLINE
  8
21
 66
1
 10
0.0000
 20
0.0000
 30
0.0000
 40
0.2032
 41
0.2032
 70
0
  0
VERTEX
  8
21
 10
16.5261
 20
2.5637
 30
0.0000
  0
VERTEX
  8
21
 10
16.3482
 20
2.3858
 30
0.0000
  0
SEQEND
  8
0
  0
POLYLINE
  8
21
 66
1
 10
0.0000
 20
0.0000
 30
0.0000
 40
0.1016
 41
0.1016
 70
0
  0
VERTEX
  8
21
 10
16.3123
 20
2.4217
 30
0.0000
 42
1.0000
  0
VERTEX
  8
21
 10
16.3841
 20
2.3498
 30
0.0000
  0
SEQEND
  8
0
  0
POLYLINE
  8
21
 66
1
 10
0.0000
 20
0.0000
 30
0.0000
 40
0.1016
 41
0.1016
 70
0
  0
VERTEX
  8
21
 10
16.5621
 20
2.5278
 30
0.0000
 42
1.0000
  0
VERTEX
  8
21
 10
16.4902
 20
2.5996
 30
0.0000
  0
SEQEND
  8
0
  0
POLYLINE
  8
21
 66
1
 10
0.0000
 20
0.0000
 30
0.0000
 40
0.2032
 41
0.2032
 70
0
  0
VERTEX
  8
21
 10
16.3482
 20
2.3858
 30
0.0000
  0
VERTEX
  8
21
 10
16.3482
 20
1.6740
 30
0.0000
  0
SEQEND
  8
0
  0
POLYLINE
  8
21
 66
1
 10
0.0000
 20
0.0000
 30
0.0000
 40
0.1016
 41
0.1016
 70
0
  0
VERTEX
  8
21
 10
16.2974
 20
1.6740
 30
0.0000
 42
1.0000
  0
VERTEX
  8
21
 10
16.3990
 20
1.6740
 30
0.0000
  0
SEQEND
  8
0
  0
POLYLINE
  8
21
 66
1
 10
0.0000
 20
0.0000
 30
0.0000
 40
0.1016
 41
0.1016
 70
0
  0
VERTEX
  8
21
 10
16.3990
 20
2.3858
 30
0.0000
 42
1.0000
  0
VERTEX
  8
21
 10
16.2974
 20
2.3858
 30
0.0000
  0
SEQEND
  8
0
  0
POLYLINE
  8
21
 66
1
 10
0.0000
 20
0.0000
 30
0.0000
 40
0.2032
 41
0.2032
 70
0
  0
VERTEX
  8
21
 10
16.3482
 20
1.6740
 30
0.0000
  0
VERTEX
  8
21
 10
16.5261
 20
1.4960
 30
0.0000
  0
SEQEND
  8
0
  0
POLYLINE
  8
21
 66
1
 10
0.0000
 20
0.0000
 30
0.0000
 40
0.1016
 41
0.1016
 70
0
  0
VERTEX
  8
21
 10
16.4902
 20
1.4601
 30
0.0000
 42
1.0000
  0
VERTEX
  8
21
 10
16.5621
 20
1.5319
 30
0.0000
  0
SEQEND
  8
0
  0
POLYLINE
  8
21
 66
1
 10
0.0000
 20
0.0000
 30
0.0000
 40
0.1016
 41
0.1016
 70
0
  0
VERTEX
  8
21
 10
16.3841
 20
1.7099
 30
0.0000
 42
1.0000
  0
VERTEX
  8
21
 10
16.3123
 20
1.6380
 30
0.0000
  0
SEQEND
  8
0
  0
POLYLINE
  8
21
 66
1
 10
0.0000
 20
0.0000
 30
0.0000
 40
0.2032
 41
0.2032
 70
0
  0
VERTEX
  8
21
 10
16.5261
 20
1.4960
 30
0.0000
  0
VERTEX
  8
21
 10
16.8820
 20
1.4960
 30
0.0000
  0
SEQEND
  8
0
  0
POLYLINE
  8
21
 66
1
 10
0.0000
 20
0.0000
 30
0.0000
 40
0.1016
 41
0.1016
 70
0
  0
VERTEX
  8
21
 10
16.8820
 20
1.4452
 30
0.0000
 42
1.0000
  0
VERTEX
  8
21
 10
16.8820
 20
1.5468
 30
0.0000
  0
SEQEND
  8
0
  0
POLYLINE
  8
21
 66
1
 10
0.0000
 20
0.0000
 30
0.0000
 40
0.1016
 41
0.1016
 70
0
  0
VERTEX
  8
21
 10
16.5261
 20
1.5468
 30
0.0000
 42
1.0000
  0
VERTEX
  8
21
 10
16.5261
 20
1.4452
 30
0.0000
  0
SEQEND
  8
0
  0
POLYLINE
  8
21
 66
1
 10
0.0000
 20
0.0000
 30
0.0000
 40
0.2032
 41
0.2032
 70
0
  0
VERTEX
  8
21
 10
16.8820
 20
1.4960
 30
0.0000
  0
VERTEX
  8
21
 10
17.0600
 20
1.6740
 30
0.0000
  0
SEQEND
  8
0
  0
POLYLINE
  8
21
 66
1
 10
0.0000
 20
0.0000
 30
0.0000
 40
0.1016
 41
0.1016
 70
0
  0
VERTEX
  8
21
 10
17.0959
 20
1.6380
 30
0.0000
 42
1.0000
  0
VERTEX
  8
21
 10
17.0241
 20
1.7099
 30
0.0000
  0
SEQEND
  8
0
  0
POLYLINE
  8
21
 66
1
 10
0.0000
 20
0.0000
 30
0.0000
 40
0.1016
 41
0.1016
 70
0
  0
VERTEX
  8
21
 10
16.8461
 20
1.5319
 30
0.0000
 42
1.0000
  0
VERTEX
  8
21
 10
16.9180
 20
1.4601
 30
0.0000
  0
SEQEND
  8
0
  0
POLYLINE
  8
21
 66
1
 10
0.0000
 20
0.0000
 30
0.0000
 40
0.2032
 41
0.2032
 70
0
  0
VERTEX
  8
21
 10
17.0600
 20
1.6740
 30
0.0000
  0
VERTEX
  8
21
 10
17.0600
 20
2.3858
 30
0.0000
  0
SEQEND
  8
0
  0
POLYLINE
  8
21
 66
1
 10
0.0000
 20
0.0000
 30
0.0000
 40
0.1016
 41
0.1016
 70
0
  0
VERTEX
  8
21
 10
17.1108
 20
2.3858
 30
0.0000
 42
1.0000
  0
VERTEX
  8
21
 10
17.0092
 20
2.3858
 30
0.0000
  0
SEQEND
  8
0
  0
POLYLINE
  8
21
 66
1
 10
0.0000
 20
0.0000
 30
0.0000
 40
0.1016
 41
0.1016
 70
0
  0
VERTEX
  8
21
 10
17.0092
 20
1.6740
 30
0.0000
 42
1.0000
  0
VERTEX
  8
21
 10
17.1108
 20
1.6740
 30
0.0000
  0
SEQEND
  8
0
  0
POLYLINE
  8
21
 66
1
 10
0.0000
 20
0.0000
 30
0.0000
 40
0.2032
 41
0.2032
 70
0
  0
VERTEX
  8
21
 10
17.0600
 20
2.3858
 30
0.0000
  0
VERTEX
  8
21
 10
16.8820
 20
2.5637
 30
0.0000
  0
SEQEND
  8
0
  0
POLYLINE
  8
21
 66
1
 10
0.0000
 20
0.0000
 30
0.0000
 40
0.1016
 41
0.1016
 70
0
  0
VERTEX
  8
21
 10
16.9180
 20
2.5996
 30
0.0000
 42
1.0000
  0
VERTEX
  8
21
 10
16.8461
 20
2.5278
 30
0.0000
  0
SEQEND
  8
0
  0
POLYLINE
  8
21
 66
1
 10
0.0000
 20
0.0000
 30
0.0000
 40
0.1016
 41
0.1016
 70
0
  0
VERTEX
  8
21
 10
17.0241
 20
2.3498
 30
0.0000
 42
1.0000
  0
VERTEX
  8
21
 10
17.0959
 20
2.4217
 30
0.0000
  0
SEQEND
  8
0
  0
POLYLINE
  8
21
 66
1
 10
0.0000
 20
0.0000
 30
0.0000
 40
0.2032
 41
0.2032
 70
0
  0
VERTEX
  8
21
 10
20.6330
 20
1.4960
 30
0.0000
  0
VERTEX
  8
21
 10
20.6330
 20
2.5637
 30
0.0000
  0
SEQEND
  8
0
  0
POLYLINE
  8
21
 66
1
 10
0.0000
 20
0.0000
 30
0.0000
 40
0.1016
 41
0.1016
 70
0
  0
VERTEX
  8
21
 10
20.6838
 20
2.5637
 30
0.0000
 42
1.0000
  0
VERTEX
  8
21
 10
20.5822
 20
2.5637
 30
0.0000
  0
SEQEND
  8
0
  0
POLYLINE
  8
21
 66
1
 10
0.0000
 20
0.0000
 30
0.0000
 40
0.1016
 41
0.1016
 70
0
  0
VERTEX
  8
21
 10
20.5822
 20
1.4960
 30
0.0000
 42
1.0000
  0
VERTEX
  8
21
 10
20.6838
 20
1.4960
 30
0.0000
  0
SEQEND
  8
0
  0
POLYLINE
  8
21
 66
1
 10
0.0000
 20
0.0000
 30
0.0000
 40
0.2032
 41
0.2032
 70
0
  0
VERTEX
  8
21
 10
20.6330
 20
2.0299
 30
0.0000
  0
VERTEX
  8
21
 10
21.3448
 20
2.0299
 30
0.0000
  0
SEQEND
  8
0
  0
POLYLINE
  8
21
 66
1
 10
0.0000
 20
0.0000
 30
0.0000
 40
0.1016
 41
0.1016
 70
0
  0
VERTEX
  8
21
 10
21.3448
 20
1.9791
 30
0.0000
 42
1.0000
  0
VERTEX
  8
21
 10
21.3448
 20
2.0807
 30
0.0000
  0
SEQEND
  8
0
  0
POLYLINE
  8
21
 66
1
 10
0.0000
 20
0.0000
 30
0.0000
 40
0.1016
 41
0.1016
 70
0
  0
VERTEX
  8
21
 10
20.6330
 20
2.0807
 30
0.0000
 42
1.0000
  0
VERTEX
  8
21
 10
20.6330
 20
1.9791
 30
0.0000
  0
SEQEND
  8
0
  0
POLYLINE
  8
21
 66
1
 10
0.0000
 20
0.0000
 30
0.0000
 40
0.2032
 41
0.2032
 70
0
  0
VERTEX
  8
21
 10
21.3448
 20
2.5637
 30
0.0000
  0
VERTEX
  8
21
 10
21.3448
 20
1.4960
 30
0.0000
  0
SEQEND
  8
0
  0
POLYLINE
  8
21
 66
1
 10
0.0000
 20
0.0000
 30
0.0000
 40
0.1016
 41
0.1016
 70
0
  0
VERTEX
  8
21
 10
21.2940
 20
1.4960
 30
0.0000
 42
1.0000
  0
VERTEX
  8
21
 10
21.3956
 20
1.4960
 30
0.0000
  0
SEQEND
  8
0
  0
POLYLINE
  8
21
 66
1
 10
0.0000
 20
0.0000
 30
0.0000
 40
0.1016
 41
0.1016
 70
0
  0
VERTEX
  8
21
 10
21.3956
 20
2.5637
 30
0.0000
 42
1.0000
  0
VERTEX
  8
21
 10
21.2940
 20
2.5637
 30
0.0000
  0
SEQEND
  8
0
  0
POLYLINE
  8
21
 66
1
 10
0.0000
 20
0.0000
 30
0.0000
 40
0.2032
 41
0.2032
 70
0
  0
VERTEX
  8
21
 10
22.5142
 20
2.5637
 30
0.0000
  0
VERTEX
  8
21
 10
21.8024
 20
2.5637
 30
0.0000
  0
SEQEND
  8
0
  0
POLYLINE
  8
21
 66
1
 10
0.0000
 20
0.0000
 30
0.0000
 40
0.1016
 41
0.1016
 70
0
  0
VERTEX
  8
21
 10
21.8024
 20
2.6145
 30
0.0000
 42
1.0000
  0
VERTEX
  8
21
 10
21.8024
 20
2.5129
 30
0.0000
  0
SEQEND
  8
0
  0
POLYLINE
  8
21
 66
1
 10
0.0000
 20
0.0000
 30
0.0000
 40
0.1016
 41
0.1016
 70
0
  0
VERTEX
  8
21
 10
22.5142
 20
2.5129
 30
0.0000
 42
1.0000
  0
VERTEX
  8
21
 10
22.5142
 20
2.6145
 30
0.0000
  0
SEQEND
  8
0
  0
POLYLINE
  8
21
 66
1
 10
0.0000
 20
0.0000
 30
0.0000
 40
0.2032
 41
0.2032
 70
0
  0
VERTEX
  8
21
 10
21.8024
 20
2.5637
 30
0.0000
  0
VERTEX
  8
21
 10
21.8024
 20
1.4960
 30
0.0000
  0
SEQEND
  8
0
  0
POLYLINE
  8
21
 66
1
 10
0.0000
 20
0.0000
 30
0.0000
 40
0.1016
 41
0.1016
 70
0
  0
VERTEX
  8
21
 10
21.7516
 20
1.4960
 30
0.0000
 42
1.0000
  0
VERTEX
  8
21
 10
21.8532
 20
1.4960
 30
0.0000
  0
SEQEND
  8
0
  0
POLYLINE
  8
21
 66
1
 10
0.0000
 20
0.0000
 30
0.0000
 40
0.1016
 41
0.1016
 70
0
  0
VERTEX
  8
21
 10
21.8532
 20
2.5637
 30
0.0000
 42
1.0000
  0
VERTEX
  8
21
 10
21.7516
 20
2.5637
 30
0.0000
  0
SEQEND
  8
0
  0
POLYLINE
  8
21
 66
1
 10
0.0000
 20
0.0000
 30
0.0000
 40
0.2032
 41
0.2032
 70
0
  0
VERTEX
  8
21
 10
21.8024
 20
1.4960
 30
0.0000
  0
VERTEX
  8
21
 10
22.5142
 20
1.4960
 30
0.0000
  0
SEQEND
  8
0
  0
POLYLINE
  8
21
 66
1
 10
0.0000
 20
0.0000
 30
0.0000
 40
0.1016
 41
0.1016
 70
0
  0
VERTEX
  8
21
 10
22.5142
 20
1.4452
 30
0.0000
 42
1.0000
  0
VERTEX
  8
21
 10
22.5142
 20
1.5468
 30
0.0000
  0
SEQEND
  8
0
  0
POLYLINE
  8
21
 66
1
 10
0.0000
 20
0.0000
 30
0.0000
 40
0.1016
 41
0.1016
 70
0
  0
VERTEX
  8
21
 10
21.8024
 20
1.5468
 30
0.0000
 42
1.0000
  0
VERTEX
  8
21
 10
21.8024
 20
1.4452
 30
0.0000
  0
SEQEND
  8
0
  0
POLYLINE
  8
21
 66
1
 10
0.0000
 20
0.0000
 30
0.0000
 40
0.2032
 41
0.2032
 70
0
  0
VERTEX
  8
21
 10
21.8024
 20
2.0299
 30
0.0000
  0
VERTEX
  8
21
 10
22.1583
 20
2.0299
 30
0.0000
  0
SEQEND
  8
0
  0
POLYLINE
  8
21
 66
1
 10
0.0000
 20
0.0000
 30
0.0000
 40
0.1016
 41
0.1016
 70
0
  0
VERTEX
  8
21
 10
22.1583
 20
1.9791
 30
0.0000
 42
1.0000
  0
VERTEX
  8
21
 10
22.1583
 20
2.0807
 30
0.0000
  0
SEQEND
  8
0
  0
POLYLINE
  8
21
 66
1
 10
0.0000
 20
0.0000
 30
0.0000
 40
0.1016
 41
0.1016
 70
0
  0
VERTEX
  8
21
 10
21.8024
 20
2.0807
 30
0.0000
 42
1.0000
  0
VERTEX
  8
21
 10
21.8024
 20
1.9791
 30
0.0000
  0
SEQEND
  8
0
  0
POLYLINE
  8
21
 66
1
 10
0.0000
 20
0.0000
 30
0.0000
 40
0.2032
 41
0.2032
 70
0
  0
VERTEX
  8
21
 10
22.9718
 20
1.4960
 30
0.0000
  0
VERTEX
  8
21
 10
22.9718
 20
2.2078
 30
0.0000
  0
SEQEND
  8
0
  0
POLYLINE
  8
21
 66
1
 10
0.0000
 20
0.0000
 30
0.0000
 40
0.1016
 41
0.1016
 70
0
  0
VERTEX
  8
21
 10
23.0226
 20
2.2078
 30
0.0000
 42
1.0000
  0
VERTEX
  8
21
 10
22.9210
 20
2.2078
 30
0.0000
  0
SEQEND
  8
0
  0
POLYLINE
  8
21
 66
1
 10
0.0000
 20
0.0000
 30
0.0000
 40
0.1016
 41
0.1016
 70
0
  0
VERTEX
  8
21
 10
22.9210
 20
1.4960
 30
0.0000
 42
1.0000
  0
VERTEX
  8
21
 10
23.0226
 20
1.4960
 30
0.0000
  0
SEQEND
  8
0
  0
POLYLINE
  8
21
 66
1
 10
0.0000
 20
0.0000
 30
0.0000
 40
0.2032
 41
0.2032
 70
0
  0
VERTEX
  8
21
 10
22.9718
 20
2.2078
 30
0.0000
  0
VERTEX
  8
21
 10
23.3277
 20
2.5637
 30
0.0000
  0
SEQEND
  8
0
  0
POLYLINE
  8
21
 66
1
 10
0.0000
 20
0.0000
 30
0.0000
 40
0.1016
 41
0.1016
 70
0
  0
VERTEX
  8
21
 10
23.3636
 20
2.5278
 30
0.0000
 42
1.0000
  0
VERTEX
  8
21
 10
23.2918
 20
2.5996
 30
0.0000
  0
SEQEND
  8
0
  0
POLYLINE
  8
21
 66
1
 10
0.0000
 20
0.0000
 30
0.0000
 40
0.1016
 41
0.1016
 70
0
  0
VERTEX
  8
21
 10
22.9359
 20
2.2437
 30
0.0000
 42
1.0000
  0
VERTEX
  8
21
 10
23.0077
 20
2.1719
 30
0.0000
  0
SEQEND
  8
0
  0
POLYLINE
  8
21
 66
1
 10
0.0000
 20
0.0000
 30
0.0000
 40
0.2032
 41
0.2032
 70
0
  0
VERTEX
  8
21
 10
23.3277
 20
2.5637
 30
0.0000
  0
VERTEX
  8
21
 10
23.6836
 20
2.2078
 30
0.0000
  0
SEQEND
  8
0
  0
POLYLINE
  8
21
 66
1
 10
0.0000
 20
0.0000
 30
0.0000
 40
0.1016
 41
0.1016
 70
0
  0
VERTEX
  8
21
 10
23.6477
 20
2.1719
 30
0.0000
 42
1.0000
  0
VERTEX
  8
21
 10
23.7195
 20
2.2437
 30
0.0000
  0
SEQEND
  8
0
  0
POLYLINE
  8
21
 66
1
 10
0.0000
 20
0.0000
 30
0.0000
 40
0.1016
 41
0.1016
 70
0
  0
VERTEX
  8
21
 10
23.3636
 20
2.5996
 30
0.0000
 42
1.0000
  0
VERTEX
  8
21
 10
23.2918
 20
2.5278
 30
0.0000
  0
SEQEND
  8
0
  0
POLYLINE
  8
21
 66
1
 10
0.0000
 20
0.0000
 30
0.0000
 40
0.2032
 41
0.2032
 70
0
  0
VERTEX
  8
21
 10
23.6836
 20
2.2078
 30
0.0000
  0
VERTEX
  8
21
 10
23.6836
 20
1.4960
 30
0.0000
  0
SEQEND
  8
0
  0
POLYLINE
  8
21
 66
1
 10
0.0000
 20
0.0000
 30
0.0000
 40
0.1016
 41
0.1016
 70
0
  0
VERTEX
  8
21
 10
23.6328
 20
1.4960
 30
0.0000
 42
1.0000
  0
VERTEX
  8
21
 10
23.7344
 20
1.4960
 30
0.0000
  0
SEQEND
  8
0
  0
POLYLINE
  8
21
 66
1
 10
0.0000
 20
0.0000
 30
0.0000
 40
0.1016
 41
0.1016
 70
0
  0
VERTEX
  8
21
 10
23.7344
 20
2.2078
 30
0.0000
 42
1.0000
  0
VERTEX
  8
21
 10
23.6328
 20
2.2078
 30
0.0000
  0
SEQEND
  8
0
  0
POLYLINE
  8
21
 66
1
 10
0.0000
 20
0.0000
 30
0.0000
 40
0.2032
 41
0.2032
 70
0
  0
VERTEX
  8
21
 10
22.9718
 20
2.0299
 30
0.0000
  0
VERTEX
  8
21
 10
23.6836
 20
2.0299
 30
0.0000
  0
SEQEND
  8
0
  0
POLYLINE
  8
21
 66
1
 10
0.0000
 20
0.0000
 30
0.0000
 40
0.1016
 41
0.1016
 70
0
  0
VERTEX
  8
21
 10
23.6836
 20
1.9791
 30
0.0000
 42
1.0000
  0
VERTEX
  8
21
 10
23.6836
 20
2.0807
 30
0.0000
  0
SEQEND
  8
0
  0
POLYLINE
  8
21
 66
1
 10
0.0000
 20
0.0000
 30
0.0000
 40
0.1016
 41
0.1016
 70
0
  0
VERTEX
  8
21
 10
22.9718
 20
2.0807
 30
0.0000
 42
1.0000
  0
VERTEX
  8
21
 10
22.9718
 20
1.9791
 30
0.0000
  0
SEQEND
  8
0
  0
POLYLINE
  8
21
 66
1
 10
0.0000
 20
0.0000
 30
0.0000
 40
0.2032
 41
0.2032
 70
0
  0
VERTEX
  8
21
 10
24.1412
 20
2.5637
 30
0.0000
  0
VERTEX
  8
21
 10
24.1412
 20
1.4960
 30
0.0000
  0
SEQEND
  8
0
  0
POLYLINE
  8
21
 66
1
 10
0.0000
 20
0.0000
 30
0.0000
 40
0.1016
 41
0.1016
 70
0
  0
VERTEX
  8
21
 10
24.0904
 20
1.4960
 30
0.0000
 42
1.0000
  0
VERTEX
  8
21
 10
24.1920
 20
1.4960
 30
0.0000
  0
SEQEND
  8
0
  0
POLYLINE
  8
21
 66
1
 10
0.0000
 20
0.0000
 30
0.0000
 40
0.1016
 41
0.1016
 70
0
  0
VERTEX
  8
21
 10
24.1920
 20
2.5637
 30
0.0000
 42
1.0000
  0
VERTEX
  8
21
 10
24.0904
 20
2.5637
 30
0.0000
  0
SEQEND
  8
0
  0
POLYLINE
  8
21
 66
1
 10
0.0000
 20
0.0000
 30
0.0000
 40
0.2032
 41
0.2032
 70
0
  0
VERTEX
  8
21
 10
24.1412
 20
1.4960
 30
0.0000
  0
VERTEX
  8
21
 10
24.8530
 20
1.4960
 30
0.0000
  0
SEQEND
  8
0
  0
POLYLINE
  8
21
 66
1
 10
0.0000
 20
0.0000
 30
0.0000
 40
0.1016
 41
0.1016
 70
0
  0
VERTEX
  8
21
 10
24.8530
 20
1.4452
 30
0.0000
 42
1.0000
  0
VERTEX
  8
21
 10
24.8530
 20
1.5468
 30
0.0000
  0
SEQEND
  8
0
  0
POLYLINE
  8
21
 66
1
 10
0.0000
 20
0.0000
 30
0.0000
 40
0.1016
 41
0.1016
 70
0
  0
VERTEX
  8
21
 10
24.1412
 20
1.5468
 30
0.0000
 42
1.0000
  0
VERTEX
  8
21
 10
24.1412
 20
1.4452
 30
0.0000
  0
SEQEND
  8
0
  0
POLYLINE
  8
21
 66
1
 10
0.0000
 20
0.0000
 30
0.0000
 40
0.2032
 41
0.2032
 70
0
  0
VERTEX
  8
21
 10
25.6665
 20
1.4960
 30
0.0000
  0
VERTEX
  8
21
 10
25.6665
 20
2.5637
 30
0.0000
  0
SEQEND
  8
0
  0
POLYLINE
  8
21
 66
1
 10
0.0000
 20
0.0000
 30
0.0000
 40
0.1016
 41
0.1016
 70
0
  0
VERTEX
  8
21
 10
25.7173
 20
2.5637
 30
0.0000
 42
1.0000
  0
VERTEX
  8
21
 10
25.6157
 20
2.5637
 30
0.0000
  0
SEQEND
  8
0
  0
POLYLINE
  8
21
 66
1
 10
0.0000
 20
0.0000
 30
0.0000
 40
0.1016
 41
0.1016
 70
0
  0
VERTEX
  8
21
 10
25.6157
 20
1.4960
 30
0.0000
 42
1.0000
  0
VERTEX
  8
21
 10
25.7173
 20
1.4960
 30
0.0000
  0
SEQEND
  8
0
  0
POLYLINE
  8
21
 66
1
 10
0.0000
 20
0.0000
 30
0.0000
 40
0.2032
 41
0.2032
 70
0
  0
VERTEX
  8
21
 10
25.3106
 20
2.5637
 30
0.0000
  0
VERTEX
  8
21
 10
26.0224
 20
2.5637
 30
0.0000
  0
SEQEND
  8
0
  0
POLYLINE
  8
21
 66
1
 10
0.0000
 20
0.0000
 30
0.0000
 40
0.1016
 41
0.1016
 70
0
  0
VERTEX
  8
21
 10
26.0224
 20
2.5129
 30
0.0000
 42
1.0000
  0
VERTEX
  8
21
 10
26.0224
 20
2.6145
 30
0.0000
  0
SEQEND
  8
0
  0
POLYLINE
  8
21
 66
1
 10
0.0000
 20
0.0000
 30
0.0000
 40
0.1016
 41
0.1016
 70
0
  0
VERTEX
  8
21
 10
25.3106
 20
2.6145
 30
0.0000
 42
1.0000
  0
VERTEX
  8
21
 10
25.3106
 20
2.5129
 30
0.0000
  0
SEQEND
  8
0
  0
POLYLINE
  8
21
 66
1
 10
0.0000
 20
0.0000
 30
0.0000
 40
0.2032
 41
0.2032
 70
0
  0
VERTEX
  8
21
 10
26.4800
 20
1.4960
 30
0.0000
  0
VERTEX
  8
21
 10
26.4800
 20
2.5637
 30
0.0000
  0
SEQEND
  8
0
  0
POLYLINE
  8
21
 66
1
 10
0.0000
 20
0.0000
 30
0.0000
 40
0.1016
 41
0.1016
 70
0
  0
VERTEX
  8
21
 10
26.5308
 20
2.5637
 30
0.0000
 42
1.0000
  0
VERTEX
  8
21
 10
26.4292
 20
2.5637
 30
0.0000
  0
SEQEND
  8
0
  0
POLYLINE
  8
21
 66
1
 10
0.0000
 20
0.0000
 30
0.0000
 40
0.1016
 41
0.1016
 70
0
  0
VERTEX
  8
21
 10
26.4292
 20
1.4960
 30
0.0000
 42
1.0000
  0
VERTEX
  8
21
 10
26.5308
 20
1.4960
 30
0.0000
  0
SEQEND
  8
0
  0
POLYLINE
  8
21
 66
1
 10
0.0000
 20
0.0000
 30
0.0000
 40
0.2032
 41
0.2032
 70
0
  0
VERTEX
  8
21
 10
26.4800
 20
2.0299
 30
0.0000
  0
VERTEX
  8
21
 10
27.1918
 20
2.0299
 30
0.0000
  0
SEQEND
  8
0
  0
POLYLINE
  8
21
 66
1
 10
0.0000
 20
0.0000
 30
0.0000
 40
0.1016
 41
0.1016
 70
0
  0
VERTEX
  8
21
 10
27.1918
 20
1.9791
 30
0.0000
 42
1.0000
  0
VERTEX
  8
21
 10
27.1918
 20
2.0807
 30
0.0000
  0
SEQEND
  8
0
  0
POLYLINE
  8
21
 66
1
 10
0.0000
 20
0.0000
 30
0.0000
 40
0.1016
 41
0.1016
 70
0
  0
VERTEX
  8
21
 10
26.4800
 20
2.0807
 30
0.0000
 42
1.0000
  0
VERTEX
  8
21
 10
26.4800
 20
1.9791
 30
0.0000
  0
SEQEND
  8
0
  0
POLYLINE
  8
21
 66
1
 10
0.0000
 20
0.0000
 30
0.0000
 40
0.2032
 41
0.2032
 70
0
  0
VERTEX
  8
21
 10
27.1918
 20
2.5637
 30
0.0000
  0
VERTEX
  8
21
 10
27.1918
 20
1.4960
 30
0.0000
  0
SEQEND
  8
0
  0
POLYLINE
  8
21
 66
1
 10
0.0000
 20
0.0000
 30
0.0000
 40
0.1016
 41
0.1016
 70
0
  0
VERTEX
  8
21
 10
27.1410
 20
1.4960
 30
0.0000
 42
1.0000
  0
VERTEX
  8
21
 10
27.2426
 20
1.4960
 30
0.0000
  0
SEQEND
  8
0
  0
POLYLINE
  8
21
 66
1
 10
0.0000
 20
0.0000
 30
0.0000
 40
0.1016
 41
0.1016
 70
0
  0
VERTEX
  8
21
 10
27.2426
 20
2.5637
 30
0.0000
 42
1.0000
  0
VERTEX
  8
21
 10
27.1410
 20
2.5637
 30
0.0000
  0
SEQEND
  8
0
  0
POLYLINE
  8
21
 66
1
 10
0.0000
 20
0.0000
 30
0.0000
 40
0.2032
 41
0.2032
 70
0
  0
VERTEX
  8
21
 10
3.1754
 20
12.2878
 30
0.0000
  0
VERTEX
  8
21
 10
3.2683
 20
12.9935
 30
0.0000
  0
SEQEND
  8
0
  0
POLYLINE
  8
21
 66
1
 10
0.0000
 20
0.0000
 30
0.0000
 40
0.1016
 41
0.1016
 70
0
  0
VERTEX
  8
21
 10
3.3186
 20
12.9868
 30
0.0000
 42
1.0000
  0
VERTEX
  8
21
 10
3.2179
 20
13.0001
 30
0.0000
  0
SEQEND
  8
0
  0
POLYLINE
  8
21
 66
1
 10
0.0000
 20
0.0000
 30
0.0000
 40
0.1016
 41
0.1016
 70
0
  0
VERTEX
  8
21
 10
3.1250
 20
12.2944
 30
0.0000
 42
1.0000
  0
VERTEX
  8
21
 10
3.2257
 20
12.2811
 30
0.0000
  0
SEQEND
  8
0
  0
POLYLINE
  8
21
 66
1
 10
0.0000
 20
0.0000
 30
0.0000
 40
0.2032
 41
0.2032
 70
0
  0
VERTEX
  8
21
 10
3.2683
 20
12.9935
 30
0.0000
  0
VERTEX
  8
21
 10
3.4447
 20
12.9702
 30
0.0000
  0
SEQEND
  8
0
  0
POLYLINE
  8
21
 66
1
 10
0.0000
 20
0.0000
 30
0.0000
 40
0.1016
 41
0.1016
 70
0
  0
VERTEX
  8
21
 10
3.4381
 20
12.9199
 30
0.0000
 42
1.0000
  0
VERTEX
  8
21
 10
3.4513
 20
13.0206
 30
0.0000
  0
SEQEND
  8
0
  0
POLYLINE
  8
21
 66
1
 10
0.0000
 20
0.0000
 30
0.0000
 40
0.1016
 41
0.1016
 70
0
  0
VERTEX
  8
21
 10
3.2749
 20
13.0438
 30
0.0000
 42
1.0000
  0
VERTEX
  8
21
 10
3.2616
 20
12.9431
 30
0.0000
  0
SEQEND
  8
0
  0
POLYLINE
  8
21
 66
1
 10
0.0000
 20
0.0000
 30
0.0000
 40
0.2032
 41
0.2032
 70
0
  0
VERTEX
  8
21
 10
3.4447
 20
12.9702
 30
0.0000
  0
VERTEX
  8
21
 10
4.0575
 20
12.1716
 30
0.0000
  0
SEQEND
  8
0
  0
POLYLINE
  8
21
 66
1
 10
0.0000
 20
0.0000
 30
0.0000
 40
0.1016
 41
0.1016
 70
0
  0
VERTEX
  8
21
 10
4.0172
 20
12.1407
 30
0.0000
 42
1.0000
  0
VERTEX
  8
21
 10
4.0978
 20
12.2025
 30
0.0000
  0
SEQEND
  8
0
  0
POLYLINE
  8
21
 66
1
 10
0.0000
 20
0.0000
 30
0.0000
 40
0.1016
 41
0.1016
 70
0
  0
VERTEX
  8
21
 10
3.4850
 20
13.0012
 30
0.0000
 42
1.0000
  0
VERTEX
  8
21
 10
3.4044
 20
12.9393
 30
0.0000
  0
SEQEND
  8
0
  0
POLYLINE
  8
21
 66
1
 10
0.0000
 20
0.0000
 30
0.0000
 40
0.2032
 41
0.2032
 70
0
  0
VERTEX
  8
21
 10
4.0575
 20
12.1716
 30
0.0000
  0
VERTEX
  8
21
 10
4.2339
 20
12.1484
 30
0.0000
  0
SEQEND
  8
0
  0
POLYLINE
  8
21
 66
1
 10
0.0000
 20
0.0000
 30
0.0000
 40
0.1016
 41
0.1016
 70
0
  0
VERTEX
  8
21
 10
4.2273
 20
12.0980
 30
0.0000
 42
1.0000
  0
VERTEX
  8
21
 10
4.2406
 20
12.1988
 30
0.0000
  0
SEQEND
  8
0
  0
POLYLINE
  8
21
 66
1
 10
0.0000
 20
0.0000
 30
0.0000
 40
0.1016
 41
0.1016
 70
0
  0
VERTEX
  8
21
 10
4.0641
 20
12.2220
 30
0.0000
 42
1.0000
  0
VERTEX
  8
21
 10
4.0509
 20
12.1213
 30
0.0000
  0
SEQEND
  8
0
  0
POLYLINE
  8
21
 66
1
 10
0.0000
 20
0.0000
 30
0.0000
 40
0.2032
 41
0.2032
 70
0
  0
VERTEX
  8
21
 10
4.2339
 20
12.1484
 30
0.0000
  0
VERTEX
  8
21
 10
4.3268
 20
12.8541
 30
0.0000
  0
SEQEND
  8
0
  0
POLYLINE
  8
21
 66
1
 10
0.0000
 20
0.0000
 30
0.0000
 40
0.1016
 41
0.1016
 70
0
  0
VERTEX
  8
21
 10
4.3772
 20
12.8475
 30
0.0000
 42
1.0000
  0
VERTEX
  8
21
 10
4.2765
 20
12.8607
 30
0.0000
  0
SEQEND
  8
0
  0
POLYLINE
  8
21
 66
1
 10
0.0000
 20
0.0000
 30
0.0000
 40
0.1016
 41
0.1016
 70
0
  0
VERTEX
  8
21
 10
4.1836
 20
12.1550
 30
0.0000
 42
1.0000
  0
VERTEX
  8
21
 10
4.2843
 20
12.1418
 30
0.0000
  0
SEQEND
  8
0
  0
POLYLINE
  8
21
 66
1
 10
0.0000
 20
0.0000
 30
0.0000
 40
0.2032
 41
0.2032
 70
0
  0
VERTEX
  8
21
 10
3.3280
 20
13.4471
 30
0.0000
  0
VERTEX
  8
21
 10
3.4209
 20
14.1529
 30
0.0000
  0
SEQEND
  8
0
  0
POLYLINE
  8
21
 66
1
 10
0.0000
 20
0.0000
 30
0.0000
 40
0.1016
 41
0.1016
 70
0
  0
VERTEX
  8
21
 10
3.4713
 20
14.1462
 30
0.0000
 42
1.0000
  0
VERTEX
  8
21
 10
3.3705
 20
14.1595
 30
0.0000
  0
SEQEND
  8
0
  0
POLYLINE
  8
21
 66
1
 10
0.0000
 20
0.0000
 30
0.0000
 40
0.1016
 41
0.1016
 70
0
  0
VERTEX
  8
21
 10
3.2776
 20
13.4538
 30
0.0000
 42
1.0000
  0
VERTEX
  8
21
 10
3.3783
 20
13.4405
 30
0.0000
  0
SEQEND
  8
0
  0
POLYLINE
  8
21
 66
1
 10
0.0000
 20
0.0000
 30
0.0000
 40
0.2032
 41
0.2032
 70
0
  0
VERTEX
  8
21
 10
3.4209
 20
14.1529
 30
0.0000
  0
VERTEX
  8
21
 10
3.5973
 20
14.1296
 30
0.0000
  0
SEQEND
  8
0
  0
POLYLINE
  8
21
 66
1
 10
0.0000
 20
0.0000
 30
0.0000
 40
0.1016
 41
0.1016
 70
0
  0
VERTEX
  8
21
 10
3.5907
 20
14.0793
 30
0.0000
 42
1.0000
  0
VERTEX
  8
21
 10
3.6040
 20
14.1800
 30
0.0000
  0
SEQEND
  8
0
  0
POLYLINE
  8
21
 66
1
 10
0.0000
 20
0.0000
 30
0.0000
 40
0.1016
 41
0.1016
 70
0
  0
VERTEX
  8
21
 10
3.4275
 20
14.2032
 30
0.0000
 42
1.0000
  0
VERTEX
  8
21
 10
3.4143
 20
14.1025
 30
0.0000
  0
SEQEND
  8
0
  0
POLYLINE
  8
21
 66
1
 10
0.0000
 20
0.0000
 30
0.0000
 40
0.2032
 41
0.2032
 70
0
  0
VERTEX
  8
21
 10
3.5973
 20
14.1296
 30
0.0000
  0
VERTEX
  8
21
 10
4.2101
 20
13.3310
 30
0.0000
  0
SEQEND
  8
0
  0
POLYLINE
  8
21
 66
1
 10
0.0000
 20
0.0000
 30
0.0000
 40
0.1016
 41
0.1016
 70
0
  0
VERTEX
  8
21
 10
4.1698
 20
13.3001
 30
0.0000
 42
1.0000
  0
VERTEX
  8
21
 10
4.2504
 20
13.3619
 30
0.0000
  0
SEQEND
  8
0
  0
POLYLINE
  8
21
 66
1
 10
0.0000
 20
0.0000
 30
0.0000
 40
0.1016
 41
0.1016
 70
0
  0
VERTEX
  8
21
 10
3.6376
 20
14.1606
 30
0.0000
 42
1.0000
  0
VERTEX
  8
21
 10
3.5570
 20
14.0987
 30
0.0000
  0
SEQEND
  8
0
  0
POLYLINE
  8
21
 66
1
 10
0.0000
 20
0.0000
 30
0.0000
 40
0.2032
 41
0.2032
 70
0
  0
VERTEX
  8
21
 10
4.2101
 20
13.3310
 30
0.0000
  0
VERTEX
  8
21
 10
4.3866
 20
13.3078
 30
0.0000
  0
SEQEND
  8
0
  0
POLYLINE
  8
21
 66
1
 10
0.0000
 20
0.0000
 30
0.0000
 40
0.1016
 41
0.1016
 70
0
  0
VERTEX
  8
21
 10
4.3799
 20
13.2574
 30
0.0000
 42
1.0000
  0
VERTEX
  8
21
 10
4.3932
 20
13.3581
 30
0.0000
  0
SEQEND
  8
0
  0
POLYLINE
  8
21
 66
1
 10
0.0000
 20
0.0000
 30
0.0000
 40
0.1016
 41
0.1016
 70
0
  0
VERTEX
  8
21
 10
4.2168
 20
13.3814
 30
0.0000
 42
1.0000
  0
VERTEX
  8
21
 10
4.2035
 20
13.2806
 30
0.0000
  0
SEQEND
  8
0
  0
POLYLINE
  8
21
 66
1
 10
0.0000
 20
0.0000
 30
0.0000
 40
0.2032
 41
0.2032
 70
0
  0
VERTEX
  8
21
 10
4.3866
 20
13.3078
 30
0.0000
  0
VERTEX
  8
21
 10
4.4795
 20
14.0135
 30
0.0000
  0
SEQEND
  8
0
  0
POLYLINE
  8
21
 66
1
 10
0.0000
 20
0.0000
 30
0.0000
 40
0.1016
 41
0.1016
 70
0
  0
VERTEX
  8
21
 10
4.5298
 20
14.0069
 30
0.0000
 42
1.0000
  0
VERTEX
  8
21
 10
4.4291
 20
14.0201
 30
0.0000
  0
SEQEND
  8
0
  0
POLYLINE
  8
21
 66
1
 10
0.0000
 20
0.0000
 30
0.0000
 40
0.1016
 41
0.1016
 70
0
  0
VERTEX
  8
21
 10
4.3362
 20
13.3144
 30
0.0000
 42
1.0000
  0
VERTEX
  8
21
 10
4.4369
 20
13.3012
 30
0.0000
  0
SEQEND
  8
0
  0
POLYLINE
  8
21
 66
1
 10
0.0000
 20
0.0000
 30
0.0000
 40
0.2032
 41
0.2032
 70
0
  0
VERTEX
  8
21
 10
3.4806
 20
14.6065
 30
0.0000
  0
VERTEX
  8
21
 10
4.5392
 20
14.4672
 30
0.0000
  0
SEQEND
  8
0
  0
POLYLINE
  8
21
 66
1
 10
0.0000
 20
0.0000
 30
0.0000
 40
0.1016
 41
0.1016
 70
0
  0
VERTEX
  8
21
 10
4.5326
 20
14.4168
 30
0.0000
 42
1.0000
  0
VERTEX
  8
21
 10
4.5458
 20
14.5175
 30
0.0000
  0
SEQEND
  8
0
  0
POLYLINE
  8
21
 66
1
 10
0.0000
 20
0.0000
 30
0.0000
 40
0.1016
 41
0.1016
 70
0
  0
VERTEX
  8
21
 10
3.4872
 20
14.6569
 30
0.0000
 42
1.0000
  0
VERTEX
  8
21
 10
3.4740
 20
14.5562
 30
0.0000
  0
SEQEND
  8
0
  0
POLYLINE
  8
21
 66
1
 10
0.0000
 20
0.0000
 30
0.0000
 40
0.2032
 41
0.2032
 70
0
  0
VERTEX
  8
21
 10
4.5392
 20
14.4672
 30
0.0000
  0
VERTEX
  8
21
 10
4.6321
 20
15.1729
 30
0.0000
  0
SEQEND
  8
0
  0
POLYLINE
  8
21
 66
1
 10
0.0000
 20
0.0000
 30
0.0000
 40
0.1016
 41
0.1016
 70
0
  0
VERTEX
  8
21
 10
4.6825
 20
15.1663
 30
0.0000
 42
1.0000
  0
VERTEX
  8
21
 10
4.5817
 20
15.1795
 30
0.0000
  0
SEQEND
  8
0
  0
POLYLINE
  8
21
 66
1
 10
0.0000
 20
0.0000
 30
0.0000
 40
0.1016
 41
0.1016
 70
0
  0
VERTEX
  8
21
 10
4.4888
 20
14.4738
 30
0.0000
 42
1.0000
  0
VERTEX
  8
21
 10
4.5896
 20
14.4605
 30
0.0000
  0
SEQEND
  8
0
  0
POLYLINE
  8
21
 66
1
 10
0.0000
 20
0.0000
 30
0.0000
 40
0.2032
 41
0.2032
 70
0
  0
VERTEX
  8
21
 10
4.7383
 20
15.9794
 30
0.0000
  0
VERTEX
  8
21
 10
3.6797
 20
16.1188
 30
0.0000
  0
SEQEND
  8
0
  0
POLYLINE
  8
21
 66
1
 10
0.0000
 20
0.0000
 30
0.0000
 40
0.1016
 41
0.1016
 70
0
  0
VERTEX
  8
21
 10
3.6863
 20
16.1691
 30
0.0000
 42
1.0000
  0
VERTEX
  8
21
 10
3.6731
 20
16.0684
 30
0.0000
  0
SEQEND
  8
0
  0
POLYLINE
  8
21
 66
1
 10
0.0000
 20
0.0000
 30
0.0000
 40
0.1016
 41
0.1016
 70
0
  0
VERTEX
  8
21
 10
4.7317
 20
15.9291
 30
0.0000
 42
1.0000
  0
VERTEX
  8
21
 10
4.7449
 20
16.0298
 30
0.0000
  0
SEQEND
  8
0
  0
POLYLINE
  8
21
 66
1
 10
0.0000
 20
0.0000
 30
0.0000
 40
0.2032
 41
0.2032
 70
0
  0
VERTEX
  8
21
 10
3.6333
 20
15.7659
 30
0.0000
  0
VERTEX
  8
21
 10
3.7262
 20
16.4716
 30
0.0000
  0
SEQEND
  8
0
  0
POLYLINE
  8
21
 66
1
 10
0.0000
 20
0.0000
 30
0.0000
 40
0.1016
 41
0.1016
 70
0
  0
VERTEX
  8
21
 10
3.7765
 20
16.4650
 30
0.0000
 42
1.0000
  0
VERTEX
  8
21
 10
3.6758
 20
16.4783
 30
0.0000
  0
SEQEND
  8
0
  0
POLYLINE
  8
21
 66
1
 10
0.0000
 20
0.0000
 30
0.0000
 40
0.1016
 41
0.1016
 70
0
  0
VERTEX
  8
21
 10
3.5829
 20
15.7726
 30
0.0000
 42
1.0000
  0
VERTEX
  8
21
 10
3.6836
 20
15.7593
 30
0.0000
  0
SEQEND
  8
0
  0
POLYLINE
  8
21
 66
1
 10
0.0000
 20
0.0000
 30
0.0000
 40
0.2032
 41
0.2032
 70
0
  0
VERTEX
  8
21
 10
3.9385
 20
18.0847
 30
0.0000
  0
VERTEX
  8
21
 10
4.9971
 20
17.9453
 30
0.0000
  0
SEQEND
  8
0
  0
POLYLINE
  8
21
 66
1
 10
0.0000
 20
0.0000
 30
0.0000
 40
0.1016
 41
0.1016
 70
0
  0
VERTEX
  8
21
 10
4.9905
 20
17.8950
 30
0.0000
 42
1.0000
  0
VERTEX
  8
21
 10
5.0037
 20
17.9957
 30
0.0000
  0
SEQEND
  8
0
  0
POLYLINE
  8
21
 66
1
 10
0.0000
 20
0.0000
 30
0.0000
 40
0.1016
 41
0.1016
 70
0
  0
VERTEX
  8
21
 10
3.9452
 20
18.1351
 30
0.0000
 42
1.0000
  0
VERTEX
  8
21
 10
3.9319
 20
18.0343
 30
0.0000
  0
SEQEND
  8
0
  0
POLYLINE
  8
21
 66
1
 10
0.0000
 20
0.0000
 30
0.0000
 40
0.2032
 41
0.2032
 70
0
  0
VERTEX
  8
21
 10
4.9971
 20
17.9453
 30
0.0000
  0
VERTEX
  8
21
 10
5.0900
 20
18.6511
 30
0.0000
  0
SEQEND
  8
0
  0
POLYLINE
  8
21
 66
1
 10
0.0000
 20
0.0000
 30
0.0000
 40
0.1016
 41
0.1016
 70
0
  0
VERTEX
  8
21
 10
5.1404
 20
18.6444
 30
0.0000
 42
1.0000
  0
VERTEX
  8
21
 10
5.0396
 20
18.6577
 30
0.0000
  0
SEQEND
  8
0
  0
POLYLINE
  8
21
 66
1
 10
0.0000
 20
0.0000
 30
0.0000
 40
0.1016
 41
0.1016
 70
0
  0
VERTEX
  8
21
 10
4.9467
 20
17.9520
 30
0.0000
 42
1.0000
  0
VERTEX
  8
21
 10
5.0475
 20
17.9387
 30
0.0000
  0
SEQEND
  8
0
  0
POLYLINE
  8
21
 66
1
 10
0.0000
 20
0.0000
 30
0.0000
 40
0.2032
 41
0.2032
 70
0
  0
VERTEX
  8
21
 10
5.1962
 20
19.4576
 30
0.0000
  0
VERTEX
  8
21
 10
4.1376
 20
19.5970
 30
0.0000
  0
SEQEND
  8
0
  0
POLYLINE
  8
21
 66
1
 10
0.0000
 20
0.0000
 30
0.0000
 40
0.1016
 41
0.1016
 70
0
  0
VERTEX
  8
21
 10
4.1442
 20
19.6473
 30
0.0000
 42
1.0000
  0
VERTEX
  8
21
 10
4.1310
 20
19.5466
 30
0.0000
  0
SEQEND
  8
0
  0
POLYLINE
  8
21
 66
1
 10
0.0000
 20
0.0000
 30
0.0000
 40
0.1016
 41
0.1016
 70
0
  0
VERTEX
  8
21
 10
5.1896
 20
19.4072
 30
0.0000
 42
1.0000
  0
VERTEX
  8
21
 10
5.2028
 20
19.5080
 30
0.0000
  0
SEQEND
  8
0
  0
POLYLINE
  8
21
 66
1
 10
0.0000
 20
0.0000
 30
0.0000
 40
0.2032
 41
0.2032
 70
0
  0
VERTEX
  8
21
 10
4.0912
 20
19.2441
 30
0.0000
  0
VERTEX
  8
21
 10
4.1841
 20
19.9498
 30
0.0000
  0
SEQEND
  8
0
  0
POLYLINE
  8
21
 66
1
 10
0.0000
 20
0.0000
 30
0.0000
 40
0.1016
 41
0.1016
 70
0
  0
VERTEX
  8
21
 10
4.2344
 20
19.9432
 30
0.0000
 42
1.0000
  0
VERTEX
  8
21
 10
4.1337
 20
19.9564
 30
0.0000
  0
SEQEND
  8
0
  0
POLYLINE
  8
21
 66
1
 10
0.0000
 20
0.0000
 30
0.0000
 40
0.1016
 41
0.1016
 70
0
  0
VERTEX
  8
21
 10
4.0408
 20
19.2507
 30
0.0000
 42
1.0000
  0
VERTEX
  8
21
 10
4.1415
 20
19.2375
 30
0.0000
  0
SEQEND
  8
0
  0
POLYLINE
  8
21
 66
1
 10
0.0000
 20
0.0000
 30
0.0000
 40
0.2032
 41
0.2032
 70
0
  0
VERTEX
  8
21
 10
5.3024
 20
20.2641
 30
0.0000
  0
VERTEX
  8
21
 10
4.5967
 20
20.3570
 30
0.0000
  0
SEQEND
  8
0
  0
POLYLINE
  8
21
 66
1
 10
0.0000
 20
0.0000
 30
0.0000
 40
0.1016
 41
0.1016
 70
0
  0
VERTEX
  8
21
 10
4.6033
 20
20.4074
 30
0.0000
 42
1.0000
  0
VERTEX
  8
21
 10
4.5900
 20
20.3067
 30
0.0000
  0
SEQEND
  8
0
  0
POLYLINE
  8
21
 66
1
 10
0.0000
 20
0.0000
 30
0.0000
 40
0.1016
 41
0.1016
 70
0
  0
VERTEX
  8
21
 10
5.2957
 20
20.2138
 30
0.0000
 42
1.0000
  0
VERTEX
  8
21
 10
5.3090
 20
20.3145
 30
0.0000
  0
SEQEND
  8
0
  0
POLYLINE
  8
21
 66
1
 10
0.0000
 20
0.0000
 30
0.0000
 40
0.2032
 41
0.2032
 70
0
  0
VERTEX
  8
21
 10
4.5967
 20
20.3570
 30
0.0000
  0
VERTEX
  8
21
 10
4.2902
 20
20.7563
 30
0.0000
  0
SEQEND
  8
0
  0
POLYLINE
  8
21
 66
1
 10
0.0000
 20
0.0000
 30
0.0000
 40
0.1016
 41
0.1016
 70
0
  0
VERTEX
  8
21
 10
4.3305
 20
20.7873
 30
0.0000
 42
1.0000
  0
VERTEX
  8
21
 10
4.2499
 20
20.7254
 30
0.0000
  0
SEQEND
  8
0
  0
POLYLINE
  8
21
 66
1
 10
0.0000
 20
0.0000
 30
0.0000
 40
0.1016
 41
0.1016
 70
0
  0
VERTEX
  8
21
 10
4.5563
 20
20.3261
 30
0.0000
 42
1.0000
  0
VERTEX
  8
21
 10
4.6370
 20
20.3880
 30
0.0000
  0
SEQEND
  8
0
  0
POLYLINE
  8
21
 66
1
 10
0.0000
 20
0.0000
 30
0.0000
 40
0.2032
 41
0.2032
 70
0
  0
VERTEX
  8
21
 10
4.2902
 20
20.7563
 30
0.0000
  0
VERTEX
  8
21
 10
4.6896
 20
21.0628
 30
0.0000
  0
SEQEND
  8
0
  0
POLYLINE
  8
21
 66
1
 10
0.0000
 20
0.0000
 30
0.0000
 40
0.1016
 41
0.1016
 70
0
  0
VERTEX
  8
21
 10
4.7205
 20
21.0224
 30
0.0000
 42
1.0000
  0
VERTEX
  8
21
 10
4.6586
 20
21.1031
 30
0.0000
  0
SEQEND
  8
0
  0
POLYLINE
  8
21
 66
1
 10
0.0000
 20
0.0000
 30
0.0000
 40
0.1016
 41
0.1016
 70
0
  0
VERTEX
  8
21
 10
4.2593
 20
20.7966
 30
0.0000
 42
1.0000
  0
VERTEX
  8
21
 10
4.3212
 20
20.7160
 30
0.0000
  0
SEQEND
  8
0
  0
POLYLINE
  8
21
 66
1
 10
0.0000
 20
0.0000
 30
0.0000
 40
0.2032
 41
0.2032
 70
0
  0
VERTEX
  8
21
 10
4.6896
 20
21.0628
 30
0.0000
  0
VERTEX
  8
21
 10
5.3953
 20
20.9698
 30
0.0000
  0
SEQEND
  8
0
  0
POLYLINE
  8
21
 66
1
 10
0.0000
 20
0.0000
 30
0.0000
 40
0.1016
 41
0.1016
 70
0
  0
VERTEX
  8
21
 10
5.3886
 20
20.9195
 30
0.0000
 42
1.0000
  0
VERTEX
  8
21
 10
5.4019
 20
21.0202
 30
0.0000
  0
SEQEND
  8
0
  0
POLYLINE
  8
21
 66
1
 10
0.0000
 20
0.0000
 30
0.0000
 40
0.1016
 41
0.1016
 70
0
  0
VERTEX
  8
21
 10
4.6962
 20
21.1131
 30
0.0000
 42
1.0000
  0
VERTEX
  8
21
 10
4.6829
 20
21.0124
 30
0.0000
  0
SEQEND
  8
0
  0
POLYLINE
  8
21
 66
1
 10
0.0000
 20
0.0000
 30
0.0000
 40
0.2032
 41
0.2032
 70
0
  0
VERTEX
  8
21
 10
4.7731
 20
20.3338
 30
0.0000
  0
VERTEX
  8
21
 10
4.8660
 20
21.0395
 30
0.0000
  0
SEQEND
  8
0
  0
POLYLINE
  8
21
 66
1
 10
0.0000
 20
0.0000
 30
0.0000
 40
0.1016
 41
0.1016
 70
0
  0
VERTEX
  8
21
 10
4.9164
 20
21.0329
 30
0.0000
 42
1.0000
  0
VERTEX
  8
21
 10
4.8156
 20
21.0462
 30
0.0000
  0
SEQEND
  8
0
  0
POLYLINE
  8
21
 66
1
 10
0.0000
 20
0.0000
 30
0.0000
 40
0.1016
 41
0.1016
 70
0
  0
VERTEX
  8
21
 10
4.7227
 20
20.3404
 30
0.0000
 42
1.0000
  0
VERTEX
  8
21
 10
4.8234
 20
20.3272
 30
0.0000
  0
SEQEND
  8
0
  0
POLYLINE
  8
21
 66
1
 10
0.0000
 20
0.0000
 30
0.0000
 40
0.2032
 41
0.2032
 70
0
  0
VERTEX
  8
21
 10
5.4550
 20
21.4235
 30
0.0000
  0
VERTEX
  8
21
 10
4.3964
 20
21.5629
 30
0.0000
  0
SEQEND
  8
0
  0
POLYLINE
  8
21
 66
1
 10
0.0000
 20
0.0000
 30
0.0000
 40
0.1016
 41
0.1016
 70
0
  0
VERTEX
  8
21
 10
4.4031
 20
21.6132
 30
0.0000
 42
1.0000
  0
VERTEX
  8
21
 10
4.3898
 20
21.5125
 30
0.0000
  0
SEQEND
  8
0
  0
POLYLINE
  8
21
 66
1
 10
0.0000
 20
0.0000
 30
0.0000
 40
0.1016
 41
0.1016
 70
0
  0
VERTEX
  8
21
 10
5.4484
 20
21.3732
 30
0.0000
 42
1.0000
  0
VERTEX
  8
21
 10
5.4616
 20
21.4739
 30
0.0000
  0
SEQEND
  8
0
  0
POLYLINE
  8
21
 66
1
 10
0.0000
 20
0.0000
 30
0.0000
 40
0.2032
 41
0.2032
 70
0
  0
VERTEX
  8
21
 10
4.3964
 20
21.5629
 30
0.0000
  0
VERTEX
  8
21
 10
4.4661
 20
22.0922
 30
0.0000
  0
SEQEND
  8
0
  0
POLYLINE
  8
21
 66
1
 10
0.0000
 20
0.0000
 30
0.0000
 40
0.1016
 41
0.1016
 70
0
  0
VERTEX
  8
21
 10
4.5165
 20
22.0855
 30
0.0000
 42
1.0000
  0
VERTEX
  8
21
 10
4.4157
 20
22.0988
 30
0.0000
  0
SEQEND
  8
0
  0
POLYLINE
  8
21
 66
1
 10
0.0000
 20
0.0000
 30
0.0000
 40
0.1016
 41
0.1016
 70
0
  0
VERTEX
  8
21
 10
4.3461
 20
21.5695
 30
0.0000
 42
1.0000
  0
VERTEX
  8
21
 10
4.4468
 20
21.5562
 30
0.0000
  0
SEQEND
  8
0
  0
POLYLINE
  8
21
 66
1
 10
0.0000
 20
0.0000
 30
0.0000
 40
0.2032
 41
0.2032
 70
0
  0
VERTEX
  8
21
 10
4.4661
 20
22.0922
 30
0.0000
  0
VERTEX
  8
21
 10
4.6658
 20
22.2454
 30
0.0000
  0
SEQEND
  8
0
  0
POLYLINE
  8
21
 66
1
 10
0.0000
 20
0.0000
 30
0.0000
 40
0.1016
 41
0.1016
 70
0
  0
VERTEX
  8
21
 10
4.6967
 20
22.2051
 30
0.0000
 42
1.0000
  0
VERTEX
  8
21
 10
4.6348
 20
22.2857
 30
0.0000
  0
SEQEND
  8
0
  0
POLYLINE
  8
21
 66
1
 10
0.0000
 20
0.0000
 30
0.0000
 40
0.1016
 41
0.1016
 70
0
  0
VERTEX
  8
21
 10
4.4352
 20
22.1325
 30
0.0000
 42
1.0000
  0
VERTEX
  8
21
 10
4.4970
 20
22.0519
 30
0.0000
  0
SEQEND
  8
0
  0
POLYLINE
  8
21
 66
1
 10
0.0000
 20
0.0000
 30
0.0000
 40
0.2032
 41
0.2032
 70
0
  0
VERTEX
  8
21
 10
4.6658
 20
22.2454
 30
0.0000
  0
VERTEX
  8
21
 10
5.0186
 20
22.1989
 30
0.0000
  0
SEQEND
  8
0
  0
POLYLINE
  8
21
 66
1
 10
0.0000
 20
0.0000
 30
0.0000
 40
0.1016
 41
0.1016
 70
0
  0
VERTEX
  8
21
 10
5.0120
 20
22.1485
 30
0.0000
 42
1.0000
  0
VERTEX
  8
21
 10
5.0253
 20
22.2493
 30
0.0000
  0
SEQEND
  8
0
  0
POLYLINE
  8
21
 66
1
 10
0.0000
 20
0.0000
 30
0.0000
 40
0.1016
 41
0.1016
 70
0
  0
VERTEX
  8
21
 10
4.6724
 20
22.2957
 30
0.0000
 42
1.0000
  0
VERTEX
  8
21
 10
4.6591
 20
22.1950
 30
0.0000
  0
SEQEND
  8
0
  0
POLYLINE
  8
21
 66
1
 10
0.0000
 20
0.0000
 30
0.0000
 40
0.2032
 41
0.2032
 70
0
  0
VERTEX
  8
21
 10
5.0186
 20
22.1989
 30
0.0000
  0
VERTEX
  8
21
 10
5.1718
 20
21.9993
 30
0.0000
  0
SEQEND
  8
0
  0
POLYLINE
  8
21
 66
1
 10
0.0000
 20
0.0000
 30
0.0000
 40
0.1016
 41
0.1016
 70
0
  0
VERTEX
  8
21
 10
5.1315
 20
21.9683
 30
0.0000
 42
1.0000
  0
VERTEX
  8
21
 10
5.2121
 20
22.0302
 30
0.0000
  0
SEQEND
  8
0
  0
POLYLINE
  8
21
 66
1
 10
0.0000
 20
0.0000
 30
0.0000
 40
0.1016
 41
0.1016
 70
0
  0
VERTEX
  8
21
 10
5.0589
 20
22.2298
 30
0.0000
 42
1.0000
  0
VERTEX
  8
21
 10
4.9783
 20
22.1680
 30
0.0000
  0
SEQEND
  8
0
  0
POLYLINE
  8
21
 66
1
 10
0.0000
 20
0.0000
 30
0.0000
 40
0.2032
 41
0.2032
 70
0
  0
VERTEX
  8
21
 10
5.1718
 20
21.9993
 30
0.0000
  0
VERTEX
  8
21
 10
5.1021
 20
21.4700
 30
0.0000
  0
SEQEND
  8
0
  0
POLYLINE
  8
21
 66
1
 10
0.0000
 20
0.0000
 30
0.0000
 40
0.1016
 41
0.1016
 70
0
  0
VERTEX
  8
21
 10
5.0518
 20
21.4766
 30
0.0000
 42
1.0000
  0
VERTEX
  8
21
 10
5.1525
 20
21.4633
 30
0.0000
  0
SEQEND
  8
0
  0
POLYLINE
  8
21
 66
1
 10
0.0000
 20
0.0000
 30
0.0000
 40
0.1016
 41
0.1016
 70
0
  0
VERTEX
  8
21
 10
5.2222
 20
21.9926
 30
0.0000
 42
1.0000
  0
VERTEX
  8
21
 10
5.1215
 20
22.0059
 30
0.0000
  0
SEQEND
  8
0
  0
POLYLINE
  8
21
 66
1
 10
0.0000
 20
0.0000
 30
0.0000
 40
0.2032
 41
0.2032
 70
0
  0
VERTEX
  8
21
 10
5.1486
 20
21.8228
 30
0.0000
  0
VERTEX
  8
21
 10
5.5479
 20
22.1292
 30
0.0000
  0
SEQEND
  8
0
  0
POLYLINE
  8
21
 66
1
 10
0.0000
 20
0.0000
 30
0.0000
 40
0.1016
 41
0.1016
 70
0
  0
VERTEX
  8
21
 10
5.5788
 20
22.0889
 30
0.0000
 42
1.0000
  0
VERTEX
  8
21
 10
5.5170
 20
22.1695
 30
0.0000
  0
SEQEND
  8
0
  0
POLYLINE
  8
21
 66
1
 10
0.0000
 20
0.0000
 30
0.0000
 40
0.1016
 41
0.1016
 70
0
  0
VERTEX
  8
21
 10
5.1177
 20
21.8631
 30
0.0000
 42
1.0000
  0
VERTEX
  8
21
 10
5.1795
 20
21.7825
 30
0.0000
  0
SEQEND
  8
0
  0
POLYLINE
  8
21
 66
1
 10
0.0000
 20
0.0000
 30
0.0000
 40
0.2032
 41
0.2032
 70
0
  0
VERTEX
  8
21
 10
4.7017
 20
23.8817
 30
0.0000
  0
VERTEX
  8
21
 10
5.7603
 20
23.7423
 30
0.0000
  0
SEQEND
  8
0
  0
POLYLINE
  8
21
 66
1
 10
0.0000
 20
0.0000
 30
0.0000
 40
0.1016
 41
0.1016
 70
0
  0
VERTEX
  8
21
 10
5.7536
 20
23.6919
 30
0.0000
 42
1.0000
  0
VERTEX
  8
21
 10
5.7669
 20
23.7927
 30
0.0000
  0
SEQEND
  8
0
  0
POLYLINE
  8
21
 66
1
 10
0.0000
 20
0.0000
 30
0.0000
 40
0.1016
 41
0.1016
 70
0
  0
VERTEX
  8
21
 10
4.7083
 20
23.9320
 30
0.0000
 42
1.0000
  0
VERTEX
  8
21
 10
4.6951
 20
23.8313
 30
0.0000
  0
SEQEND
  8
0
  0
POLYLINE
  8
21
 66
1
 10
0.0000
 20
0.0000
 30
0.0000
 40
0.2032
 41
0.2032
 70
0
  0
VERTEX
  8
21
 10
5.7603
 20
23.7423
 30
0.0000
  0
VERTEX
  8
21
 10
5.8300
 20
24.2716
 30
0.0000
  0
SEQEND
  8
0
  0
POLYLINE
  8
21
 66
1
 10
0.0000
 20
0.0000
 30
0.0000
 40
0.1016
 41
0.1016
 70
0
  0
VERTEX
  8
21
 10
5.8803
 20
24.2650
 30
0.0000
 42
1.0000
  0
VERTEX
  8
21
 10
5.7796
 20
24.2782
 30
0.0000
  0
SEQEND
  8
0
  0
POLYLINE
  8
21
 66
1
 10
0.0000
 20
0.0000
 30
0.0000
 40
0.1016
 41
0.1016
 70
0
  0
VERTEX
  8
21
 10
5.7099
 20
23.7489
 30
0.0000
 42
1.0000
  0
VERTEX
  8
21
 10
5.8106
 20
23.7357
 30
0.0000
  0
SEQEND
  8
0
  0
POLYLINE
  8
21
 66
1
 10
0.0000
 20
0.0000
 30
0.0000
 40
0.2032
 41
0.2032
 70
0
  0
VERTEX
  8
21
 10
5.8300
 20
24.2716
 30
0.0000
  0
VERTEX
  8
21
 10
5.6768
 20
24.4712
 30
0.0000
  0
SEQEND
  8
0
  0
POLYLINE
  8
21
 66
1
 10
0.0000
 20
0.0000
 30
0.0000
 40
0.1016
 41
0.1016
 70
0
  0
VERTEX
  8
21
 10
5.7171
 20
24.5022
 30
0.0000
 42
1.0000
  0
VERTEX
  8
21
 10
5.6365
 20
24.4403
 30
0.0000
  0
SEQEND
  8
0
  0
POLYLINE
  8
21
 66
1
 10
0.0000
 20
0.0000
 30
0.0000
 40
0.1016
 41
0.1016
 70
0
  0
VERTEX
  8
21
 10
5.7897
 20
24.2407
 30
0.0000
 42
1.0000
  0
VERTEX
  8
21
 10
5.8703
 20
24.3025
 30
0.0000
  0
SEQEND
  8
0
  0
POLYLINE
  8
21
 66
1
 10
0.0000
 20
0.0000
 30
0.0000
 40
0.2032
 41
0.2032
 70
0
  0
VERTEX
  8
21
 10
5.6768
 20
24.4712
 30
0.0000
  0
VERTEX
  8
21
 10
4.9710
 20
24.5642
 30
0.0000
  0
SEQEND
  8
0
  0
POLYLINE
  8
21
 66
1
 10
0.0000
 20
0.0000
 30
0.0000
 40
0.1016
 41
0.1016
 70
0
  0
VERTEX
  8
21
 10
4.9777
 20
24.6145
 30
0.0000
 42
1.0000
  0
VERTEX
  8
21
 10
4.9644
 20
24.5138
 30
0.0000
  0
SEQEND
  8
0
  0
POLYLINE
  8
21
 66
1
 10
0.0000
 20
0.0000
 30
0.0000
 40
0.1016
 41
0.1016
 70
0
  0
VERTEX
  8
21
 10
5.6701
 20
24.4209
 30
0.0000
 42
1.0000
  0
VERTEX
  8
21
 10
5.6834
 20
24.5216
 30
0.0000
  0
SEQEND
  8
0
  0
POLYLINE
  8
21
 66
1
 10
0.0000
 20
0.0000
 30
0.0000
 40
0.2032
 41
0.2032
 70
0
  0
VERTEX
  8
21
 10
4.9710
 20
24.5642
 30
0.0000
  0
VERTEX
  8
21
 10
4.7714
 20
24.4109
 30
0.0000
  0
SEQEND
  8
0
  0
POLYLINE
  8
21
 66
1
 10
0.0000
 20
0.0000
 30
0.0000
 40
0.1016
 41
0.1016
 70
0
  0
VERTEX
  8
21
 10
4.7405
 20
24.4513
 30
0.0000
 42
1.0000
  0
VERTEX
  8
21
 10
4.8023
 20
24.3706
 30
0.0000
  0
SEQEND
  8
0
  0
POLYLINE
  8
21
 66
1
 10
0.0000
 20
0.0000
 30
0.0000
 40
0.1016
 41
0.1016
 70
0
  0
VERTEX
  8
21
 10
5.0020
 20
24.5238
 30
0.0000
 42
1.0000
  0
VERTEX
  8
21
 10
4.9401
 20
24.6045
 30
0.0000
  0
SEQEND
  8
0
  0
POLYLINE
  8
21
 66
1
 10
0.0000
 20
0.0000
 30
0.0000
 40
0.2032
 41
0.2032
 70
0
  0
VERTEX
  8
21
 10
4.7714
 20
24.4109
 30
0.0000
  0
VERTEX
  8
21
 10
4.7017
 20
23.8817
 30
0.0000
  0
SEQEND
  8
0
  0
POLYLINE
  8
21
 66
1
 10
0.0000
 20
0.0000
 30
0.0000
 40
0.1016
 41
0.1016
 70
0
  0
VERTEX
  8
21
 10
4.6513
 20
23.8883
 30
0.0000
 42
1.0000
  0
VERTEX
  8
21
 10
4.7521
 20
23.8750
 30
0.0000
  0
SEQEND
  8
0
  0
POLYLINE
  8
21
 66
1
 10
0.0000
 20
0.0000
 30
0.0000
 40
0.1016
 41
0.1016
 70
0
  0
VERTEX
  8
21
 10
4.8217
 20
24.4043
 30
0.0000
 42
1.0000
  0
VERTEX
  8
21
 10
4.7210
 20
24.4176
 30
0.0000
  0
SEQEND
  8
0
  0
POLYLINE
  8
21
 66
1
 10
0.0000
 20
0.0000
 30
0.0000
 40
0.2032
 41
0.2032
 70
0
  0
VERTEX
  8
21
 10
5.9129
 20
24.9017
 30
0.0000
  0
VERTEX
  8
21
 10
5.9594
 20
25.2545
 30
0.0000
  0
SEQEND
  8
0
  0
POLYLINE
  8
21
 66
1
 10
0.0000
 20
0.0000
 30
0.0000
 40
0.1016
 41
0.1016
 70
0
  0
VERTEX
  8
21
 10
6.0097
 20
25.2479
 30
0.0000
 42
1.0000
  0
VERTEX
  8
21
 10
5.9090
 20
25.2612
 30
0.0000
  0
SEQEND
  8
0
  0
POLYLINE
  8
21
 66
1
 10
0.0000
 20
0.0000
 30
0.0000
 40
0.1016
 41
0.1016
 70
0
  0
VERTEX
  8
21
 10
5.8625
 20
24.9083
 30
0.0000
 42
1.0000
  0
VERTEX
  8
21
 10
5.9633
 20
24.8951
 30
0.0000
  0
SEQEND
  8
0
  0
POLYLINE
  8
21
 66
1
 10
0.0000
 20
0.0000
 30
0.0000
 40
0.2032
 41
0.2032
 70
0
  0
VERTEX
  8
21
 10
5.9361
 20
25.0781
 30
0.0000
  0
VERTEX
  8
21
 10
4.8776
 20
25.2175
 30
0.0000
  0
SEQEND
  8
0
  0
POLYLINE
  8
21
 66
1
 10
0.0000
 20
0.0000
 30
0.0000
 40
0.1016
 41
0.1016
 70
0
  0
VERTEX
  8
21
 10
4.8842
 20
25.2678
 30
0.0000
 42
1.0000
  0
VERTEX
  8
21
 10
4.8709
 20
25.1671
 30
0.0000
  0
SEQEND
  8
0
  0
POLYLINE
  8
21
 66
1
 10
0.0000
 20
0.0000
 30
0.0000
 40
0.1016
 41
0.1016
 70
0
  0
VERTEX
  8
21
 10
5.9295
 20
25.0277
 30
0.0000
 42
1.0000
  0
VERTEX
  8
21
 10
5.9428
 20
25.1285
 30
0.0000
  0
SEQEND
  8
0
  0
POLYLINE
  8
21
 66
1
 10
0.0000
 20
0.0000
 30
0.0000
 40
0.2032
 41
0.2032
 70
0
  0
VERTEX
  8
21
 10
4.8543
 20
25.0411
 30
0.0000
  0
VERTEX
  8
21
 10
4.9008
 20
25.3939
 30
0.0000
  0
SEQEND
  8
0
  0
POLYLINE
  8
21
 66
1
 10
0.0000
 20
0.0000
 30
0.0000
 40
0.1016
 41
0.1016
 70
0
  0
VERTEX
  8
21
 10
4.9511
 20
25.3873
 30
0.0000
 42
1.0000
  0
VERTEX
  8
21
 10
4.8504
 20
25.4005
 30
0.0000
  0
SEQEND
  8
0
  0
POLYLINE
  8
21
 66
1
 10
0.0000
 20
0.0000
 30
0.0000
 40
0.1016
 41
0.1016
 70
0
  0
VERTEX
  8
21
 10
4.8040
 20
25.0477
 30
0.0000
 42
1.0000
  0
VERTEX
  8
21
 10
4.9047
 20
25.0344
 30
0.0000
  0
SEQEND
  8
0
  0
POLYLINE
  8
21
 66
1
 10
0.0000
 20
0.0000
 30
0.0000
 40
0.2032
 41
0.2032
 70
0
  0
VERTEX
  8
21
 10
5.2254
 20
26.4965
 30
0.0000
  0
VERTEX
  8
21
 10
5.0258
 20
26.3433
 30
0.0000
  0
SEQEND
  8
0
  0
POLYLINE
  8
21
 66
1
 10
0.0000
 20
0.0000
 30
0.0000
 40
0.1016
 41
0.1016
 70
0
  0
VERTEX
  8
21
 10
4.9948
 20
26.3836
 30
0.0000
 42
1.0000
  0
VERTEX
  8
21
 10
5.0567
 20
26.3030
 30
0.0000
  0
SEQEND
  8
0
  0
POLYLINE
  8
21
 66
1
 10
0.0000
 20
0.0000
 30
0.0000
 40
0.1016
 41
0.1016
 70
0
  0
VERTEX
  8
21
 10
5.2563
 20
26.4562
 30
0.0000
 42
1.0000
  0
VERTEX
  8
21
 10
5.1945
 20
26.5368
 30
0.0000
  0
SEQEND
  8
0
  0
POLYLINE
  8
21
 66
1
 10
0.0000
 20
0.0000
 30
0.0000
 40
0.2032
 41
0.2032
 70
0
  0
VERTEX
  8
21
 10
5.0258
 20
26.3433
 30
0.0000
  0
VERTEX
  8
21
 10
4.9793
 20
25.9904
 30
0.0000
  0
SEQEND
  8
0
  0
POLYLINE
  8
21
 66
1
 10
0.0000
 20
0.0000
 30
0.0000
 40
0.1016
 41
0.1016
 70
0
  0
VERTEX
  8
21
 10
4.9289
 20
25.9970
 30
0.0000
 42
1.0000
  0
VERTEX
  8
21
 10
5.0297
 20
25.9838
 30
0.0000
  0
SEQEND
  8
0
  0
POLYLINE
  8
21
 66
1
 10
0.0000
 20
0.0000
 30
0.0000
 40
0.1016
 41
0.1016
 70
0
  0
VERTEX
  8
21
 10
5.0761
 20
26.3366
 30
0.0000
 42
1.0000
  0
VERTEX
  8
21
 10
4.9754
 20
26.3499
 30
0.0000
  0
SEQEND
  8
0
  0
POLYLINE
  8
21
 66
1
 10
0.0000
 20
0.0000
 30
0.0000
 40
0.2032
 41
0.2032
 70
0
  0
VERTEX
  8
21
 10
4.9793
 20
25.9904
 30
0.0000
  0
VERTEX
  8
21
 10
5.1325
 20
25.7907
 30
0.0000
  0
SEQEND
  8
0
  0
POLYLINE
  8
21
 66
1
 10
0.0000
 20
0.0000
 30
0.0000
 40
0.1016
 41
0.1016
 70
0
  0
VERTEX
  8
21
 10
5.0922
 20
25.7598
 30
0.0000
 42
1.0000
  0
VERTEX
  8
21
 10
5.1728
 20
25.8217
 30
0.0000
  0
SEQEND
  8
0
  0
POLYLINE
  8
21
 66
1
 10
0.0000
 20
0.0000
 30
0.0000
 40
0.1016
 41
0.1016
 70
0
  0
VERTEX
  8
21
 10
5.0196
 20
26.0213
 30
0.0000
 42
1.0000
  0
VERTEX
  8
21
 10
4.9390
 20
25.9595
 30
0.0000
  0
SEQEND
  8
0
  0
POLYLINE
  8
21
 66
1
 10
0.0000
 20
0.0000
 30
0.0000
 40
0.2032
 41
0.2032
 70
0
  0
VERTEX
  8
21
 10
5.1325
 20
25.7907
 30
0.0000
  0
VERTEX
  8
21
 10
5.3089
 20
25.7675
 30
0.0000
  0
SEQEND
  8
0
  0
POLYLINE
  8
21
 66
1
 10
0.0000
 20
0.0000
 30
0.0000
 40
0.1016
 41
0.1016
 70
0
  0
VERTEX
  8
21
 10
5.3023
 20
25.7172
 30
0.0000
 42
1.0000
  0
VERTEX
  8
21
 10
5.3156
 20
25.8179
 30
0.0000
  0
SEQEND
  8
0
  0
POLYLINE
  8
21
 66
1
 10
0.0000
 20
0.0000
 30
0.0000
 40
0.1016
 41
0.1016
 70
0
  0
VERTEX
  8
21
 10
5.1391
 20
25.8411
 30
0.0000
 42
1.0000
  0
VERTEX
  8
21
 10
5.1259
 20
25.7404
 30
0.0000
  0
SEQEND
  8
0
  0
POLYLINE
  8
21
 66
1
 10
0.0000
 20
0.0000
 30
0.0000
 40
0.2032
 41
0.2032
 70
0
  0
VERTEX
  8
21
 10
5.3089
 20
25.7675
 30
0.0000
  0
VERTEX
  8
21
 10
5.5086
 20
25.9207
 30
0.0000
  0
SEQEND
  8
0
  0
POLYLINE
  8
21
 66
1
 10
0.0000
 20
0.0000
 30
0.0000
 40
0.1016
 41
0.1016
 70
0
  0
VERTEX
  8
21
 10
5.5395
 20
25.8804
 30
0.0000
 42
1.0000
  0
VERTEX
  8
21
 10
5.4777
 20
25.9610
 30
0.0000
  0
SEQEND
  8
0
  0
POLYLINE
  8
21
 66
1
 10
0.0000
 20
0.0000
 30
0.0000
 40
0.1016
 41
0.1016
 70
0
  0
VERTEX
  8
21
 10
5.2780
 20
25.8078
 30
0.0000
 42
1.0000
  0
VERTEX
  8
21
 10
5.3399
 20
25.7272
 30
0.0000
  0
SEQEND
  8
0
  0
POLYLINE
  8
21
 66
1
 10
0.0000
 20
0.0000
 30
0.0000
 40
0.2032
 41
0.2032
 70
0
  0
VERTEX
  8
21
 10
5.5086
 20
25.9207
 30
0.0000
  0
VERTEX
  8
21
 10
5.5551
 20
26.2736
 30
0.0000
  0
SEQEND
  8
0
  0
POLYLINE
  8
21
 66
1
 10
0.0000
 20
0.0000
 30
0.0000
 40
0.1016
 41
0.1016
 70
0
  0
VERTEX
  8
21
 10
5.6054
 20
26.2670
 30
0.0000
 42
1.0000
  0
VERTEX
  8
21
 10
5.5047
 20
26.2802
 30
0.0000
  0
SEQEND
  8
0
  0
POLYLINE
  8
21
 66
1
 10
0.0000
 20
0.0000
 30
0.0000
 40
0.1016
 41
0.1016
 70
0
  0
VERTEX
  8
21
 10
5.4582
 20
25.9274
 30
0.0000
 42
1.0000
  0
VERTEX
  8
21
 10
5.5590
 20
25.9141
 30
0.0000
  0
SEQEND
  8
0
  0
POLYLINE
  8
21
 66
1
 10
0.0000
 20
0.0000
 30
0.0000
 40
0.2032
 41
0.2032
 70
0
  0
VERTEX
  8
21
 10
5.5551
 20
26.2736
 30
0.0000
  0
VERTEX
  8
21
 10
5.7547
 20
26.4268
 30
0.0000
  0
SEQEND
  8
0
  0
POLYLINE
  8
21
 66
1
 10
0.0000
 20
0.0000
 30
0.0000
 40
0.1016
 41
0.1016
 70
0
  0
VERTEX
  8
21
 10
5.7856
 20
26.3865
 30
0.0000
 42
1.0000
  0
VERTEX
  8
21
 10
5.7238
 20
26.4671
 30
0.0000
  0
SEQEND
  8
0
  0
POLYLINE
  8
21
 66
1
 10
0.0000
 20
0.0000
 30
0.0000
 40
0.1016
 41
0.1016
 70
0
  0
VERTEX
  8
21
 10
5.5241
 20
26.3139
 30
0.0000
 42
1.0000
  0
VERTEX
  8
21
 10
5.5860
 20
26.2333
 30
0.0000
  0
SEQEND
  8
0
  0
POLYLINE
  8
21
 66
1
 10
0.0000
 20
0.0000
 30
0.0000
 40
0.2032
 41
0.2032
 70
0
  0
VERTEX
  8
21
 10
5.7547
 20
26.4268
 30
0.0000
  0
VERTEX
  8
21
 10
5.9311
 20
26.4036
 30
0.0000
  0
SEQEND
  8
0
  0
POLYLINE
  8
21
 66
1
 10
0.0000
 20
0.0000
 30
0.0000
 40
0.1016
 41
0.1016
 70
0
  0
VERTEX
  8
21
 10
5.9245
 20
26.3532
 30
0.0000
 42
1.0000
  0
VERTEX
  8
21
 10
5.9378
 20
26.4539
 30
0.0000
  0
SEQEND
  8
0
  0
POLYLINE
  8
21
 66
1
 10
0.0000
 20
0.0000
 30
0.0000
 40
0.1016
 41
0.1016
 70
0
  0
VERTEX
  8
21
 10
5.7613
 20
26.4771
 30
0.0000
 42
1.0000
  0
VERTEX
  8
21
 10
5.7481
 20
26.3764
 30
0.0000
  0
SEQEND
  8
0
  0
POLYLINE
  8
21
 66
1
 10
0.0000
 20
0.0000
 30
0.0000
 40
0.2032
 41
0.2032
 70
0
  0
VERTEX
  8
21
 10
5.9311
 20
26.4036
 30
0.0000
  0
VERTEX
  8
21
 10
6.0843
 20
26.2039
 30
0.0000
  0
SEQEND
  8
0
  0
POLYLINE
  8
21
 66
1
 10
0.0000
 20
0.0000
 30
0.0000
 40
0.1016
 41
0.1016
 70
0
  0
VERTEX
  8
21
 10
6.0440
 20
26.1730
 30
0.0000
 42
1.0000
  0
VERTEX
  8
21
 10
6.1246
 20
26.2348
 30
0.0000
  0
SEQEND
  8
0
  0
POLYLINE
  8
21
 66
1
 10
0.0000
 20
0.0000
 30
0.0000
 40
0.1016
 41
0.1016
 70
0
  0
VERTEX
  8
21
 10
5.9714
 20
26.4345
 30
0.0000
 42
1.0000
  0
VERTEX
  8
21
 10
5.8908
 20
26.3726
 30
0.0000
  0
SEQEND
  8
0
  0
POLYLINE
  8
21
 66
1
 10
0.0000
 20
0.0000
 30
0.0000
 40
0.2032
 41
0.2032
 70
0
  0
VERTEX
  8
21
 10
6.0843
 20
26.2039
 30
0.0000
  0
VERTEX
  8
21
 10
6.0379
 20
25.8510
 30
0.0000
  0
SEQEND
  8
0
  0
POLYLINE
  8
21
 66
1
 10
0.0000
 20
0.0000
 30
0.0000
 40
0.1016
 41
0.1016
 70
0
  0
VERTEX
  8
21
 10
5.9875
 20
25.8577
 30
0.0000
 42
1.0000
  0
VERTEX
  8
21
 10
6.0883
 20
25.8444
 30
0.0000
  0
SEQEND
  8
0
  0
POLYLINE
  8
21
 66
1
 10
0.0000
 20
0.0000
 30
0.0000
 40
0.1016
 41
0.1016
 70
0
  0
VERTEX
  8
21
 10
6.1347
 20
26.1973
 30
0.0000
 42
1.0000
  0
VERTEX
  8
21
 10
6.0340
 20
26.2105
 30
0.0000
  0
SEQEND
  8
0
  0
POLYLINE
  8
21
 66
1
 10
0.0000
 20
0.0000
 30
0.0000
 40
0.2032
 41
0.2032
 70
0
  0
VERTEX
  8
21
 10
6.0379
 20
25.8510
 30
0.0000
  0
VERTEX
  8
21
 10
5.8382
 20
25.6978
 30
0.0000
  0
SEQEND
  8
0
  0
POLYLINE
  8
21
 66
1
 10
0.0000
 20
0.0000
 30
0.0000
 40
0.1016
 41
0.1016
 70
0
  0
VERTEX
  8
21
 10
5.8073
 20
25.7381
 30
0.0000
 42
1.0000
  0
VERTEX
  8
21
 10
5.8692
 20
25.6575
 30
0.0000
  0
SEQEND
  8
0
  0
POLYLINE
  8
21
 66
1
 10
0.0000
 20
0.0000
 30
0.0000
 40
0.1016
 41
0.1016
 70
0
  0
VERTEX
  8
21
 10
6.0688
 20
25.8107
 30
0.0000
 42
1.0000
  0
VERTEX
  8
21
 10
6.0070
 20
25.8913
 30
0.0000
  0
SEQEND
  8
0
  0
POLYLINE
  8
21
 66
1
 10
0.0000
 20
0.0000
 30
0.0000
 40
0.2032
 41
0.2032
 70
0
  0
VERTEX
  8
21
 10
6.1673
 20
26.8340
 30
0.0000
  0
VERTEX
  8
21
 10
5.1087
 20
26.9734
 30
0.0000
  0
SEQEND
  8
0
  0
POLYLINE
  8
21
 66
1
 10
0.0000
 20
0.0000
 30
0.0000
 40
0.1016
 41
0.1016
 70
0
  0
VERTEX
  8
21
 10
5.1153
 20
27.0237
 30
0.0000
 42
1.0000
  0
VERTEX
  8
21
 10
5.1021
 20
26.9230
 30
0.0000
  0
SEQEND
  8
0
  0
POLYLINE
  8
21
 66
1
 10
0.0000
 20
0.0000
 30
0.0000
 40
0.1016
 41
0.1016
 70
0
  0
VERTEX
  8
21
 10
6.1607
 20
26.7836
 30
0.0000
 42
1.0000
  0
VERTEX
  8
21
 10
6.1739
 20
26.8844
 30
0.0000
  0
SEQEND
  8
0
  0
POLYLINE
  8
21
 66
1
 10
0.0000
 20
0.0000
 30
0.0000
 40
0.2032
 41
0.2032
 70
0
  0
VERTEX
  8
21
 10
5.1087
 20
26.9734
 30
0.0000
  0
VERTEX
  8
21
 10
5.1784
 20
27.5027
 30
0.0000
  0
SEQEND
  8
0
  0
POLYLINE
  8
21
 66
1
 10
0.0000
 20
0.0000
 30
0.0000
 40
0.1016
 41
0.1016
 70
0
  0
VERTEX
  8
21
 10
5.2288
 20
27.4960
 30
0.0000
 42
1.0000
  0
VERTEX
  8
21
 10
5.1280
 20
27.5093
 30
0.0000
  0
SEQEND
  8
0
  0
POLYLINE
  8
21
 66
1
 10
0.0000
 20
0.0000
 30
0.0000
 40
0.1016
 41
0.1016
 70
0
  0
VERTEX
  8
21
 10
5.0584
 20
26.9800
 30
0.0000
 42
1.0000
  0
VERTEX
  8
21
 10
5.1591
 20
26.9667
 30
0.0000
  0
SEQEND
  8
0
  0
POLYLINE
  8
21
 66
1
 10
0.0000
 20
0.0000
 30
0.0000
 40
0.2032
 41
0.2032
 70
0
  0
VERTEX
  8
21
 10
5.1784
 20
27.5027
 30
0.0000
  0
VERTEX
  8
21
 10
5.3781
 20
27.6559
 30
0.0000
  0
SEQEND
  8
0
  0
POLYLINE
  8
21
 66
1
 10
0.0000
 20
0.0000
 30
0.0000
 40
0.1016
 41
0.1016
 70
0
  0
VERTEX
  8
21
 10
5.4090
 20
27.6156
 30
0.0000
 42
1.0000
  0
VERTEX
  8
21
 10
5.3471
 20
27.6962
 30
0.0000
  0
SEQEND
  8
0
  0
POLYLINE
  8
21
 66
1
 10
0.0000
 20
0.0000
 30
0.0000
 40
0.1016
 41
0.1016
 70
0
  0
VERTEX
  8
21
 10
5.1475
 20
27.5430
 30
0.0000
 42
1.0000
  0
VERTEX
  8
21
 10
5.2093
 20
27.4624
 30
0.0000
  0
SEQEND
  8
0
  0
POLYLINE
  8
21
 66
1
 10
0.0000
 20
0.0000
 30
0.0000
 40
0.2032
 41
0.2032
 70
0
  0
VERTEX
  8
21
 10
5.3781
 20
27.6559
 30
0.0000
  0
VERTEX
  8
21
 10
5.7309
 20
27.6094
 30
0.0000
  0
SEQEND
  8
0
  0
POLYLINE
  8
21
 66
1
 10
0.0000
 20
0.0000
 30
0.0000
 40
0.1016
 41
0.1016
 70
0
  0
VERTEX
  8
21
 10
5.7243
 20
27.5590
 30
0.0000
 42
1.0000
  0
VERTEX
  8
21
 10
5.7375
 20
27.6598
 30
0.0000
  0
SEQEND
  8
0
  0
POLYLINE
  8
21
 66
1
 10
0.0000
 20
0.0000
 30
0.0000
 40
0.1016
 41
0.1016
 70
0
  0
VERTEX
  8
21
 10
5.3847
 20
27.7062
 30
0.0000
 42
1.0000
  0
VERTEX
  8
21
 10
5.3714
 20
27.6055
 30
0.0000
  0
SEQEND
  8
0
  0
POLYLINE
  8
21
 66
1
 10
0.0000
 20
0.0000
 30
0.0000
 40
0.2032
 41
0.2032
 70
0
  0
VERTEX
  8
21
 10
5.7309
 20
27.6094
 30
0.0000
  0
VERTEX
  8
21
 10
5.8841
 20
27.4097
 30
0.0000
  0
SEQEND
  8
0
  0
POLYLINE
  8
21
 66
1
 10
0.0000
 20
0.0000
 30
0.0000
 40
0.1016
 41
0.1016
 70
0
  0
VERTEX
  8
21
 10
5.8438
 20
27.3788
 30
0.0000
 42
1.0000
  0
VERTEX
  8
21
 10
5.9244
 20
27.4407
 30
0.0000
  0
SEQEND
  8
0
  0
POLYLINE
  8
21
 66
1
 10
0.0000
 20
0.0000
 30
0.0000
 40
0.1016
 41
0.1016
 70
0
  0
VERTEX
  8
21
 10
5.7712
 20
27.6403
 30
0.0000
 42
1.0000
  0
VERTEX
  8
21
 10
5.6906
 20
27.5785
 30
0.0000
  0
SEQEND
  8
0
  0
POLYLINE
  8
21
 66
1
 10
0.0000
 20
0.0000
 30
0.0000
 40
0.2032
 41
0.2032
 70
0
  0
VERTEX
  8
21
 10
5.8841
 20
27.4097
 30
0.0000
  0
VERTEX
  8
21
 10
5.8144
 20
26.8805
 30
0.0000
  0
SEQEND
  8
0
  0
POLYLINE
  8
21
 66
1
 10
0.0000
 20
0.0000
 30
0.0000
 40
0.1016
 41
0.1016
 70
0
  0
VERTEX
  8
21
 10
5.7641
 20
26.8871
 30
0.0000
 42
1.0000
  0
VERTEX
  8
21
 10
5.8648
 20
26.8738
 30
0.0000
  0
SEQEND
  8
0
  0
POLYLINE
  8
21
 66
1
 10
0.0000
 20
0.0000
 30
0.0000
 40
0.1016
 41
0.1016
 70
0
  0
VERTEX
  8
21
 10
5.9345
 20
27.4031
 30
0.0000
 42
1.0000
  0
VERTEX
  8
21
 10
5.8338
 20
27.4164
 30
0.0000
  0
SEQEND
  8
0
  0
POLYLINE
  8
21
 66
1
 10
0.0000
 20
0.0000
 30
0.0000
 40
0.2032
 41
0.2032
 70
0
  0
VERTEX
  8
21
 10
5.2614
 20
28.1328
 30
0.0000
  0
VERTEX
  8
21
 10
6.3199
 20
27.9934
 30
0.0000
  0
SEQEND
  8
0
  0
POLYLINE
  8
21
 66
1
 10
0.0000
 20
0.0000
 30
0.0000
 40
0.1016
 41
0.1016
 70
0
  0
VERTEX
  8
21
 10
6.3133
 20
27.9430
 30
0.0000
 42
1.0000
  0
VERTEX
  8
21
 10
6.3266
 20
28.0438
 30
0.0000
  0
SEQEND
  8
0
  0
POLYLINE
  8
21
 66
1
 10
0.0000
 20
0.0000
 30
0.0000
 40
0.1016
 41
0.1016
 70
0
  0
VERTEX
  8
21
 10
5.2680
 20
28.1831
 30
0.0000
 42
1.0000
  0
VERTEX
  8
21
 10
5.2547
 20
28.0824
 30
0.0000
  0
SEQEND
  8
0
  0
POLYLINE
  8
21
 66
1
 10
0.0000
 20
0.0000
 30
0.0000
 40
0.2032
 41
0.2032
 70
0
  0
VERTEX
  8
21
 10
6.3199
 20
27.9934
 30
0.0000
  0
VERTEX
  8
21
 10
6.4128
 20
28.6991
 30
0.0000
  0
SEQEND
  8
0
  0
POLYLINE
  8
21
 66
1
 10
0.0000
 20
0.0000
 30
0.0000
 40
0.1016
 41
0.1016
 70
0
  0
VERTEX
  8
21
 10
6.4632
 20
28.6925
 30
0.0000
 42
1.0000
  0
VERTEX
  8
21
 10
6.3625
 20
28.7057
 30
0.0000
  0
SEQEND
  8
0
  0
POLYLINE
  8
21
 66
1
 10
0.0000
 20
0.0000
 30
0.0000
 40
0.1016
 41
0.1016
 70
0
  0
VERTEX
  8
21
 10
6.2696
 20
28.0000
 30
0.0000
 42
1.0000
  0
VERTEX
  8
21
 10
6.3703
 20
27.9868
 30
0.0000
  0
SEQEND
  8
0
  0
POLYLINE
  8
21
 66
1
 10
0.0000
 20
0.0000
 30
0.0000
 40
0.2032
 41
0.2032
 70
0
  0
VERTEX
  8
21
 10
6.4726
 20
29.1528
 30
0.0000
  0
VERTEX
  8
21
 10
5.7668
 20
29.2457
 30
0.0000
  0
SEQEND
  8
0
  0
POLYLINE
  8
21
 66
1
 10
0.0000
 20
0.0000
 30
0.0000
 40
0.1016
 41
0.1016
 70
0
  0
VERTEX
  8
21
 10
5.7735
 20
29.2961
 30
0.0000
 42
1.0000
  0
VERTEX
  8
21
 10
5.7602
 20
29.1953
 30
0.0000
  0
SEQEND
  8
0
  0
POLYLINE
  8
21
 66
1
 10
0.0000
 20
0.0000
 30
0.0000
 40
0.1016
 41
0.1016
 70
0
  0
VERTEX
  8
21
 10
6.4659
 20
29.1024
 30
0.0000
 42
1.0000
  0
VERTEX
  8
21
 10
6.4792
 20
29.2031
 30
0.0000
  0
SEQEND
  8
0
  0
POLYLINE
  8
21
 66
1
 10
0.0000
 20
0.0000
 30
0.0000
 40
0.2032
 41
0.2032
 70
0
  0
VERTEX
  8
21
 10
5.7668
 20
29.2457
 30
0.0000
  0
VERTEX
  8
21
 10
5.4604
 20
29.6450
 30
0.0000
  0
SEQEND
  8
0
  0
POLYLINE
  8
21
 66
1
 10
0.0000
 20
0.0000
 30
0.0000
 40
0.1016
 41
0.1016
 70
0
  0
VERTEX
  8
21
 10
5.5007
 20
29.6759
 30
0.0000
 42
1.0000
  0
VERTEX
  8
21
 10
5.4201
 20
29.6141
 30
0.0000
  0
SEQEND
  8
0
  0
POLYLINE
  8
21
 66
1
 10
0.0000
 20
0.0000
 30
0.0000
 40
0.1016
 41
0.1016
 70
0
  0
VERTEX
  8
21
 10
5.7265
 20
29.2148
 30
0.0000
 42
1.0000
  0
VERTEX
  8
21
 10
5.8071
 20
29.2766
 30
0.0000
  0
SEQEND
  8
0
  0
POLYLINE
  8
21
 66
1
 10
0.0000
 20
0.0000
 30
0.0000
 40
0.2032
 41
0.2032
 70
0
  0
VERTEX
  8
21
 10
5.4604
 20
29.6450
 30
0.0000
  0
VERTEX
  8
21
 10
5.8598
 20
29.9514
 30
0.0000
  0
SEQEND
  8
0
  0
POLYLINE
  8
21
 66
1
 10
0.0000
 20
0.0000
 30
0.0000
 40
0.1016
 41
0.1016
 70
0
  0
VERTEX
  8
21
 10
5.8907
 20
29.9111
 30
0.0000
 42
1.0000
  0
VERTEX
  8
21
 10
5.8288
 20
29.9917
 30
0.0000
  0
SEQEND
  8
0
  0
POLYLINE
  8
21
 66
1
 10
0.0000
 20
0.0000
 30
0.0000
 40
0.1016
 41
0.1016
 70
0
  0
VERTEX
  8
21
 10
5.4295
 20
29.6853
 30
0.0000
 42
1.0000
  0
VERTEX
  8
21
 10
5.4914
 20
29.6047
 30
0.0000
  0
SEQEND
  8
0
  0
POLYLINE
  8
21
 66
1
 10
0.0000
 20
0.0000
 30
0.0000
 40
0.2032
 41
0.2032
 70
0
  0
VERTEX
  8
21
 10
5.8598
 20
29.9514
 30
0.0000
  0
VERTEX
  8
21
 10
6.5655
 20
29.8585
 30
0.0000
  0
SEQEND
  8
0
  0
POLYLINE
  8
21
 66
1
 10
0.0000
 20
0.0000
 30
0.0000
 40
0.1016
 41
0.1016
 70
0
  0
VERTEX
  8
21
 10
6.5588
 20
29.8081
 30
0.0000
 42
1.0000
  0
VERTEX
  8
21
 10
6.5721
 20
29.9089
 30
0.0000
  0
SEQEND
  8
0
  0
POLYLINE
  8
21
 66
1
 10
0.0000
 20
0.0000
 30
0.0000
 40
0.1016
 41
0.1016
 70
0
  0
VERTEX
  8
21
 10
5.8664
 20
30.0018
 30
0.0000
 42
1.0000
  0
VERTEX
  8
21
 10
5.8531
 20
29.9010
 30
0.0000
  0
SEQEND
  8
0
  0
POLYLINE
  8
21
 66
1
 10
0.0000
 20
0.0000
 30
0.0000
 40
0.2032
 41
0.2032
 70
0
  0
VERTEX
  8
21
 10
5.9433
 20
29.2225
 30
0.0000
  0
VERTEX
  8
21
 10
6.0362
 20
29.9282
 30
0.0000
  0
SEQEND
  8
0
  0
POLYLINE
  8
21
 66
1
 10
0.0000
 20
0.0000
 30
0.0000
 40
0.1016
 41
0.1016
 70
0
  0
VERTEX
  8
21
 10
6.0865
 20
29.9216
 30
0.0000
 42
1.0000
  0
VERTEX
  8
21
 10
5.9858
 20
29.9348
 30
0.0000
  0
SEQEND
  8
0
  0
POLYLINE
  8
21
 66
1
 10
0.0000
 20
0.0000
 30
0.0000
 40
0.1016
 41
0.1016
 70
0
  0
VERTEX
  8
21
 10
5.8929
 20
29.2291
 30
0.0000
 42
1.0000
  0
VERTEX
  8
21
 10
5.9936
 20
29.2158
 30
0.0000
  0
SEQEND
  8
0
  0
POLYLINE
  8
21
 66
1
 10
0.0000
 20
0.0000
 30
0.0000
 40
0.2032
 41
0.2032
 70
0
  0
VERTEX
  8
21
 10
5.5666
 20
30.4515
 30
0.0000
  0
VERTEX
  8
21
 10
5.7431
 20
30.4283
 30
0.0000
  0
SEQEND
  8
0
  0
POLYLINE
  8
21
 66
1
 10
0.0000
 20
0.0000
 30
0.0000
 40
0.1016
 41
0.1016
 70
0
  0
VERTEX
  8
21
 10
5.7364
 20
30.3779
 30
0.0000
 42
1.0000
  0
VERTEX
  8
21
 10
5.7497
 20
30.4787
 30
0.0000
  0
SEQEND
  8
0
  0
POLYLINE
  8
21
 66
1
 10
0.0000
 20
0.0000
 30
0.0000
 40
0.1016
 41
0.1016
 70
0
  0
VERTEX
  8
21
 10
5.5733
 20
30.5019
 30
0.0000
 42
1.0000
  0
VERTEX
  8
21
 10
5.5600
 20
30.4012
 30
0.0000
  0
SEQEND
  8
0
  0
POLYLINE
  8
21
 66
1
 10
0.0000
 20
0.0000
 30
0.0000
 40
0.2032
 41
0.2032
 70
0
  0
VERTEX
  8
21
 10
5.7431
 20
30.4283
 30
0.0000
  0
VERTEX
  8
21
 10
6.1424
 20
30.7347
 30
0.0000
  0
SEQEND
  8
0
  0
POLYLINE
  8
21
 66
1
 10
0.0000
 20
0.0000
 30
0.0000
 40
0.1016
 41
0.1016
 70
0
  0
VERTEX
  8
21
 10
6.1733
 20
30.6944
 30
0.0000
 42
1.0000
  0
VERTEX
  8
21
 10
6.1114
 20
30.7750
 30
0.0000
  0
SEQEND
  8
0
  0
POLYLINE
  8
21
 66
1
 10
0.0000
 20
0.0000
 30
0.0000
 40
0.1016
 41
0.1016
 70
0
  0
VERTEX
  8
21
 10
5.7121
 20
30.4686
 30
0.0000
 42
1.0000
  0
VERTEX
  8
21
 10
5.7740
 20
30.3880
 30
0.0000
  0
SEQEND
  8
0
  0
POLYLINE
  8
21
 66
1
 10
0.0000
 20
0.0000
 30
0.0000
 40
0.2032
 41
0.2032
 70
0
  0
VERTEX
  8
21
 10
6.1424
 20
30.7347
 30
0.0000
  0
VERTEX
  8
21
 10
5.8360
 20
31.1340
 30
0.0000
  0
SEQEND
  8
0
  0
POLYLINE
  8
21
 66
1
 10
0.0000
 20
0.0000
 30
0.0000
 40
0.1016
 41
0.1016
 70
0
  0
VERTEX
  8
21
 10
5.8763
 20
31.1650
 30
0.0000
 42
1.0000
  0
VERTEX
  8
21
 10
5.7957
 20
31.1031
 30
0.0000
  0
SEQEND
  8
0
  0
POLYLINE
  8
21
 66
1
 10
0.0000
 20
0.0000
 30
0.0000
 40
0.1016
 41
0.1016
 70
0
  0
VERTEX
  8
21
 10
6.1021
 20
30.7038
 30
0.0000
 42
1.0000
  0
VERTEX
  8
21
 10
6.1827
 20
30.7656
 30
0.0000
  0
SEQEND
  8
0
  0
POLYLINE
  8
21
 66
1
 10
0.0000
 20
0.0000
 30
0.0000
 40
0.2032
 41
0.2032
 70
0
  0
VERTEX
  8
21
 10
5.8360
 20
31.1340
 30
0.0000
  0
VERTEX
  8
21
 10
5.6595
 20
31.1573
 30
0.0000
  0
SEQEND
  8
0
  0
POLYLINE
  8
21
 66
1
 10
0.0000
 20
0.0000
 30
0.0000
 40
0.1016
 41
0.1016
 70
0
  0
VERTEX
  8
21
 10
5.6662
 20
31.2076
 30
0.0000
 42
1.0000
  0
VERTEX
  8
21
 10
5.6529
 20
31.1069
 30
0.0000
  0
SEQEND
  8
0
  0
POLYLINE
  8
21
 66
1
 10
0.0000
 20
0.0000
 30
0.0000
 40
0.1016
 41
0.1016
 70
0
  0
VERTEX
  8
21
 10
5.8293
 20
31.0837
 30
0.0000
 42
1.0000
  0
VERTEX
  8
21
 10
5.8426
 20
31.1844
 30
0.0000
  0
SEQEND
  8
0
  0
POLYLINE
  8
21
 66
1
 10
0.0000
 20
0.0000
 30
0.0000
 40
0.2032
 41
0.2032
 70
0
  0
VERTEX
  8
21
 10
6.1424
 20
30.7347
 30
0.0000
  0
VERTEX
  8
21
 10
6.6717
 20
30.6650
 30
0.0000
  0
SEQEND
  8
0
  0
POLYLINE
  8
21
 66
1
 10
0.0000
 20
0.0000
 30
0.0000
 40
0.1016
 41
0.1016
 70
0
  0
VERTEX
  8
21
 10
6.6650
 20
30.6147
 30
0.0000
 42
1.0000
  0
VERTEX
  8
21
 10
6.6783
 20
30.7154
 30
0.0000
  0
SEQEND
  8
0
  0
POLYLINE
  8
21
 66
1
 10
0.0000
 20
0.0000
 30
0.0000
 40
0.1016
 41
0.1016
 70
0
  0
VERTEX
  8
21
 10
6.1490
 20
30.7851
 30
0.0000
 42
1.0000
  0
VERTEX
  8
21
 10
6.1357
 20
30.6843
 30
0.0000
  0
SEQEND
  8
0
  0
POINT
  8
23
 10
14.9144
 20
35.4302
 30
0.0000
  0
POLYLINE
  8
51
 66
1
 10
0.0000
 20
0.0000
 30
0.0000
 40
0.1016
 41
0.1016
 70
0
  0
VERTEX
  8
51
 10
15.8394
 20
35.7802
 30
0.0000
 42
0.8571
  0
VERTEX
  8
51
 10
15.8394
 20
35.0802
 30
0.0000
  0
SEQEND
  8
0
  0
POLYLINE
  8
51
 66
1
 10
0.0000
 20
0.0000
 30
0.0000
 40
0.0508
 41
0.0508
 70
0
  0
VERTEX
  8
51
 10
15.8433
 20
35.7551
 30
0.0000
 42
1.0000
  0
VERTEX
  8
51
 10
15.8355
 20
35.8053
 30
0.0000
  0
SEQEND
  8
0
  0
POLYLINE
  8
51
 66
1
 10
0.0000
 20
0.0000
 30
0.0000
 40
0.0508
 41
0.0508
 70
0
  0
VERTEX
  8
51
 10
15.8355
 20
35.0551
 30
0.0000
 42
1.0000
  0
VERTEX
  8
51
 10
15.8433
 20
35.1053
 30
0.0000
  0
SEQEND
  8
0
  0
POLYLINE
  8
51
 66
1
 10
0.0000
 20
0.0000
 30
0.0000
 40
0.1016
 41
0.1016
 70
0
  0
VERTEX
  8
51
 10
13.9894
 20
35.0802
 30
0.0000
 42
0.8571
  0
VERTEX
  8
51
 10
13.9894
 20
35.7802
 30
0.0000
  0
SEQEND
  8
0
  0
POLYLINE
  8
51
 66
1
 10
0.0000
 20
0.0000
 30
0.0000
 40
0.0508
 41
0.0508
 70
0
  0
VERTEX
  8
51
 10
13.9855
 20
35.1053
 30
0.0000
 42
1.0000
  0
VERTEX
  8
51
 10
13.9933
 20
35.0551
 30
0.0000
  0
SEQEND
  8
0
  0
POLYLINE
  8
51
 66
1
 10
0.0000
 20
0.0000
 30
0.0000
 40
0.0508
 41
0.0508
 70
0
  0
VERTEX
  8
51
 10
13.9933
 20
35.8053
 30
0.0000
 42
1.0000
  0
VERTEX
  8
51
 10
13.9855
 20
35.7551
 30
0.0000
  0
SEQEND
  8
0
  0
POLYLINE
  8
51
 66
1
 10
0.0000
 20
0.0000
 30
0.0000
 40
0.1016
 41
0.1016
 70
0
  0
VERTEX
  8
51
 10
15.4394
 20
34.8552
 30
0.0000
  0
VERTEX
  8
51
 10
14.3894
 20
34.8552
 30
0.0000
  0
SEQEND
  8
0
  0
POLYLINE
  8
51
 66
1
 10
0.0000
 20
0.0000
 30
0.0000
 40
0.0508
 41
0.0508
 70
0
  0
VERTEX
  8
51
 10
14.3894
 20
34.8806
 30
0.0000
 42
1.0000
  0
VERTEX
  8
51
 10
14.3894
 20
34.8298
 30
0.0000
  0
SEQEND
  8
0
  0
POLYLINE
  8
51
 66
1
 10
0.0000
 20
0.0000
 30
0.0000
 40
0.0508
 41
0.0508
 70
0
  0
VERTEX
  8
51
 10
15.4394
 20
34.8298
 30
0.0000
 42
1.0000
  0
VERTEX
  8
51
 10
15.4394
 20
34.8806
 30
0.0000
  0
SEQEND
  8
0
  0
POLYLINE
  8
51
 66
1
 10
0.0000
 20
0.0000
 30
0.0000
 40
0.1016
 41
0.1016
 70
0
  0
VERTEX
  8
51
 10
14.4144
 20
36.0052
 30
0.0000
  0
VERTEX
  8
51
 10
15.8394
 20
36.0052
 30
0.0000
  0
SEQEND
  8
0
  0
POLYLINE
  8
51
 66
1
 10
0.0000
 20
0.0000
 30
0.0000
 40
0.0508
 41
0.0508
 70
0
  0
VERTEX
  8
51
 10
15.8394
 20
35.9798
 30
0.0000
 42
1.0000
  0
VERTEX
  8
51
 10
15.8394
 20
36.0306
 30
0.0000
  0
SEQEND
  8
0
  0
POLYLINE
  8
51
 66
1
 10
0.0000
 20
0.0000
 30
0.0000
 40
0.0508
 41
0.0508
 70
0
  0
VERTEX
  8
51
 10
14.4144
 20
36.0306
 30
0.0000
 42
1.0000
  0
VERTEX
  8
51
 10
14.4144
 20
35.9798
 30
0.0000
  0
SEQEND
  8
0
  0
POLYLINE
  8
51
 66
1
 10
0.0000
 20
0.0000
 30
0.0000
 40
0.1016
 41
0.1016
 70
0
  0
VERTEX
  8
51
 10
15.7644
 20
35.7772
 30
0.0000
 42
1.0000
  0
VERTEX
  8
51
 10
15.7644
 20
35.9832
 30
0.0000
 42
1.0000
  0
VERTEX
  8
51
 10
15.7644
 20
35.7772
 30
0.0000
  0
SEQEND
  8
0
  0
INSERT
  8
51
  2
RECT
 10
15.6644
 20
34.9677
 30
0.0000
 41
0.3250
 42
0.5000
 43
1.0000
 50
270.0000
  0
INSERT
  8
51
  2
RECT
 10
15.5394
 20
35.6802
 30
0.0000
 41
0.1500
 42
0.2500
 43
1.0000
 50
270.0000
  0
INSERT
  8
51
  2
RECT
 10
15.5394
 20
35.1802
 30
0.0000
 41
0.1500
 42
0.2500
 43
1.0000
 50
270.0000
  0
INSERT
  8
51
  2
RECT
 10
15.5019
 20
35.4302
 30
0.0000
 41
0.4000
 42
0.1750
 43
1.0000
 50
270.0000
  0
INSERT
  8
51
  2
RECT
 10
14.1644
 20
34.9677
 30
0.0000
 41
0.3250
 42
0.5000
 43
1.0000
 50
270.0000
  0
INSERT
  8
51
  2
RECT
 10
14.1644
 20
35.8927
 30
0.0000
 41
0.3250
 42
0.5000
 43
1.0000
 50
270.0000
  0
INSERT
  8
51
  2
RECT
 10
14.2894
 20
35.1802
 30
0.0000
 41
0.1500
 42
0.2500
 43
1.0000
 50
270.0000
  0
INSERT
  8
51
  2
RECT
 10
14.2894
 20
35.6802
 30
0.0000
 41
0.1500
 42
0.2500
 43
1.0000
 50
270.0000
  0
INSERT
  8
51
  2
RECT
 10
14.3269
 20
35.4302
 30
0.0000
 41
0.4000
 42
0.1750
 43
1.0000
 50
270.0000
  0
INSERT
  8
21
  2
RECT
 10
15.0144
 20
35.4302
 30
0.0000
 41
0.2000
 42
0.2000
 43
1.0000
 50
270.0000
  0
INSERT
  8
51
  2
RECT
 10
15.5644
 20
35.8802
 30
0.0000
 41
0.3000
 42
0.3000
 43
1.0000
 50
270.0000
  0
INSERT
  8
51
  2
RECT
 10
15.8769
 20
35.8927
 30
0.0000
 41
0.3250
 42
0.0750
 43
1.0000
 50
270.0000
  0
INSERT
  8
31
  2
RECT
 10
13.8644
 20
35.4302
 30
0.0000
 41
1.2000
 42
1.2000
 43
1.0000
 50
270.0000
  0
INSERT
  8
31
  2
RECT
 10
15.9644
 20
35.4302
 30
0.0000
 41
1.2000
 42
1.2000
 43
1.0000
 50
270.0000
  0
POINT
  8
23
 10
14.9144
 20
32.6080
 30
0.0000
  0
POLYLINE
  8
51
 66
1
 10
0.0000
 20
0.0000
 30
0.0000
 40
0.1016
 41
0.1016
 70
0
  0
VERTEX
  8
51
 10
15.8394
 20
32.9580
 30
0.0000
 42
0.8571
  0
VERTEX
  8
51
 10
15.8394
 20
32.2580
 30
0.0000
  0
SEQEND
  8
0
  0
POLYLINE
  8
51
 66
1
 10
0.0000
 20
0.0000
 30
0.0000
 40
0.0508
 41
0.0508
 70
0
  0
VERTEX
  8
51
 10
15.8433
 20
32.9329
 30
0.0000
 42
1.0000
  0
VERTEX
  8
51
 10
15.8355
 20
32.9831
 30
0.0000
  0
SEQEND
  8
0
  0
POLYLINE
  8
51
 66
1
 10
0.0000
 20
0.0000
 30
0.0000
 40
0.0508
 41
0.0508
 70
0
  0
VERTEX
  8
51
 10
15.8355
 20
32.2329
 30
0.0000
 42
1.0000
  0
VERTEX
  8
51
 10
15.8433
 20
32.2831
 30
0.0000
  0
SEQEND
  8
0
  0
POLYLINE
  8
51
 66
1
 10
0.0000
 20
0.0000
 30
0.0000
 40
0.1016
 41
0.1016
 70
0
  0
VERTEX
  8
51
 10
13.9894
 20
32.2580
 30
0.0000
 42
0.8571
  0
VERTEX
  8
51
 10
13.9894
 20
32.9580
 30
0.0000
  0
SEQEND
  8
0
  0
POLYLINE
  8
51
 66
1
 10
0.0000
 20
0.0000
 30
0.0000
 40
0.0508
 41
0.0508
 70
0
  0
VERTEX
  8
51
 10
13.9855
 20
32.2831
 30
0.0000
 42
1.0000
  0
VERTEX
  8
51
 10
13.9933
 20
32.2329
 30
0.0000
  0
SEQEND
  8
0
  0
POLYLINE
  8
51
 66
1
 10
0.0000
 20
0.0000
 30
0.0000
 40
0.0508
 41
0.0508
 70
0
  0
VERTEX
  8
51
 10
13.9933
 20
32.9831
 30
0.0000
 42
1.0000
  0
VERTEX
  8
51
 10
13.9855
 20
32.9329
 30
0.0000
  0
SEQEND
  8
0
  0
POLYLINE
  8
51
 66
1
 10
0.0000
 20
0.0000
 30
0.0000
 40
0.1016
 41
0.1016
 70
0
  0
VERTEX
  8
51
 10
15.4394
 20
32.0330
 30
0.0000
  0
VERTEX
  8
51
 10
14.3894
 20
32.0330
 30
0.0000
  0
SEQEND
  8
0
  0
POLYLINE
  8
51
 66
1
 10
0.0000
 20
0.0000
 30
0.0000
 40
0.0508
 41
0.0508
 70
0
  0
VERTEX
  8
51
 10
14.3894
 20
32.0584
 30
0.0000
 42
1.0000
  0
VERTEX
  8
51
 10
14.3894
 20
32.0076
 30
0.0000
  0
SEQEND
  8
0
  0
POLYLINE
  8
51
 66
1
 10
0.0000
 20
0.0000
 30
0.0000
 40
0.0508
 41
0.0508
 70
0
  0
VERTEX
  8
51
 10
15.4394
 20
32.0076
 30
0.0000
 42
1.0000
  0
VERTEX
  8
51
 10
15.4394
 20
32.0584
 30
0.0000
  0
SEQEND
  8
0
  0
POLYLINE
  8
51
 66
1
 10
0.0000
 20
0.0000
 30
0.0000
 40
0.1016
 41
0.1016
 70
0
  0
VERTEX
  8
51
 10
14.4144
 20
33.1830
 30
0.0000
  0
VERTEX
  8
51
 10
15.8394
 20
33.1830
 30
0.0000
  0
SEQEND
  8
0
  0
POLYLINE
  8
51
 66
1
 10
0.0000
 20
0.0000
 30
0.0000
 40
0.0508
 41
0.0508
 70
0
  0
VERTEX
  8
51
 10
15.8394
 20
33.1576
 30
0.0000
 42
1.0000
  0
VERTEX
  8
51
 10
15.8394
 20
33.2084
 30
0.0000
  0
SEQEND
  8
0
  0
POLYLINE
  8
51
 66
1
 10
0.0000
 20
0.0000
 30
0.0000
 40
0.0508
 41
0.0508
 70
0
  0
VERTEX
  8
51
 10
14.4144
 20
33.2084
 30
0.0000
 42
1.0000
  0
VERTEX
  8
51
 10
14.4144
 20
33.1576
 30
0.0000
  0
SEQEND
  8
0
  0
POLYLINE
  8
51
 66
1
 10
0.0000
 20
0.0000
 30
0.0000
 40
0.1016
 41
0.1016
 70
0
  0
VERTEX
  8
51
 10
15.7644
 20
32.9550
 30
0.0000
 42
1.0000
  0
VERTEX
  8
51
 10
15.7644
 20
33.1610
 30
0.0000
 42
1.0000
  0
VERTEX
  8
51
 10
15.7644
 20
32.9550
 30
0.0000
  0
SEQEND
  8
0
  0
INSERT
  8
51
  2
RECT
 10
15.6644
 20
32.1455
 30
0.0000
 41
0.3250
 42
0.5000
 43
1.0000
 50
270.0000
  0
INSERT
  8
51
  2
RECT
 10
15.5394
 20
32.8580
 30
0.0000
 41
0.1500
 42
0.2500
 43
1.0000
 50
270.0000
  0
INSERT
  8
51
  2
RECT
 10
15.5394
 20
32.3580
 30
0.0000
 41
0.1500
 42
0.2500
 43
1.0000
 50
270.0000
  0
INSERT
  8
51
  2
RECT
 10
15.5019
 20
32.6080
 30
0.0000
 41
0.4000
 42
0.1750
 43
1.0000
 50
270.0000
  0
INSERT
  8
51
  2
RECT
 10
14.1644
 20
32.1455
 30
0.0000
 41
0.3250
 42
0.5000
 43
1.0000
 50
270.0000
  0
INSERT
  8
51
  2
RECT
 10
14.1644
 20
33.0705
 30
0.0000
 41
0.3250
 42
0.5000
 43
1.0000
 50
270.0000
  0
INSERT
  8
51
  2
RECT
 10
14.2894
 20
32.3580
 30
0.0000
 41
0.1500
 42
0.2500
 43
1.0000
 50
270.0000
  0
INSERT
  8
51
  2
RECT
 10
14.2894
 20
32.8580
 30
0.0000
 41
0.1500
 42
0.2500
 43
1.0000
 50
270.0000
  0
INSERT
  8
51
  2
RECT
 10
14.3269
 20
32.6080
 30
0.0000
 41
0.4000
 42
0.1750
 43
1.0000
 50
270.0000
  0
INSERT
  8
21
  2
RECT
 10
15.0144
 20
32.6080
 30
0.0000
 41
0.2000
 42
0.2000
 43
1.0000
 50
270.0000
  0
INSERT
  8
51
  2
RECT
 10
15.5644
 20
33.0580
 30
0.0000
 41
0.3000
 42
0.3000
 43
1.0000
 50
270.0000
  0
INSERT
  8
51
  2
RECT
 10
15.8769
 20
33.0705
 30
0.0000
 41
0.3250
 42
0.0750
 43
1.0000
 50
270.0000
  0
INSERT
  8
31
  2
RECT
 10
13.8644
 20
32.6080
 30
0.0000
 41
1.2000
 42
1.2000
 43
1.0000
 50
270.0000
  0
INSERT
  8
31
  2
RECT
 10
15.9644
 20
32.6080
 30
0.0000
 41
1.2000
 42
1.2000
 43
1.0000
 50
270.0000
  0
POINT
  8
23
 10
14.9144
 20
29.7857
 30
0.0000
  0
POLYLINE
  8
51
 66
1
 10
0.0000
 20
0.0000
 30
0.0000
 40
0.1016
 41
0.1016
 70
0
  0
VERTEX
  8
51
 10
15.8394
 20
30.1357
 30
0.0000
 42
0.8571
  0
VERTEX
  8
51
 10
15.8394
 20
29.4357
 30
0.0000
  0
SEQEND
  8
0
  0
POLYLINE
  8
51
 66
1
 10
0.0000
 20
0.0000
 30
0.0000
 40
0.0508
 41
0.0508
 70
0
  0
VERTEX
  8
51
 10
15.8433
 20
30.1106
 30
0.0000
 42
1.0000
  0
VERTEX
  8
51
 10
15.8355
 20
30.1608
 30
0.0000
  0
SEQEND
  8
0
  0
POLYLINE
  8
51
 66
1
 10
0.0000
 20
0.0000
 30
0.0000
 40
0.0508
 41
0.0508
 70
0
  0
VERTEX
  8
51
 10
15.8355
 20
29.4106
 30
0.0000
 42
1.0000
  0
VERTEX
  8
51
 10
15.8433
 20
29.4608
 30
0.0000
  0
SEQEND
  8
0
  0
POLYLINE
  8
51
 66
1
 10
0.0000
 20
0.0000
 30
0.0000
 40
0.1016
 41
0.1016
 70
0
  0
VERTEX
  8
51
 10
13.9894
 20
29.4357
 30
0.0000
 42
0.8571
  0
VERTEX
  8
51
 10
13.9894
 20
30.1357
 30
0.0000
  0
SEQEND
  8
0
  0
POLYLINE
  8
51
 66
1
 10
0.0000
 20
0.0000
 30
0.0000
 40
0.0508
 41
0.0508
 70
0
  0
VERTEX
  8
51
 10
13.9855
 20
29.4608
 30
0.0000
 42
1.0000
  0
VERTEX
  8
51
 10
13.9933
 20
29.4106
 30
0.0000
  0
SEQEND
  8
0
  0
POLYLINE
  8
51
 66
1
 10
0.0000
 20
0.0000
 30
0.0000
 40
0.0508
 41
0.0508
 70
0
  0
VERTEX
  8
51
 10
13.9933
 20
30.1608
 30
0.0000
 42
1.0000
  0
VERTEX
  8
51
 10
13.9855
 20
30.1106
 30
0.0000
  0
SEQEND
  8
0
  0
POLYLINE
  8
51
 66
1
 10
0.0000
 20
0.0000
 30
0.0000
 40
0.1016
 41
0.1016
 70
0
  0
VERTEX
  8
51
 10
15.4394
 20
29.2107
 30
0.0000
  0
VERTEX
  8
51
 10
14.3894
 20
29.2107
 30
0.0000
  0
SEQEND
  8
0
  0
POLYLINE
  8
51
 66
1
 10
0.0000
 20
0.0000
 30
0.0000
 40
0.0508
 41
0.0508
 70
0
  0
VERTEX
  8
51
 10
14.3894
 20
29.2361
 30
0.0000
 42
1.0000
  0
VERTEX
  8
51
 10
14.3894
 20
29.1853
 30
0.0000
  0
SEQEND
  8
0
  0
POLYLINE
  8
51
 66
1
 10
0.0000
 20
0.0000
 30
0.0000
 40
0.0508
 41
0.0508
 70
0
  0
VERTEX
  8
51
 10
15.4394
 20
29.1853
 30
0.0000
 42
1.0000
  0
VERTEX
  8
51
 10
15.4394
 20
29.2361
 30
0.0000
  0
SEQEND
  8
0
  0
POLYLINE
  8
51
 66
1
 10
0.0000
 20
0.0000
 30
0.0000
 40
0.1016
 41
0.1016
 70
0
  0
VERTEX
  8
51
 10
14.4144
 20
30.3607
 30
0.0000
  0
VERTEX
  8
51
 10
15.8394
 20
30.3607
 30
0.0000
  0
SEQEND
  8
0
  0
POLYLINE
  8
51
 66
1
 10
0.0000
 20
0.0000
 30
0.0000
 40
0.0508
 41
0.0508
 70
0
  0
VERTEX
  8
51
 10
15.8394
 20
30.3353
 30
0.0000
 42
1.0000
  0
VERTEX
  8
51
 10
15.8394
 20
30.3861
 30
0.0000
  0
SEQEND
  8
0
  0
POLYLINE
  8
51
 66
1
 10
0.0000
 20
0.0000
 30
0.0000
 40
0.0508
 41
0.0508
 70
0
  0
VERTEX
  8
51
 10
14.4144
 20
30.3861
 30
0.0000
 42
1.0000
  0
VERTEX
  8
51
 10
14.4144
 20
30.3353
 30
0.0000
  0
SEQEND
  8
0
  0
POLYLINE
  8
51
 66
1
 10
0.0000
 20
0.0000
 30
0.0000
 40
0.1016
 41
0.1016
 70
0
  0
VERTEX
  8
51
 10
15.7644
 20
30.1327
 30
0.0000
 42
1.0000
  0
VERTEX
  8
51
 10
15.7644
 20
30.3387
 30
0.0000
 42
1.0000
  0
VERTEX
  8
51
 10
15.7644
 20
30.1327
 30
0.0000
  0
SEQEND
  8
0
  0
INSERT
  8
51
  2
RECT
 10
15.6644
 20
29.3232
 30
0.0000
 41
0.3250
 42
0.5000
 43
1.0000
 50
270.0000
  0
INSERT
  8
51
  2
RECT
 10
15.5394
 20
30.0357
 30
0.0000
 41
0.1500
 42
0.2500
 43
1.0000
 50
270.0000
  0
INSERT
  8
51
  2
RECT
 10
15.5394
 20
29.5357
 30
0.0000
 41
0.1500
 42
0.2500
 43
1.0000
 50
270.0000
  0
INSERT
  8
51
  2
RECT
 10
15.5019
 20
29.7857
 30
0.0000
 41
0.4000
 42
0.1750
 43
1.0000
 50
270.0000
  0
INSERT
  8
51
  2
RECT
 10
14.1644
 20
29.3232
 30
0.0000
 41
0.3250
 42
0.5000
 43
1.0000
 50
270.0000
  0
INSERT
  8
51
  2
RECT
 10
14.1644
 20
30.2482
 30
0.0000
 41
0.3250
 42
0.5000
 43
1.0000
 50
270.0000
  0
INSERT
  8
51
  2
RECT
 10
14.2894
 20
29.5357
 30
0.0000
 41
0.1500
 42
0.2500
 43
1.0000
 50
270.0000
  0
INSERT
  8
51
  2
RECT
 10
14.2894
 20
30.0357
 30
0.0000
 41
0.1500
 42
0.2500
 43
1.0000
 50
270.0000
  0
INSERT
  8
51
  2
RECT
 10
14.3269
 20
29.7857
 30
0.0000
 41
0.4000
 42
0.1750
 43
1.0000
 50
270.0000
  0
INSERT
  8
21
  2
RECT
 10
15.0144
 20
29.7857
 30
0.0000
 41
0.2000
 42
0.2000
 43
1.0000
 50
270.0000
  0
INSERT
  8
51
  2
RECT
 10
15.5644
 20
30.2357
 30
0.0000
 41
0.3000
 42
0.3000
 43
1.0000
 50
270.0000
  0
INSERT
  8
51
  2
RECT
 10
15.8769
 20
30.2482
 30
0.0000
 41
0.3250
 42
0.0750
 43
1.0000
 50
270.0000
  0
INSERT
  8
31
  2
RECT
 10
13.8644
 20
29.7857
 30
0.0000
 41
1.2000
 42
1.2000
 43
1.0000
 50
270.0000
  0
INSERT
  8
31
  2
RECT
 10
15.9644
 20
29.7857
 30
0.0000
 41
1.2000
 42
1.2000
 43
1.0000
 50
270.0000
  0
POINT
  8
23
 10
14.9144
 20
26.9635
 30
0.0000
  0
POLYLINE
  8
51
 66
1
 10
0.0000
 20
0.0000
 30
0.0000
 40
0.1016
 41
0.1016
 70
0
  0
VERTEX
  8
51
 10
15.8394
 20
27.3135
 30
0.0000
 42
0.8571
  0
VERTEX
  8
51
 10
15.8394
 20
26.6135
 30
0.0000
  0
SEQEND
  8
0
  0
POLYLINE
  8
51
 66
1
 10
0.0000
 20
0.0000
 30
0.0000
 40
0.0508
 41
0.0508
 70
0
  0
VERTEX
  8
51
 10
15.8433
 20
27.2884
 30
0.0000
 42
1.0000
  0
VERTEX
  8
51
 10
15.8355
 20
27.3386
 30
0.0000
  0
SEQEND
  8
0
  0
POLYLINE
  8
51
 66
1
 10
0.0000
 20
0.0000
 30
0.0000
 40
0.0508
 41
0.0508
 70
0
  0
VERTEX
  8
51
 10
15.8355
 20
26.5884
 30
0.0000
 42
1.0000
  0
VERTEX
  8
51
 10
15.8433
 20
26.6386
 30
0.0000
  0
SEQEND
  8
0
  0
POLYLINE
  8
51
 66
1
 10
0.0000
 20
0.0000
 30
0.0000
 40
0.1016
 41
0.1016
 70
0
  0
VERTEX
  8
51
 10
13.9894
 20
26.6135
 30
0.0000
 42
0.8571
  0
VERTEX
  8
51
 10
13.9894
 20
27.3135
 30
0.0000
  0
SEQEND
  8
0
  0
POLYLINE
  8
51
 66
1
 10
0.0000
 20
0.0000
 30
0.0000
 40
0.0508
 41
0.0508
 70
0
  0
VERTEX
  8
51
 10
13.9855
 20
26.6386
 30
0.0000
 42
1.0000
  0
VERTEX
  8
51
 10
13.9933
 20
26.5884
 30
0.0000
  0
SEQEND
  8
0
  0
POLYLINE
  8
51
 66
1
 10
0.0000
 20
0.0000
 30
0.0000
 40
0.0508
 41
0.0508
 70
0
  0
VERTEX
  8
51
 10
13.9933
 20
27.3386
 30
0.0000
 42
1.0000
  0
VERTEX
  8
51
 10
13.9855
 20
27.2884
 30
0.0000
  0
SEQEND
  8
0
  0
POLYLINE
  8
51
 66
1
 10
0.0000
 20
0.0000
 30
0.0000
 40
0.1016
 41
0.1016
 70
0
  0
VERTEX
  8
51
 10
15.4394
 20
26.3885
 30
0.0000
  0
VERTEX
  8
51
 10
14.3894
 20
26.3885
 30
0.0000
  0
SEQEND
  8
0
  0
POLYLINE
  8
51
 66
1
 10
0.0000
 20
0.0000
 30
0.0000
 40
0.0508
 41
0.0508
 70
0
  0
VERTEX
  8
51
 10
14.3894
 20
26.4139
 30
0.0000
 42
1.0000
  0
VERTEX
  8
51
 10
14.3894
 20
26.3631
 30
0.0000
  0
SEQEND
  8
0
  0
POLYLINE
  8
51
 66
1
 10
0.0000
 20
0.0000
 30
0.0000
 40
0.0508
 41
0.0508
 70
0
  0
VERTEX
  8
51
 10
15.4394
 20
26.3631
 30
0.0000
 42
1.0000
  0
VERTEX
  8
51
 10
15.4394
 20
26.4139
 30
0.0000
  0
SEQEND
  8
0
  0
POLYLINE
  8
51
 66
1
 10
0.0000
 20
0.0000
 30
0.0000
 40
0.1016
 41
0.1016
 70
0
  0
VERTEX
  8
51
 10
14.4144
 20
27.5385
 30
0.0000
  0
VERTEX
  8
51
 10
15.8394
 20
27.5385
 30
0.0000
  0
SEQEND
  8
0
  0
POLYLINE
  8
51
 66
1
 10
0.0000
 20
0.0000
 30
0.0000
 40
0.0508
 41
0.0508
 70
0
  0
VERTEX
  8
51
 10
15.8394
 20
27.5131
 30
0.0000
 42
1.0000
  0
VERTEX
  8
51
 10
15.8394
 20
27.5639
 30
0.0000
  0
SEQEND
  8
0
  0
POLYLINE
  8
51
 66
1
 10
0.0000
 20
0.0000
 30
0.0000
 40
0.0508
 41
0.0508
 70
0
  0
VERTEX
  8
51
 10
14.4144
 20
27.5639
 30
0.0000
 42
1.0000
  0
VERTEX
  8
51
 10
14.4144
 20
27.5131
 30
0.0000
  0
SEQEND
  8
0
  0
POLYLINE
  8
51
 66
1
 10
0.0000
 20
0.0000
 30
0.0000
 40
0.1016
 41
0.1016
 70
0
  0
VERTEX
  8
51
 10
15.7644
 20
27.3105
 30
0.0000
 42
1.0000
  0
VERTEX
  8
51
 10
15.7644
 20
27.5165
 30
0.0000
 42
1.0000
  0
VERTEX
  8
51
 10
15.7644
 20
27.3105
 30
0.0000
  0
SEQEND
  8
0
  0
INSERT
  8
51
  2
RECT
 10
15.6644
 20
26.5010
 30
0.0000
 41
0.3250
 42
0.5000
 43
1.0000
 50
270.0000
  0
INSERT
  8
51
  2
RECT
 10
15.5394
 20
27.2135
 30
0.0000
 41
0.1500
 42
0.2500
 43
1.0000
 50
270.0000
  0
INSERT
  8
51
  2
RECT
 10
15.5394
 20
26.7135
 30
0.0000
 41
0.1500
 42
0.2500
 43
1.0000
 50
270.0000
  0
INSERT
  8
51
  2
RECT
 10
15.5019
 20
26.9635
 30
0.0000
 41
0.4000
 42
0.1750
 43
1.0000
 50
270.0000
  0
INSERT
  8
51
  2
RECT
 10
14.1644
 20
26.5010
 30
0.0000
 41
0.3250
 42
0.5000
 43
1.0000
 50
270.0000
  0
INSERT
  8
51
  2
RECT
 10
14.1644
 20
27.4260
 30
0.0000
 41
0.3250
 42
0.5000
 43
1.0000
 50
270.0000
  0
INSERT
  8
51
  2
RECT
 10
14.2894
 20
26.7135
 30
0.0000
 41
0.1500
 42
0.2500
 43
1.0000
 50
270.0000
  0
INSERT
  8
51
  2
RECT
 10
14.2894
 20
27.2135
 30
0.0000
 41
0.1500
 42
0.2500
 43
1.0000
 50
270.0000
  0
INSERT
  8
51
  2
RECT
 10
14.3269
 20
26.9635
 30
0.0000
 41
0.4000
 42
0.1750
 43
1.0000
 50
270.0000
  0
INSERT
  8
21
  2
RECT
 10
15.0144
 20
26.9635
 30
0.0000
 41
0.2000
 42
0.2000
 43
1.0000
 50
270.0000
  0
INSERT
  8
51
  2
RECT
 10
15.5644
 20
27.4135
 30
0.0000
 41
0.3000
 42
0.3000
 43
1.0000
 50
270.0000
  0
INSERT
  8
51
  2
RECT
 10
15.8769
 20
27.4260
 30
0.0000
 41
0.3250
 42
0.0750
 43
1.0000
 50
270.0000
  0
INSERT
  8
31
  2
RECT
 10
13.8644
 20
26.9635
 30
0.0000
 41
1.2000
 42
1.2000
 43
1.0000
 50
270.0000
  0
INSERT
  8
31
  2
RECT
 10
15.9644
 20
26.9635
 30
0.0000
 41
1.2000
 42
1.2000
 43
1.0000
 50
270.0000
  0
POINT
  8
23
 10
14.9144
 20
24.1413
 30
0.0000
  0
POLYLINE
  8
51
 66
1
 10
0.0000
 20
0.0000
 30
0.0000
 40
0.1016
 41
0.1016
 70
0
  0
VERTEX
  8
51
 10
15.8394
 20
24.4913
 30
0.0000
 42
0.8571
  0
VERTEX
  8
51
 10
15.8394
 20
23.7913
 30
0.0000
  0
SEQEND
  8
0
  0
POLYLINE
  8
51
 66
1
 10
0.0000
 20
0.0000
 30
0.0000
 40
0.0508
 41
0.0508
 70
0
  0
VERTEX
  8
51
 10
15.8433
 20
24.4662
 30
0.0000
 42
1.0000
  0
VERTEX
  8
51
 10
15.8355
 20
24.5164
 30
0.0000
  0
SEQEND
  8
0
  0
POLYLINE
  8
51
 66
1
 10
0.0000
 20
0.0000
 30
0.0000
 40
0.0508
 41
0.0508
 70
0
  0
VERTEX
  8
51
 10
15.8355
 20
23.7662
 30
0.0000
 42
1.0000
  0
VERTEX
  8
51
 10
15.8433
 20
23.8164
 30
0.0000
  0
SEQEND
  8
0
  0
POLYLINE
  8
51
 66
1
 10
0.0000
 20
0.0000
 30
0.0000
 40
0.1016
 41
0.1016
 70
0
  0
VERTEX
  8
51
 10
13.9894
 20
23.7913
 30
0.0000
 42
0.8571
  0
VERTEX
  8
51
 10
13.9894
 20
24.4913
 30
0.0000
  0
SEQEND
  8
0
  0
POLYLINE
  8
51
 66
1
 10
0.0000
 20
0.0000
 30
0.0000
 40
0.0508
 41
0.0508
 70
0
  0
VERTEX
  8
51
 10
13.9855
 20
23.8164
 30
0.0000
 42
1.0000
  0
VERTEX
  8
51
 10
13.9933
 20
23.7662
 30
0.0000
  0
SEQEND
  8
0
  0
POLYLINE
  8
51
 66
1
 10
0.0000
 20
0.0000
 30
0.0000
 40
0.0508
 41
0.0508
 70
0
  0
VERTEX
  8
51
 10
13.9933
 20
24.5164
 30
0.0000
 42
1.0000
  0
VERTEX
  8
51
 10
13.9855
 20
24.4662
 30
0.0000
  0
SEQEND
  8
0
  0
POLYLINE
  8
51
 66
1
 10
0.0000
 20
0.0000
 30
0.0000
 40
0.1016
 41
0.1016
 70
0
  0
VERTEX
  8
51
 10
15.4394
 20
23.5663
 30
0.0000
  0
VERTEX
  8
51
 10
14.3894
 20
23.5663
 30
0.0000
  0
SEQEND
  8
0
  0
POLYLINE
  8
51
 66
1
 10
0.0000
 20
0.0000
 30
0.0000
 40
0.0508
 41
0.0508
 70
0
  0
VERTEX
  8
51
 10
14.3894
 20
23.5917
 30
0.0000
 42
1.0000
  0
VERTEX
  8
51
 10
14.3894
 20
23.5409
 30
0.0000
  0
SEQEND
  8
0
  0
POLYLINE
  8
51
 66
1
 10
0.0000
 20
0.0000
 30
0.0000
 40
0.0508
 41
0.0508
 70
0
  0
VERTEX
  8
51
 10
15.4394
 20
23.5409
 30
0.0000
 42
1.0000
  0
VERTEX
  8
51
 10
15.4394
 20
23.5917
 30
0.0000
  0
SEQEND
  8
0
  0
POLYLINE
  8
51
 66
1
 10
0.0000
 20
0.0000
 30
0.0000
 40
0.1016
 41
0.1016
 70
0
  0
VERTEX
  8
51
 10
14.4144
 20
24.7163
 30
0.0000
  0
VERTEX
  8
51
 10
15.8394
 20
24.7163
 30
0.0000
  0
SEQEND
  8
0
  0
POLYLINE
  8
51
 66
1
 10
0.0000
 20
0.0000
 30
0.0000
 40
0.0508
 41
0.0508
 70
0
  0
VERTEX
  8
51
 10
15.8394
 20
24.6909
 30
0.0000
 42
1.0000
  0
VERTEX
  8
51
 10
15.8394
 20
24.7417
 30
0.0000
  0
SEQEND
  8
0
  0
POLYLINE
  8
51
 66
1
 10
0.0000
 20
0.0000
 30
0.0000
 40
0.0508
 41
0.0508
 70
0
  0
VERTEX
  8
51
 10
14.4144
 20
24.7417
 30
0.0000
 42
1.0000
  0
VERTEX
  8
51
 10
14.4144
 20
24.6909
 30
0.0000
  0
SEQEND
  8
0
  0
POLYLINE
  8
51
 66
1
 10
0.0000
 20
0.0000
 30
0.0000
 40
0.1016
 41
0.1016
 70
0
  0
VERTEX
  8
51
 10
15.7644
 20
24.4883
 30
0.0000
 42
1.0000
  0
VERTEX
  8
51
 10
15.7644
 20
24.6943
 30
0.0000
 42
1.0000
  0
VERTEX
  8
51
 10
15.7644
 20
24.4883
 30
0.0000
  0
SEQEND
  8
0
  0
INSERT
  8
51
  2
RECT
 10
15.6644
 20
23.6788
 30
0.0000
 41
0.3250
 42
0.5000
 43
1.0000
 50
270.0000
  0
INSERT
  8
51
  2
RECT
 10
15.5394
 20
24.3913
 30
0.0000
 41
0.1500
 42
0.2500
 43
1.0000
 50
270.0000
  0
INSERT
  8
51
  2
RECT
 10
15.5394
 20
23.8913
 30
0.0000
 41
0.1500
 42
0.2500
 43
1.0000
 50
270.0000
  0
INSERT
  8
51
  2
RECT
 10
15.5019
 20
24.1413
 30
0.0000
 41
0.4000
 42
0.1750
 43
1.0000
 50
270.0000
  0
INSERT
  8
51
  2
RECT
 10
14.1644
 20
23.6788
 30
0.0000
 41
0.3250
 42
0.5000
 43
1.0000
 50
270.0000
  0
INSERT
  8
51
  2
RECT
 10
14.1644
 20
24.6038
 30
0.0000
 41
0.3250
 42
0.5000
 43
1.0000
 50
270.0000
  0
INSERT
  8
51
  2
RECT
 10
14.2894
 20
23.8913
 30
0.0000
 41
0.1500
 42
0.2500
 43
1.0000
 50
270.0000
  0
INSERT
  8
51
  2
RECT
 10
14.2894
 20
24.3913
 30
0.0000
 41
0.1500
 42
0.2500
 43
1.0000
 50
270.0000
  0
INSERT
  8
51
  2
RECT
 10
14.3269
 20
24.1413
 30
0.0000
 41
0.4000
 42
0.1750
 43
1.0000
 50
270.0000
  0
INSERT
  8
21
  2
RECT
 10
15.0144
 20
24.1413
 30
0.0000
 41
0.2000
 42
0.2000
 43
1.0000
 50
270.0000
  0
INSERT
  8
51
  2
RECT
 10
15.5644
 20
24.5913
 30
0.0000
 41
0.3000
 42
0.3000
 43
1.0000
 50
270.0000
  0
INSERT
  8
51
  2
RECT
 10
15.8769
 20
24.6038
 30
0.0000
 41
0.3250
 42
0.0750
 43
1.0000
 50
270.0000
  0
INSERT
  8
31
  2
RECT
 10
13.8644
 20
24.1413
 30
0.0000
 41
1.2000
 42
1.2000
 43
1.0000
 50
270.0000
  0
INSERT
  8
31
  2
RECT
 10
15.9644
 20
24.1413
 30
0.0000
 41
1.2000
 42
1.2000
 43
1.0000
 50
270.0000
  0
POINT
  8
23
 10
14.9144
 20
21.3191
 30
0.0000
  0
POLYLINE
  8
51
 66
1
 10
0.0000
 20
0.0000
 30
0.0000
 40
0.1016
 41
0.1016
 70
0
  0
VERTEX
  8
51
 10
15.8394
 20
21.6691
 30
0.0000
 42
0.8571
  0
VERTEX
  8
51
 10
15.8394
 20
20.9691
 30
0.0000
  0
SEQEND
  8
0
  0
POLYLINE
  8
51
 66
1
 10
0.0000
 20
0.0000
 30
0.0000
 40
0.0508
 41
0.0508
 70
0
  0
VERTEX
  8
51
 10
15.8433
 20
21.6440
 30
0.0000
 42
1.0000
  0
VERTEX
  8
51
 10
15.8355
 20
21.6942
 30
0.0000
  0
SEQEND
  8
0
  0
POLYLINE
  8
51
 66
1
 10
0.0000
 20
0.0000
 30
0.0000
 40
0.0508
 41
0.0508
 70
0
  0
VERTEX
  8
51
 10
15.8355
 20
20.9440
 30
0.0000
 42
1.0000
  0
VERTEX
  8
51
 10
15.8433
 20
20.9942
 30
0.0000
  0
SEQEND
  8
0
  0
POLYLINE
  8
51
 66
1
 10
0.0000
 20
0.0000
 30
0.0000
 40
0.1016
 41
0.1016
 70
0
  0
VERTEX
  8
51
 10
13.9894
 20
20.9691
 30
0.0000
 42
0.8571
  0
VERTEX
  8
51
 10
13.9894
 20
21.6691
 30
0.0000
  0
SEQEND
  8
0
  0
POLYLINE
  8
51
 66
1
 10
0.0000
 20
0.0000
 30
0.0000
 40
0.0508
 41
0.0508
 70
0
  0
VERTEX
  8
51
 10
13.9855
 20
20.9942
 30
0.0000
 42
1.0000
  0
VERTEX
  8
51
 10
13.9933
 20
20.9440
 30
0.0000
  0
SEQEND
  8
0
  0
POLYLINE
  8
51
 66
1
 10
0.0000
 20
0.0000
 30
0.0000
 40
0.0508
 41
0.0508
 70
0
  0
VERTEX
  8
51
 10
13.9933
 20
21.6942
 30
0.0000
 42
1.0000
  0
VERTEX
  8
51
 10
13.9855
 20
21.6440
 30
0.0000
  0
SEQEND
  8
0
  0
POLYLINE
  8
51
 66
1
 10
0.0000
 20
0.0000
 30
0.0000
 40
0.1016
 41
0.1016
 70
0
  0
VERTEX
  8
51
 10
15.4394
 20
20.7441
 30
0.0000
  0
VERTEX
  8
51
 10
14.3894
 20
20.7441
 30
0.0000
  0
SEQEND
  8
0
  0
POLYLINE
  8
51
 66
1
 10
0.0000
 20
0.0000
 30
0.0000
 40
0.0508
 41
0.0508
 70
0
  0
VERTEX
  8
51
 10
14.3894
 20
20.7695
 30
0.0000
 42
1.0000
  0
VERTEX
  8
51
 10
14.3894
 20
20.7187
 30
0.0000
  0
SEQEND
  8
0
  0
POLYLINE
  8
51
 66
1
 10
0.0000
 20
0.0000
 30
0.0000
 40
0.0508
 41
0.0508
 70
0
  0
VERTEX
  8
51
 10
15.4394
 20
20.7187
 30
0.0000
 42
1.0000
  0
VERTEX
  8
51
 10
15.4394
 20
20.7695
 30
0.0000
  0
SEQEND
  8
0
  0
POLYLINE
  8
51
 66
1
 10
0.0000
 20
0.0000
 30
0.0000
 40
0.1016
 41
0.1016
 70
0
  0
VERTEX
  8
51
 10
14.4144
 20
21.8941
 30
0.0000
  0
VERTEX
  8
51
 10
15.8394
 20
21.8941
 30
0.0000
  0
SEQEND
  8
0
  0
POLYLINE
  8
51
 66
1
 10
0.0000
 20
0.0000
 30
0.0000
 40
0.0508
 41
0.0508
 70
0
  0
VERTEX
  8
51
 10
15.8394
 20
21.8687
 30
0.0000
 42
1.0000
  0
VERTEX
  8
51
 10
15.8394
 20
21.9195
 30
0.0000
  0
SEQEND
  8
0
  0
POLYLINE
  8
51
 66
1
 10
0.0000
 20
0.0000
 30
0.0000
 40
0.0508
 41
0.0508
 70
0
  0
VERTEX
  8
51
 10
14.4144
 20
21.9195
 30
0.0000
 42
1.0000
  0
VERTEX
  8
51
 10
14.4144
 20
21.8687
 30
0.0000
  0
SEQEND
  8
0
  0
POLYLINE
  8
51
 66
1
 10
0.0000
 20
0.0000
 30
0.0000
 40
0.1016
 41
0.1016
 70
0
  0
VERTEX
  8
51
 10
15.7644
 20
21.6661
 30
0.0000
 42
1.0000
  0
VERTEX
  8
51
 10
15.7644
 20
21.8721
 30
0.0000
 42
1.0000
  0
VERTEX
  8
51
 10
15.7644
 20
21.6661
 30
0.0000
  0
SEQEND
  8
0
  0
INSERT
  8
51
  2
RECT
 10
15.6644
 20
20.8566
 30
0.0000
 41
0.3250
 42
0.5000
 43
1.0000
 50
270.0000
  0
INSERT
  8
51
  2
RECT
 10
15.5394
 20
21.5691
 30
0.0000
 41
0.1500
 42
0.2500
 43
1.0000
 50
270.0000
  0
INSERT
  8
51
  2
RECT
 10
15.5394
 20
21.0691
 30
0.0000
 41
0.1500
 42
0.2500
 43
1.0000
 50
270.0000
  0
INSERT
  8
51
  2
RECT
 10
15.5019
 20
21.3191
 30
0.0000
 41
0.4000
 42
0.1750
 43
1.0000
 50
270.0000
  0
INSERT
  8
51
  2
RECT
 10
14.1644
 20
20.8566
 30
0.0000
 41
0.3250
 42
0.5000
 43
1.0000
 50
270.0000
  0
INSERT
  8
51
  2
RECT
 10
14.1644
 20
21.7816
 30
0.0000
 41
0.3250
 42
0.5000
 43
1.0000
 50
270.0000
  0
INSERT
  8
51
  2
RECT
 10
14.2894
 20
21.0691
 30
0.0000
 41
0.1500
 42
0.2500
 43
1.0000
 50
270.0000
  0
INSERT
  8
51
  2
RECT
 10
14.2894
 20
21.5691
 30
0.0000
 41
0.1500
 42
0.2500
 43
1.0000
 50
270.0000
  0
INSERT
  8
51
  2
RECT
 10
14.3269
 20
21.3191
 30
0.0000
 41
0.4000
 42
0.1750
 43
1.0000
 50
270.0000
  0
INSERT
  8
21
  2
RECT
 10
15.0144
 20
21.3191
 30
0.0000
 41
0.2000
 42
0.2000
 43
1.0000
 50
270.0000
  0
INSERT
  8
51
  2
RECT
 10
15.5644
 20
21.7691
 30
0.0000
 41
0.3000
 42
0.3000
 43
1.0000
 50
270.0000
  0
INSERT
  8
51
  2
RECT
 10
15.8769
 20
21.7816
 30
0.0000
 41
0.3250
 42
0.0750
 43
1.0000
 50
270.0000
  0
INSERT
  8
31
  2
RECT
 10
13.8644
 20
21.3191
 30
0.0000
 41
1.2000
 42
1.2000
 43
1.0000
 50
270.0000
  0
INSERT
  8
31
  2
RECT
 10
15.9644
 20
21.3191
 30
0.0000
 41
1.2000
 42
1.2000
 43
1.0000
 50
270.0000
  0
POINT
  8
23
 10
14.9144
 20
18.4968
 30
0.0000
  0
POLYLINE
  8
51
 66
1
 10
0.0000
 20
0.0000
 30
0.0000
 40
0.1016
 41
0.1016
 70
0
  0
VERTEX
  8
51
 10
15.8394
 20
18.8468
 30
0.0000
 42
0.8571
  0
VERTEX
  8
51
 10
15.8394
 20
18.1468
 30
0.0000
  0
SEQEND
  8
0
  0
POLYLINE
  8
51
 66
1
 10
0.0000
 20
0.0000
 30
0.0000
 40
0.0508
 41
0.0508
 70
0
  0
VERTEX
  8
51
 10
15.8433
 20
18.8217
 30
0.0000
 42
1.0000
  0
VERTEX
  8
51
 10
15.8355
 20
18.8719
 30
0.0000
  0
SEQEND
  8
0
  0
POLYLINE
  8
51
 66
1
 10
0.0000
 20
0.0000
 30
0.0000
 40
0.0508
 41
0.0508
 70
0
  0
VERTEX
  8
51
 10
15.8355
 20
18.1217
 30
0.0000
 42
1.0000
  0
VERTEX
  8
51
 10
15.8433
 20
18.1719
 30
0.0000
  0
SEQEND
  8
0
  0
POLYLINE
  8
51
 66
1
 10
0.0000
 20
0.0000
 30
0.0000
 40
0.1016
 41
0.1016
 70
0
  0
VERTEX
  8
51
 10
13.9894
 20
18.1468
 30
0.0000
 42
0.8571
  0
VERTEX
  8
51
 10
13.9894
 20
18.8468
 30
0.0000
  0
SEQEND
  8
0
  0
POLYLINE
  8
51
 66
1
 10
0.0000
 20
0.0000
 30
0.0000
 40
0.0508
 41
0.0508
 70
0
  0
VERTEX
  8
51
 10
13.9855
 20
18.1719
 30
0.0000
 42
1.0000
  0
VERTEX
  8
51
 10
13.9933
 20
18.1217
 30
0.0000
  0
SEQEND
  8
0
  0
POLYLINE
  8
51
 66
1
 10
0.0000
 20
0.0000
 30
0.0000
 40
0.0508
 41
0.0508
 70
0
  0
VERTEX
  8
51
 10
13.9933
 20
18.8719
 30
0.0000
 42
1.0000
  0
VERTEX
  8
51
 10
13.9855
 20
18.8217
 30
0.0000
  0
SEQEND
  8
0
  0
POLYLINE
  8
51
 66
1
 10
0.0000
 20
0.0000
 30
0.0000
 40
0.1016
 41
0.1016
 70
0
  0
VERTEX
  8
51
 10
15.4394
 20
17.9218
 30
0.0000
  0
VERTEX
  8
51
 10
14.3894
 20
17.9218
 30
0.0000
  0
SEQEND
  8
0
  0
POLYLINE
  8
51
 66
1
 10
0.0000
 20
0.0000
 30
0.0000
 40
0.0508
 41
0.0508
 70
0
  0
VERTEX
  8
51
 10
14.3894
 20
17.9472
 30
0.0000
 42
1.0000
  0
VERTEX
  8
51
 10
14.3894
 20
17.8964
 30
0.0000
  0
SEQEND
  8
0
  0
POLYLINE
  8
51
 66
1
 10
0.0000
 20
0.0000
 30
0.0000
 40
0.0508
 41
0.0508
 70
0
  0
VERTEX
  8
51
 10
15.4394
 20
17.8964
 30
0.0000
 42
1.0000
  0
VERTEX
  8
51
 10
15.4394
 20
17.9472
 30
0.0000
  0
SEQEND
  8
0
  0
POLYLINE
  8
51
 66
1
 10
0.0000
 20
0.0000
 30
0.0000
 40
0.1016
 41
0.1016
 70
0
  0
VERTEX
  8
51
 10
14.4144
 20
19.0718
 30
0.0000
  0
VERTEX
  8
51
 10
15.8394
 20
19.0718
 30
0.0000
  0
SEQEND
  8
0
  0
POLYLINE
  8
51
 66
1
 10
0.0000
 20
0.0000
 30
0.0000
 40
0.0508
 41
0.0508
 70
0
  0
VERTEX
  8
51
 10
15.8394
 20
19.0464
 30
0.0000
 42
1.0000
  0
VERTEX
  8
51
 10
15.8394
 20
19.0972
 30
0.0000
  0
SEQEND
  8
0
  0
POLYLINE
  8
51
 66
1
 10
0.0000
 20
0.0000
 30
0.0000
 40
0.0508
 41
0.0508
 70
0
  0
VERTEX
  8
51
 10
14.4144
 20
19.0972
 30
0.0000
 42
1.0000
  0
VERTEX
  8
51
 10
14.4144
 20
19.0464
 30
0.0000
  0
SEQEND
  8
0
  0
POLYLINE
  8
51
 66
1
 10
0.0000
 20
0.0000
 30
0.0000
 40
0.1016
 41
0.1016
 70
0
  0
VERTEX
  8
51
 10
15.7644
 20
18.8438
 30
0.0000
 42
1.0000
  0
VERTEX
  8
51
 10
15.7644
 20
19.0498
 30
0.0000
 42
1.0000
  0
VERTEX
  8
51
 10
15.7644
 20
18.8438
 30
0.0000
  0
SEQEND
  8
0
  0
INSERT
  8
51
  2
RECT
 10
15.6644
 20
18.0343
 30
0.0000
 41
0.3250
 42
0.5000
 43
1.0000
 50
270.0000
  0
INSERT
  8
51
  2
RECT
 10
15.5394
 20
18.7468
 30
0.0000
 41
0.1500
 42
0.2500
 43
1.0000
 50
270.0000
  0
INSERT
  8
51
  2
RECT
 10
15.5394
 20
18.2468
 30
0.0000
 41
0.1500
 42
0.2500
 43
1.0000
 50
270.0000
  0
INSERT
  8
51
  2
RECT
 10
15.5019
 20
18.4968
 30
0.0000
 41
0.4000
 42
0.1750
 43
1.0000
 50
270.0000
  0
INSERT
  8
51
  2
RECT
 10
14.1644
 20
18.0343
 30
0.0000
 41
0.3250
 42
0.5000
 43
1.0000
 50
270.0000
  0
INSERT
  8
51
  2
RECT
 10
14.1644
 20
18.9593
 30
0.0000
 41
0.3250
 42
0.5000
 43
1.0000
 50
270.0000
  0
INSERT
  8
51
  2
RECT
 10
14.2894
 20
18.2468
 30
0.0000
 41
0.1500
 42
0.2500
 43
1.0000
 50
270.0000
  0
INSERT
  8
51
  2
RECT
 10
14.2894
 20
18.7468
 30
0.0000
 41
0.1500
 42
0.2500
 43
1.0000
 50
270.0000
  0
INSERT
  8
51
  2
RECT
 10
14.3269
 20
18.4968
 30
0.0000
 41
0.4000
 42
0.1750
 43
1.0000
 50
270.0000
  0
INSERT
  8
21
  2
RECT
 10
15.0144
 20
18.4968
 30
0.0000
 41
0.2000
 42
0.2000
 43
1.0000
 50
270.0000
  0
INSERT
  8
51
  2
RECT
 10
15.5644
 20
18.9468
 30
0.0000
 41
0.3000
 42
0.3000
 43
1.0000
 50
270.0000
  0
INSERT
  8
51
  2
RECT
 10
15.8769
 20
18.9593
 30
0.0000
 41
0.3250
 42
0.0750
 43
1.0000
 50
270.0000
  0
INSERT
  8
31
  2
RECT
 10
13.8644
 20
18.4968
 30
0.0000
 41
1.2000
 42
1.2000
 43
1.0000
 50
270.0000
  0
INSERT
  8
31
  2
RECT
 10
15.9644
 20
18.4968
 30
0.0000
 41
1.2000
 42
1.2000
 43
1.0000
 50
270.0000
  0
POINT
  8
23
 10
14.9144
 20
15.6746
 30
0.0000
  0
POLYLINE
  8
51
 66
1
 10
0.0000
 20
0.0000
 30
0.0000
 40
0.1016
 41
0.1016
 70
0
  0
VERTEX
  8
51
 10
15.8394
 20
16.0246
 30
0.0000
 42
0.8571
  0
VERTEX
  8
51
 10
15.8394
 20
15.3246
 30
0.0000
  0
SEQEND
  8
0
  0
POLYLINE
  8
51
 66
1
 10
0.0000
 20
0.0000
 30
0.0000
 40
0.0508
 41
0.0508
 70
0
  0
VERTEX
  8
51
 10
15.8433
 20
15.9995
 30
0.0000
 42
1.0000
  0
VERTEX
  8
51
 10
15.8355
 20
16.0497
 30
0.0000
  0
SEQEND
  8
0
  0
POLYLINE
  8
51
 66
1
 10
0.0000
 20
0.0000
 30
0.0000
 40
0.0508
 41
0.0508
 70
0
  0
VERTEX
  8
51
 10
15.8355
 20
15.2995
 30
0.0000
 42
1.0000
  0
VERTEX
  8
51
 10
15.8433
 20
15.3497
 30
0.0000
  0
SEQEND
  8
0
  0
POLYLINE
  8
51
 66
1
 10
0.0000
 20
0.0000
 30
0.0000
 40
0.1016
 41
0.1016
 70
0
  0
VERTEX
  8
51
 10
13.9894
 20
15.3246
 30
0.0000
 42
0.8571
  0
VERTEX
  8
51
 10
13.9894
 20
16.0246
 30
0.0000
  0
SEQEND
  8
0
  0
POLYLINE
  8
51
 66
1
 10
0.0000
 20
0.0000
 30
0.0000
 40
0.0508
 41
0.0508
 70
0
  0
VERTEX
  8
51
 10
13.9855
 20
15.3497
 30
0.0000
 42
1.0000
  0
VERTEX
  8
51
 10
13.9933
 20
15.2995
 30
0.0000
  0
SEQEND
  8
0
  0
POLYLINE
  8
51
 66
1
 10
0.0000
 20
0.0000
 30
0.0000
 40
0.0508
 41
0.0508
 70
0
  0
VERTEX
  8
51
 10
13.9933
 20
16.0497
 30
0.0000
 42
1.0000
  0
VERTEX
  8
51
 10
13.9855
 20
15.9995
 30
0.0000
  0
SEQEND
  8
0
  0
POLYLINE
  8
51
 66
1
 10
0.0000
 20
0.0000
 30
0.0000
 40
0.1016
 41
0.1016
 70
0
  0
VERTEX
  8
51
 10
15.4394
 20
15.0996
 30
0.0000
  0
VERTEX
  8
51
 10
14.3894
 20
15.0996
 30
0.0000
  0
SEQEND
  8
0
  0
POLYLINE
  8
51
 66
1
 10
0.0000
 20
0.0000
 30
0.0000
 40
0.0508
 41
0.0508
 70
0
  0
VERTEX
  8
51
 10
14.3894
 20
15.1250
 30
0.0000
 42
1.0000
  0
VERTEX
  8
51
 10
14.3894
 20
15.0742
 30
0.0000
  0
SEQEND
  8
0
  0
POLYLINE
  8
51
 66
1
 10
0.0000
 20
0.0000
 30
0.0000
 40
0.0508
 41
0.0508
 70
0
  0
VERTEX
  8
51
 10
15.4394
 20
15.0742
 30
0.0000
 42
1.0000
  0
VERTEX
  8
51
 10
15.4394
 20
15.1250
 30
0.0000
  0
SEQEND
  8
0
  0
POLYLINE
  8
51
 66
1
 10
0.0000
 20
0.0000
 30
0.0000
 40
0.1016
 41
0.1016
 70
0
  0
VERTEX
  8
51
 10
14.4144
 20
16.2496
 30
0.0000
  0
VERTEX
  8
51
 10
15.8394
 20
16.2496
 30
0.0000
  0
SEQEND
  8
0
  0
POLYLINE
  8
51
 66
1
 10
0.0000
 20
0.0000
 30
0.0000
 40
0.0508
 41
0.0508
 70
0
  0
VERTEX
  8
51
 10
15.8394
 20
16.2242
 30
0.0000
 42
1.0000
  0
VERTEX
  8
51
 10
15.8394
 20
16.2750
 30
0.0000
  0
SEQEND
  8
0
  0
POLYLINE
  8
51
 66
1
 10
0.0000
 20
0.0000
 30
0.0000
 40
0.0508
 41
0.0508
 70
0
  0
VERTEX
  8
51
 10
14.4144
 20
16.2750
 30
0.0000
 42
1.0000
  0
VERTEX
  8
51
 10
14.4144
 20
16.2242
 30
0.0000
  0
SEQEND
  8
0
  0
POLYLINE
  8
51
 66
1
 10
0.0000
 20
0.0000
 30
0.0000
 40
0.1016
 41
0.1016
 70
0
  0
VERTEX
  8
51
 10
15.7644
 20
16.0216
 30
0.0000
 42
1.0000
  0
VERTEX
  8
51
 10
15.7644
 20
16.2276
 30
0.0000
 42
1.0000
  0
VERTEX
  8
51
 10
15.7644
 20
16.0216
 30
0.0000
  0
SEQEND
  8
0
  0
INSERT
  8
51
  2
RECT
 10
15.6644
 20
15.2121
 30
0.0000
 41
0.3250
 42
0.5000
 43
1.0000
 50
270.0000
  0
INSERT
  8
51
  2
RECT
 10
15.5394
 20
15.9246
 30
0.0000
 41
0.1500
 42
0.2500
 43
1.0000
 50
270.0000
  0
INSERT
  8
51
  2
RECT
 10
15.5394
 20
15.4246
 30
0.0000
 41
0.1500
 42
0.2500
 43
1.0000
 50
270.0000
  0
INSERT
  8
51
  2
RECT
 10
15.5019
 20
15.6746
 30
0.0000
 41
0.4000
 42
0.1750
 43
1.0000
 50
270.0000
  0
INSERT
  8
51
  2
RECT
 10
14.1644
 20
15.2121
 30
0.0000
 41
0.3250
 42
0.5000
 43
1.0000
 50
270.0000
  0
INSERT
  8
51
  2
RECT
 10
14.1644
 20
16.1371
 30
0.0000
 41
0.3250
 42
0.5000
 43
1.0000
 50
270.0000
  0
INSERT
  8
51
  2
RECT
 10
14.2894
 20
15.4246
 30
0.0000
 41
0.1500
 42
0.2500
 43
1.0000
 50
270.0000
  0
INSERT
  8
51
  2
RECT
 10
14.2894
 20
15.9246
 30
0.0000
 41
0.1500
 42
0.2500
 43
1.0000
 50
270.0000
  0
INSERT
  8
51
  2
RECT
 10
14.3269
 20
15.6746
 30
0.0000
 41
0.4000
 42
0.1750
 43
1.0000
 50
270.0000
  0
INSERT
  8
21
  2
RECT
 10
15.0144
 20
15.6746
 30
0.0000
 41
0.2000
 42
0.2000
 43
1.0000
 50
270.0000
  0
INSERT
  8
51
  2
RECT
 10
15.5644
 20
16.1246
 30
0.0000
 41
0.3000
 42
0.3000
 43
1.0000
 50
270.0000
  0
INSERT
  8
51
  2
RECT
 10
15.8769
 20
16.1371
 30
0.0000
 41
0.3250
 42
0.0750
 43
1.0000
 50
270.0000
  0
INSERT
  8
31
  2
RECT
 10
13.8644
 20
15.6746
 30
0.0000
 41
1.2000
 42
1.2000
 43
1.0000
 50
270.0000
  0
INSERT
  8
31
  2
RECT
 10
15.9644
 20
15.6746
 30
0.0000
 41
1.2000
 42
1.2000
 43
1.0000
 50
270.0000
  0
POINT
  8
23
 10
23.9144
 20
4.0414
 30
0.0000
  0
POLYLINE
  8
51
 66
1
 10
0.0000
 20
0.0000
 30
0.0000
 40
0.1016
 41
0.1016
 70
0
  0
VERTEX
  8
51
 10
22.9894
 20
3.6914
 30
0.0000
 42
0.8571
  0
VERTEX
  8
51
 10
22.9894
 20
4.3914
 30
0.0000
  0
SEQEND
  8
0
  0
POLYLINE
  8
51
 66
1
 10
0.0000
 20
0.0000
 30
0.0000
 40
0.0508
 41
0.0508
 70
0
  0
VERTEX
  8
51
 10
22.9855
 20
3.7165
 30
0.0000
 42
1.0000
  0
VERTEX
  8
51
 10
22.9933
 20
3.6663
 30
0.0000
  0
SEQEND
  8
0
  0
POLYLINE
  8
51
 66
1
 10
0.0000
 20
0.0000
 30
0.0000
 40
0.0508
 41
0.0508
 70
0
  0
VERTEX
  8
51
 10
22.9933
 20
4.4165
 30
0.0000
 42
1.0000
  0
VERTEX
  8
51
 10
22.9855
 20
4.3663
 30
0.0000
  0
SEQEND
  8
0
  0
POLYLINE
  8
51
 66
1
 10
0.0000
 20
0.0000
 30
0.0000
 40
0.1016
 41
0.1016
 70
0
  0
VERTEX
  8
51
 10
24.8394
 20
4.3914
 30
0.0000
 42
0.8571
  0
VERTEX
  8
51
 10
24.8394
 20
3.6914
 30
0.0000
  0
SEQEND
  8
0
  0
POLYLINE
  8
51
 66
1
 10
0.0000
 20
0.0000
 30
0.0000
 40
0.0508
 41
0.0508
 70
0
  0
VERTEX
  8
51
 10
24.8433
 20
4.3663
 30
0.0000
 42
1.0000
  0
VERTEX
  8
51
 10
24.8355
 20
4.4165
 30
0.0000
  0
SEQEND
  8
0
  0
POLYLINE
  8
51
 66
1
 10
0.0000
 20
0.0000
 30
0.0000
 40
0.0508
 41
0.0508
 70
0
  0
VERTEX
  8
51
 10
24.8355
 20
3.6663
 30
0.0000
 42
1.0000
  0
VERTEX
  8
51
 10
24.8433
 20
3.7165
 30
0.0000
  0
SEQEND
  8
0
  0
POLYLINE
  8
51
 66
1
 10
0.0000
 20
0.0000
 30
0.0000
 40
0.1016
 41
0.1016
 70
0
  0
VERTEX
  8
51
 10
23.3894
 20
4.6164
 30
0.0000
  0
VERTEX
  8
51
 10
24.4394
 20
4.6164
 30
0.0000
  0
SEQEND
  8
0
  0
POLYLINE
  8
51
 66
1
 10
0.0000
 20
0.0000
 30
0.0000
 40
0.0508
 41
0.0508
 70
0
  0
VERTEX
  8
51
 10
24.4394
 20
4.5910
 30
0.0000
 42
1.0000
  0
VERTEX
  8
51
 10
24.4394
 20
4.6418
 30
0.0000
  0
SEQEND
  8
0
  0
POLYLINE
  8
51
 66
1
 10
0.0000
 20
0.0000
 30
0.0000
 40
0.0508
 41
0.0508
 70
0
  0
VERTEX
  8
51
 10
23.3894
 20
4.6418
 30
0.0000
 42
1.0000
  0
VERTEX
  8
51
 10
23.3894
 20
4.5910
 30
0.0000
  0
SEQEND
  8
0
  0
POLYLINE
  8
51
 66
1
 10
0.0000
 20
0.0000
 30
0.0000
 40
0.1016
 41
0.1016
 70
0
  0
VERTEX
  8
51
 10
24.4144
 20
3.4664
 30
0.0000
  0
VERTEX
  8
51
 10
22.9894
 20
3.4664
 30
0.0000
  0
SEQEND
  8
0
  0
POLYLINE
  8
51
 66
1
 10
0.0000
 20
0.0000
 30
0.0000
 40
0.0508
 41
0.0508
 70
0
  0
VERTEX
  8
51
 10
22.9894
 20
3.4918
 30
0.0000
 42
1.0000
  0
VERTEX
  8
51
 10
22.9894
 20
3.4410
 30
0.0000
  0
SEQEND
  8
0
  0
POLYLINE
  8
51
 66
1
 10
0.0000
 20
0.0000
 30
0.0000
 40
0.0508
 41
0.0508
 70
0
  0
VERTEX
  8
51
 10
24.4144
 20
3.4410
 30
0.0000
 42
1.0000
  0
VERTEX
  8
51
 10
24.4144
 20
3.4918
 30
0.0000
  0
SEQEND
  8
0
  0
POLYLINE
  8
51
 66
1
 10
0.0000
 20
0.0000
 30
0.0000
 40
0.1016
 41
0.1016
 70
0
  0
VERTEX
  8
51
 10
23.0644
 20
3.4884
 30
0.0000
 42
1.0000
  0
VERTEX
  8
51
 10
23.0644
 20
3.6944
 30
0.0000
 42
1.0000
  0
VERTEX
  8
51
 10
23.0644
 20
3.4884
 30
0.0000
  0
SEQEND
  8
0
  0
INSERT
  8
51
  2
RECT
 10
23.1644
 20
4.5039
 30
0.0000
 41
0.3250
 42
0.5000
 43
1.0000
 50
90.0000
  0
INSERT
  8
51
  2
RECT
 10
23.2894
 20
3.7914
 30
0.0000
 41
0.1500
 42
0.2500
 43
1.0000
 50
90.0000
  0
INSERT
  8
51
  2
RECT
 10
23.2894
 20
4.2914
 30
0.0000
 41
0.1500
 42
0.2500
 43
1.0000
 50
90.0000
  0
INSERT
  8
51
  2
RECT
 10
23.3269
 20
4.0414
 30
0.0000
 41
0.4000
 42
0.1750
 43
1.0000
 50
90.0000
  0
INSERT
  8
51
  2
RECT
 10
24.6644
 20
4.5039
 30
0.0000
 41
0.3250
 42
0.5000
 43
1.0000
 50
90.0000
  0
INSERT
  8
51
  2
RECT
 10
24.6644
 20
3.5789
 30
0.0000
 41
0.3250
 42
0.5000
 43
1.0000
 50
90.0000
  0
INSERT
  8
51
  2
RECT
 10
24.5394
 20
4.2914
 30
0.0000
 41
0.1500
 42
0.2500
 43
1.0000
 50
90.0000
  0
INSERT
  8
51
  2
RECT
 10
24.5394
 20
3.7914
 30
0.0000
 41
0.1500
 42
0.2500
 43
1.0000
 50
90.0000
  0
INSERT
  8
51
  2
RECT
 10
24.5019
 20
4.0414
 30
0.0000
 41
0.4000
 42
0.1750
 43
1.0000
 50
90.0000
  0
INSERT
  8
21
  2
RECT
 10
23.8144
 20
4.0414
 30
0.0000
 41
0.2000
 42
0.2000
 43
1.0000
 50
90.0000
  0
INSERT
  8
51
  2
RECT
 10
23.2644
 20
3.5914
 30
0.0000
 41
0.3000
 42
0.3000
 43
1.0000
 50
90.0000
  0
INSERT
  8
51
  2
RECT
 10
22.9519
 20
3.5789
 30
0.0000
 41
0.3250
 42
0.0750
 43
1.0000
 50
90.0000
  0
INSERT
  8
31
  2
RECT
 10
24.9644
 20
4.0414
 30
0.0000
 41
1.2000
 42
1.2000
 43
1.0000
 50
90.0000
  0
INSERT
  8
31
  2
RECT
 10
22.8644
 20
4.0414
 30
0.0000
 41
1.2000
 42
1.2000
 43
1.0000
 50
90.0000
  0
POINT
  8
23
 10
14.9144
 20
4.0414
 30
0.0000
  0
POLYLINE
  8
51
 66
1
 10
0.0000
 20
0.0000
 30
0.0000
 40
0.1016
 41
0.1016
 70
0
  0
VERTEX
  8
51
 10
13.9894
 20
3.6914
 30
0.0000
 42
0.8571
  0
VERTEX
  8
51
 10
13.9894
 20
4.3914
 30
0.0000
  0
SEQEND
  8
0
  0
POLYLINE
  8
51
 66
1
 10
0.0000
 20
0.0000
 30
0.0000
 40
0.0508
 41
0.0508
 70
0
  0
VERTEX
  8
51
 10
13.9855
 20
3.7165
 30
0.0000
 42
1.0000
  0
VERTEX
  8
51
 10
13.9933
 20
3.6663
 30
0.0000
  0
SEQEND
  8
0
  0
POLYLINE
  8
51
 66
1
 10
0.0000
 20
0.0000
 30
0.0000
 40
0.0508
 41
0.0508
 70
0
  0
VERTEX
  8
51
 10
13.9933
 20
4.4165
 30
0.0000
 42
1.0000
  0
VERTEX
  8
51
 10
13.9855
 20
4.3663
 30
0.0000
  0
SEQEND
  8
0
  0
POLYLINE
  8
51
 66
1
 10
0.0000
 20
0.0000
 30
0.0000
 40
0.1016
 41
0.1016
 70
0
  0
VERTEX
  8
51
 10
15.8394
 20
4.3914
 30
0.0000
 42
0.8571
  0
VERTEX
  8
51
 10
15.8394
 20
3.6914
 30
0.0000
  0
SEQEND
  8
0
  0
POLYLINE
  8
51
 66
1
 10
0.0000
 20
0.0000
 30
0.0000
 40
0.0508
 41
0.0508
 70
0
  0
VERTEX
  8
51
 10
15.8433
 20
4.3663
 30
0.0000
 42
1.0000
  0
VERTEX
  8
51
 10
15.8355
 20
4.4165
 30
0.0000
  0
SEQEND
  8
0
  0
POLYLINE
  8
51
 66
1
 10
0.0000
 20
0.0000
 30
0.0000
 40
0.0508
 41
0.0508
 70
0
  0
VERTEX
  8
51
 10
15.8355
 20
3.6663
 30
0.0000
 42
1.0000
  0
VERTEX
  8
51
 10
15.8433
 20
3.7165
 30
0.0000
  0
SEQEND
  8
0
  0
POLYLINE
  8
51
 66
1
 10
0.0000
 20
0.0000
 30
0.0000
 40
0.1016
 41
0.1016
 70
0
  0
VERTEX
  8
51
 10
14.3894
 20
4.6164
 30
0.0000
  0
VERTEX
  8
51
 10
15.4394
 20
4.6164
 30
0.0000
  0
SEQEND
  8
0
  0
POLYLINE
  8
51
 66
1
 10
0.0000
 20
0.0000
 30
0.0000
 40
0.0508
 41
0.0508
 70
0
  0
VERTEX
  8
51
 10
15.4394
 20
4.5910
 30
0.0000
 42
1.0000
  0
VERTEX
  8
51
 10
15.4394
 20
4.6418
 30
0.0000
  0
SEQEND
  8
0
  0
POLYLINE
  8
51
 66
1
 10
0.0000
 20
0.0000
 30
0.0000
 40
0.0508
 41
0.0508
 70
0
  0
VERTEX
  8
51
 10
14.3894
 20
4.6418
 30
0.0000
 42
1.0000
  0
VERTEX
  8
51
 10
14.3894
 20
4.5910
 30
0.0000
  0
SEQEND
  8
0
  0
POLYLINE
  8
51
 66
1
 10
0.0000
 20
0.0000
 30
0.0000
 40
0.1016
 41
0.1016
 70
0
  0
VERTEX
  8
51
 10
15.4144
 20
3.4664
 30
0.0000
  0
VERTEX
  8
51
 10
13.9894
 20
3.4664
 30
0.0000
  0
SEQEND
  8
0
  0
POLYLINE
  8
51
 66
1
 10
0.0000
 20
0.0000
 30
0.0000
 40
0.0508
 41
0.0508
 70
0
  0
VERTEX
  8
51
 10
13.9894
 20
3.4918
 30
0.0000
 42
1.0000
  0
VERTEX
  8
51
 10
13.9894
 20
3.4410
 30
0.0000
  0
SEQEND
  8
0
  0
POLYLINE
  8
51
 66
1
 10
0.0000
 20
0.0000
 30
0.0000
 40
0.0508
 41
0.0508
 70
0
  0
VERTEX
  8
51
 10
15.4144
 20
3.4410
 30
0.0000
 42
1.0000
  0
VERTEX
  8
51
 10
15.4144
 20
3.4918
 30
0.0000
  0
SEQEND
  8
0
  0
POLYLINE
  8
51
 66
1
 10
0.0000
 20
0.0000
 30
0.0000
 40
0.1016
 41
0.1016
 70
0
  0
VERTEX
  8
51
 10
14.0644
 20
3.4884
 30
0.0000
 42
1.0000
  0
VERTEX
  8
51
 10
14.0644
 20
3.6944
 30
0.0000
 42
1.0000
  0
VERTEX
  8
51
 10
14.0644
 20
3.4884
 30
0.0000
  0
SEQEND
  8
0
  0
INSERT
  8
51
  2
RECT
 10
14.1644
 20
4.5039
 30
0.0000
 41
0.3250
 42
0.5000
 43
1.0000
 50
90.0000
  0
INSERT
  8
51
  2
RECT
 10
14.2894
 20
3.7914
 30
0.0000
 41
0.1500
 42
0.2500
 43
1.0000
 50
90.0000
  0
INSERT
  8
51
  2
RECT
 10
14.2894
 20
4.2914
 30
0.0000
 41
0.1500
 42
0.2500
 43
1.0000
 50
90.0000
  0
INSERT
  8
51
  2
RECT
 10
14.3269
 20
4.0414
 30
0.0000
 41
0.4000
 42
0.1750
 43
1.0000
 50
90.0000
  0
INSERT
  8
51
  2
RECT
 10
15.6644
 20
4.5039
 30
0.0000
 41
0.3250
 42
0.5000
 43
1.0000
 50
90.0000
  0
INSERT
  8
51
  2
RECT
 10
15.6644
 20
3.5789
 30
0.0000
 41
0.3250
 42
0.5000
 43
1.0000
 50
90.0000
  0
INSERT
  8
51
  2
RECT
 10
15.5394
 20
4.2914
 30
0.0000
 41
0.1500
 42
0.2500
 43
1.0000
 50
90.0000
  0
INSERT
  8
51
  2
RECT
 10
15.5394
 20
3.7914
 30
0.0000
 41
0.1500
 42
0.2500
 43
1.0000
 50
90.0000
  0
INSERT
  8
51
  2
RECT
 10
15.5019
 20
4.0414
 30
0.0000
 41
0.4000
 42
0.1750
 43
1.0000
 50
90.0000
  0
INSERT
  8
21
  2
RECT
 10
14.8144
 20
4.0414
 30
0.0000
 41
0.2000
 42
0.2000
 43
1.0000
 50
90.0000
  0
INSERT
  8
51
  2
RECT
 10
14.2644
 20
3.5914
 30
0.0000
 41
0.3000
 42
0.3000
 43
1.0000
 50
90.0000
  0
INSERT
  8
51
  2
RECT
 10
13.9519
 20
3.5789
 30
0.0000
 41
0.3250
 42
0.0750
 43
1.0000
 50
90.0000
  0
INSERT
  8
31
  2
RECT
 10
15.9644
 20
4.0414
 30
0.0000
 41
1.2000
 42
1.2000
 43
1.0000
 50
90.0000
  0
INSERT
  8
31
  2
RECT
 10
13.8644
 20
4.0414
 30
0.0000
 41
1.2000
 42
1.2000
 43
1.0000
 50
90.0000
  0
POINT
  8
23
 10
5.9144
 20
4.0414
 30
0.0000
  0
POLYLINE
  8
51
 66
1
 10
0.0000
 20
0.0000
 30
0.0000
 40
0.1016
 41
0.1016
 70
0
  0
VERTEX
  8
51
 10
4.9894
 20
3.6914
 30
0.0000
 42
0.8571
  0
VERTEX
  8
51
 10
4.9894
 20
4.3914
 30
0.0000
  0
SEQEND
  8
0
  0
POLYLINE
  8
51
 66
1
 10
0.0000
 20
0.0000
 30
0.0000
 40
0.0508
 41
0.0508
 70
0
  0
VERTEX
  8
51
 10
4.9855
 20
3.7165
 30
0.0000
 42
1.0000
  0
VERTEX
  8
51
 10
4.9933
 20
3.6663
 30
0.0000
  0
SEQEND
  8
0
  0
POLYLINE
  8
51
 66
1
 10
0.0000
 20
0.0000
 30
0.0000
 40
0.0508
 41
0.0508
 70
0
  0
VERTEX
  8
51
 10
4.9933
 20
4.4165
 30
0.0000
 42
1.0000
  0
VERTEX
  8
51
 10
4.9855
 20
4.3663
 30
0.0000
  0
SEQEND
  8
0
  0
POLYLINE
  8
51
 66
1
 10
0.0000
 20
0.0000
 30
0.0000
 40
0.1016
 41
0.1016
 70
0
  0
VERTEX
  8
51
 10
6.8394
 20
4.3914
 30
0.0000
 42
0.8571
  0
VERTEX
  8
51
 10
6.8394
 20
3.6914
 30
0.0000
  0
SEQEND
  8
0
  0
POLYLINE
  8
51
 66
1
 10
0.0000
 20
0.0000
 30
0.0000
 40
0.0508
 41
0.0508
 70
0
  0
VERTEX
  8
51
 10
6.8433
 20
4.3663
 30
0.0000
 42
1.0000
  0
VERTEX
  8
51
 10
6.8355
 20
4.4165
 30
0.0000
  0
SEQEND
  8
0
  0
POLYLINE
  8
51
 66
1
 10
0.0000
 20
0.0000
 30
0.0000
 40
0.0508
 41
0.0508
 70
0
  0
VERTEX
  8
51
 10
6.8355
 20
3.6663
 30
0.0000
 42
1.0000
  0
VERTEX
  8
51
 10
6.8433
 20
3.7165
 30
0.0000
  0
SEQEND
  8
0
  0
POLYLINE
  8
51
 66
1
 10
0.0000
 20
0.0000
 30
0.0000
 40
0.1016
 41
0.1016
 70
0
  0
VERTEX
  8
51
 10
5.3894
 20
4.6164
 30
0.0000
  0
VERTEX
  8
51
 10
6.4394
 20
4.6164
 30
0.0000
  0
SEQEND
  8
0
  0
POLYLINE
  8
51
 66
1
 10
0.0000
 20
0.0000
 30
0.0000
 40
0.0508
 41
0.0508
 70
0
  0
VERTEX
  8
51
 10
6.4394
 20
4.5910
 30
0.0000
 42
1.0000
  0
VERTEX
  8
51
 10
6.4394
 20
4.6418
 30
0.0000
  0
SEQEND
  8
0
  0
POLYLINE
  8
51
 66
1
 10
0.0000
 20
0.0000
 30
0.0000
 40
0.0508
 41
0.0508
 70
0
  0
VERTEX
  8
51
 10
5.3894
 20
4.6418
 30
0.0000
 42
1.0000
  0
VERTEX
  8
51
 10
5.3894
 20
4.5910
 30
0.0000
  0
SEQEND
  8
0
  0
POLYLINE
  8
51
 66
1
 10
0.0000
 20
0.0000
 30
0.0000
 40
0.1016
 41
0.1016
 70
0
  0
VERTEX
  8
51
 10
6.4144
 20
3.4664
 30
0.0000
  0
VERTEX
  8
51
 10
4.9894
 20
3.4664
 30
0.0000
  0
SEQEND
  8
0
  0
POLYLINE
  8
51
 66
1
 10
0.0000
 20
0.0000
 30
0.0000
 40
0.0508
 41
0.0508
 70
0
  0
VERTEX
  8
51
 10
4.9894
 20
3.4918
 30
0.0000
 42
1.0000
  0
VERTEX
  8
51
 10
4.9894
 20
3.4410
 30
0.0000
  0
SEQEND
  8
0
  0
POLYLINE
  8
51
 66
1
 10
0.0000
 20
0.0000
 30
0.0000
 40
0.0508
 41
0.0508
 70
0
  0
VERTEX
  8
51
 10
6.4144
 20
3.4410
 30
0.0000
 42
1.0000
  0
VERTEX
  8
51
 10
6.4144
 20
3.4918
 30
0.0000
  0
SEQEND
  8
0
  0
POLYLINE
  8
51
 66
1
 10
0.0000
 20
0.0000
 30
0.0000
 40
0.1016
 41
0.1016
 70
0
  0
VERTEX
  8
51
 10
5.0644
 20
3.4884
 30
0.0000
 42
1.0000
  0
VERTEX
  8
51
 10
5.0644
 20
3.6944
 30
0.0000
 42
1.0000
  0
VERTEX
  8
51
 10
5.0644
 20
3.4884
 30
0.0000
  0
SEQEND
  8
0
  0
INSERT
  8
51
  2
RECT
 10
5.1644
 20
4.5039
 30
0.0000
 41
0.3250
 42
0.5000
 43
1.0000
 50
90.0000
  0
INSERT
  8
51
  2
RECT
 10
5.2894
 20
3.7914
 30
0.0000
 41
0.1500
 42
0.2500
 43
1.0000
 50
90.0000
  0
INSERT
  8
51
  2
RECT
 10
5.2894
 20
4.2914
 30
0.0000
 41
0.1500
 42
0.2500
 43
1.0000
 50
90.0000
  0
INSERT
  8
51
  2
RECT
 10
5.3269
 20
4.0414
 30
0.0000
 41
0.4000
 42
0.1750
 43
1.0000
 50
90.0000
  0
INSERT
  8
51
  2
RECT
 10
6.6644
 20
4.5039
 30
0.0000
 41
0.3250
 42
0.5000
 43
1.0000
 50
90.0000
  0
INSERT
  8
51
  2
RECT
 10
6.6644
 20
3.5789
 30
0.0000
 41
0.3250
 42
0.5000
 43
1.0000
 50
90.0000
  0
INSERT
  8
51
  2
RECT
 10
6.5394
 20
4.2914
 30
0.0000
 41
0.1500
 42
0.2500
 43
1.0000
 50
90.0000
  0
INSERT
  8
51
  2
RECT
 10
6.5394
 20
3.7914
 30
0.0000
 41
0.1500
 42
0.2500
 43
1.0000
 50
90.0000
  0
INSERT
  8
51
  2
RECT
 10
6.5019
 20
4.0414
 30
0.0000
 41
0.4000
 42
0.1750
 43
1.0000
 50
90.0000
  0
INSERT
  8
21
  2
RECT
 10
5.8144
 20
4.0414
 30
0.0000
 41
0.2000
 42
0.2000
 43
1.0000
 50
90.0000
  0
INSERT
  8
51
  2
RECT
 10
5.2644
 20
3.5914
 30
0.0000
 41
0.3000
 42
0.3000
 43
1.0000
 50
90.0000
  0
INSERT
  8
51
  2
RECT
 10
4.9519
 20
3.5789
 30
0.0000
 41
0.3250
 42
0.0750
 43
1.0000
 50
90.0000
  0
INSERT
  8
31
  2
RECT
 10
6.9644
 20
4.0414
 30
0.0000
 41
1.2000
 42
1.2000
 43
1.0000
 50
90.0000
  0
INSERT
  8
31
  2
RECT
 10
4.8644
 20
4.0414
 30
0.0000
 41
1.2000
 42
1.2000
 43
1.0000
 50
90.0000
  0
POINT
  8
23
 10
23.4624
 20
32.0495
 30
0.0000
  0
POINT
  8
23
 10
23.8114
 20
29.5659
 30
0.0000
  0
POINT
  8
23
 10
24.1781
 20
26.9565
 30
0.0000
  0
POINT
  8
23
 10
14.9144
 20
9.4064
 30
0.0000
  0
POLYLINE
  8
51
 66
1
 10
0.0000
 20
0.0000
 30
0.0000
 40
0.2032
 41
0.2032
 70
0
  0
VERTEX
  8
51
 10
16.4544
 20
11.9464
 30
0.0000
  0
VERTEX
  8
51
 10
17.4544
 20
10.9464
 30
0.0000
  0
SEQEND
  8
0
  0
POLYLINE
  8
51
 66
1
 10
0.0000
 20
0.0000
 30
0.0000
 40
0.1016
 41
0.1016
 70
0
  0
VERTEX
  8
51
 10
17.4185
 20
10.9105
 30
0.0000
 42
1.0000
  0
VERTEX
  8
51
 10
17.4903
 20
10.9823
 30
0.0000
  0
SEQEND
  8
0
  0
POLYLINE
  8
51
 66
1
 10
0.0000
 20
0.0000
 30
0.0000
 40
0.1016
 41
0.1016
 70
0
  0
VERTEX
  8
51
 10
16.4903
 20
11.9823
 30
0.0000
 42
1.0000
  0
VERTEX
  8
51
 10
16.4185
 20
11.9105
 30
0.0000
  0
SEQEND
  8
0
  0
POLYLINE
  8
21
 66
1
 10
0.0000
 20
0.0000
 30
0.0000
 40
0.2032
 41
0.2032
 70
0
  0
VERTEX
  8
21
 10
17.4544
 20
10.6464
 30
0.0000
  0
VERTEX
  8
21
 10
17.4544
 20
8.1364
 30
0.0000
  0
SEQEND
  8
0
  0
POLYLINE
  8
21
 66
1
 10
0.0000
 20
0.0000
 30
0.0000
 40
0.1016
 41
0.1016
 70
0
  0
VERTEX
  8
21
 10
17.4036
 20
8.1364
 30
0.0000
 42
1.0000
  0
VERTEX
  8
21
 10
17.5052
 20
8.1364
 30
0.0000
  0
SEQEND
  8
0
  0
POLYLINE
  8
21
 66
1
 10
0.0000
 20
0.0000
 30
0.0000
 40
0.1016
 41
0.1016
 70
0
  0
VERTEX
  8
21
 10
17.5052
 20
10.6464
 30
0.0000
 42
1.0000
  0
VERTEX
  8
21
 10
17.4036
 20
10.6464
 30
0.0000
  0
SEQEND
  8
0
  0
POLYLINE
  8
51
 66
1
 10
0.0000
 20
0.0000
 30
0.0000
 40
0.2032
 41
0.2032
 70
0
  0
VERTEX
  8
51
 10
17.4544
 20
7.8664
 30
0.0000
  0
VERTEX
  8
51
 10
16.4544
 20
6.8664
 30
0.0000
  0
SEQEND
  8
0
  0
POLYLINE
  8
51
 66
1
 10
0.0000
 20
0.0000
 30
0.0000
 40
0.1016
 41
0.1016
 70
0
  0
VERTEX
  8
51
 10
16.4185
 20
6.9023
 30
0.0000
 42
1.0000
  0
VERTEX
  8
51
 10
16.4903
 20
6.8305
 30
0.0000
  0
SEQEND
  8
0
  0
POLYLINE
  8
51
 66
1
 10
0.0000
 20
0.0000
 30
0.0000
 40
0.1016
 41
0.1016
 70
0
  0
VERTEX
  8
51
 10
17.4903
 20
7.8305
 30
0.0000
 42
1.0000
  0
VERTEX
  8
51
 10
17.4185
 20
7.9023
 30
0.0000
  0
SEQEND
  8
0
  0
POLYLINE
  8
21
 66
1
 10
0.0000
 20
0.0000
 30
0.0000
 40
0.2032
 41
0.2032
 70
0
  0
VERTEX
  8
21
 10
16.4544
 20
6.8664
 30
0.0000
  0
VERTEX
  8
21
 10
13.3744
 20
6.8664
 30
0.0000
  0
SEQEND
  8
0
  0
POLYLINE
  8
21
 66
1
 10
0.0000
 20
0.0000
 30
0.0000
 40
0.1016
 41
0.1016
 70
0
  0
VERTEX
  8
21
 10
13.3744
 20
6.9172
 30
0.0000
 42
1.0000
  0
VERTEX
  8
21
 10
13.3744
 20
6.8156
 30
0.0000
  0
SEQEND
  8
0
  0
POLYLINE
  8
21
 66
1
 10
0.0000
 20
0.0000
 30
0.0000
 40
0.1016
 41
0.1016
 70
0
  0
VERTEX
  8
21
 10
16.4544
 20
6.8156
 30
0.0000
 42
1.0000
  0
VERTEX
  8
21
 10
16.4544
 20
6.9172
 30
0.0000
  0
SEQEND
  8
0
  0
POLYLINE
  8
51
 66
1
 10
0.0000
 20
0.0000
 30
0.0000
 40
0.2032
 41
0.2032
 70
0
  0
VERTEX
  8
51
 10
13.3744
 20
6.8664
 30
0.0000
  0
VERTEX
  8
51
 10
12.3744
 20
7.8664
 30
0.0000
  0
SEQEND
  8
0
  0
POLYLINE
  8
51
 66
1
 10
0.0000
 20
0.0000
 30
0.0000
 40
0.1016
 41
0.1016
 70
0
  0
VERTEX
  8
51
 10
12.4103
 20
7.9023
 30
0.0000
 42
1.0000
  0
VERTEX
  8
51
 10
12.3385
 20
7.8305
 30
0.0000
  0
SEQEND
  8
0
  0
POLYLINE
  8
51
 66
1
 10
0.0000
 20
0.0000
 30
0.0000
 40
0.1016
 41
0.1016
 70
0
  0
VERTEX
  8
51
 10
13.3385
 20
6.8305
 30
0.0000
 42
1.0000
  0
VERTEX
  8
51
 10
13.4103
 20
6.9023
 30
0.0000
  0
SEQEND
  8
0
  0
POLYLINE
  8
21
 66
1
 10
0.0000
 20
0.0000
 30
0.0000
 40
0.2032
 41
0.2032
 70
0
  0
VERTEX
  8
21
 10
12.3744
 20
8.1664
 30
0.0000
  0
VERTEX
  8
21
 10
12.3744
 20
10.6464
 30
0.0000
  0
SEQEND
  8
0
  0
POLYLINE
  8
21
 66
1
 10
0.0000
 20
0.0000
 30
0.0000
 40
0.1016
 41
0.1016
 70
0
  0
VERTEX
  8
21
 10
12.4252
 20
10.6464
 30
0.0000
 42
1.0000
  0
VERTEX
  8
21
 10
12.3236
 20
10.6464
 30
0.0000
  0
SEQEND
  8
0
  0
POLYLINE
  8
21
 66
1
 10
0.0000
 20
0.0000
 30
0.0000
 40
0.1016
 41
0.1016
 70
0
  0
VERTEX
  8
21
 10
12.3236
 20
8.1664
 30
0.0000
 42
1.0000
  0
VERTEX
  8
21
 10
12.4252
 20
8.1664
 30
0.0000
  0
SEQEND
  8
0
  0
POLYLINE
  8
51
 66
1
 10
0.0000
 20
0.0000
 30
0.0000
 40
0.2032
 41
0.2032
 70
0
  0
VERTEX
  8
51
 10
12.3744
 20
10.9464
 30
0.0000
  0
VERTEX
  8
51
 10
13.3744
 20
11.9464
 30
0.0000
  0
SEQEND
  8
0
  0
POLYLINE
  8
51
 66
1
 10
0.0000
 20
0.0000
 30
0.0000
 40
0.1016
 41
0.1016
 70
0
  0
VERTEX
  8
51
 10
13.4103
 20
11.9105
 30
0.0000
 42
1.0000
  0
VERTEX
  8
51
 10
13.3385
 20
11.9823
 30
0.0000
  0
SEQEND
  8
0
  0
POLYLINE
  8
51
 66
1
 10
0.0000
 20
0.0000
 30
0.0000
 40
0.1016
 41
0.1016
 70
0
  0
VERTEX
  8
51
 10
12.3385
 20
10.9823
 30
0.0000
 42
1.0000
  0
VERTEX
  8
51
 10
12.4103
 20
10.9105
 30
0.0000
  0
SEQEND
  8
0
  0
POLYLINE
  8
21
 66
1
 10
0.0000
 20
0.0000
 30
0.0000
 40
0.2032
 41
0.2032
 70
0
  0
VERTEX
  8
21
 10
13.3744
 20
11.9464
 30
0.0000
  0
VERTEX
  8
21
 10
16.4544
 20
11.9464
 30
0.0000
  0
SEQEND
  8
0
  0
POLYLINE
  8
21
 66
1
 10
0.0000
 20
0.0000
 30
0.0000
 40
0.1016
 41
0.1016
 70
0
  0
VERTEX
  8
21
 10
16.4544
 20
11.8956
 30
0.0000
 42
1.0000
  0
VERTEX
  8
21
 10
16.4544
 20
11.9972
 30
0.0000
  0
SEQEND
  8
0
  0
POLYLINE
  8
21
 66
1
 10
0.0000
 20
0.0000
 30
0.0000
 40
0.1016
 41
0.1016
 70
0
  0
VERTEX
  8
21
 10
13.3744
 20
11.9972
 30
0.0000
 42
1.0000
  0
VERTEX
  8
21
 10
13.3744
 20
11.8956
 30
0.0000
  0
SEQEND
  8
0
  0
POLYLINE
  8
51
 66
1
 10
0.0000
 20
0.0000
 30
0.0000
 40
0.1270
 41
0.1270
 70
0
  0
VERTEX
  8
51
 10
13.0094
 20
8.1364
 30
0.0000
  0
VERTEX
  8
51
 10
13.0094
 20
8.9614
 30
0.0000
  0
SEQEND
  8
0
  0
POLYLINE
  8
51
 66
1
 10
0.0000
 20
0.0000
 30
0.0000
 40
0.0635
 41
0.0635
 70
0
  0
VERTEX
  8
51
 10
13.0412
 20
8.9614
 30
0.0000
 42
1.0000
  0
VERTEX
  8
51
 10
12.9777
 20
8.9614
 30
0.0000
  0
SEQEND
  8
0
  0
POLYLINE
  8
51
 66
1
 10
0.0000
 20
0.0000
 30
0.0000
 40
0.0635
 41
0.0635
 70
0
  0
VERTEX
  8
51
 10
12.9777
 20
8.1364
 30
0.0000
 42
1.0000
  0
VERTEX
  8
51
 10
13.0412
 20
8.1364
 30
0.0000
  0
SEQEND
  8
0
  0
POLYLINE
  8
51
 66
1
 10
0.0000
 20
0.0000
 30
0.0000
 40
0.1270
 41
0.1270
 70
0
  0
VERTEX
  8
51
 10
13.0094
 20
8.9614
 30
0.0000
  0
VERTEX
  8
51
 10
12.7544
 20
9.4164
 30
0.0000
  0
SEQEND
  8
0
  0
POLYLINE
  8
51
 66
1
 10
0.0000
 20
0.0000
 30
0.0000
 40
0.0635
 41
0.0635
 70
0
  0
VERTEX
  8
51
 10
12.7821
 20
9.4319
 30
0.0000
 42
1.0000
  0
VERTEX
  8
51
 10
12.7267
 20
9.4009
 30
0.0000
  0
SEQEND
  8
0
  0
POLYLINE
  8
51
 66
1
 10
0.0000
 20
0.0000
 30
0.0000
 40
0.0635
 41
0.0635
 70
0
  0
VERTEX
  8
51
 10
12.9817
 20
8.9459
 30
0.0000
 42
1.0000
  0
VERTEX
  8
51
 10
13.0371
 20
8.9769
 30
0.0000
  0
SEQEND
  8
0
  0
POLYLINE
  8
51
 66
1
 10
0.0000
 20
0.0000
 30
0.0000
 40
0.1270
 41
0.1270
 70
0
  0
VERTEX
  8
51
 10
13.0094
 20
9.6364
 30
0.0000
  0
VERTEX
  8
51
 10
13.0094
 20
10.5214
 30
0.0000
  0
SEQEND
  8
0
  0
POLYLINE
  8
51
 66
1
 10
0.0000
 20
0.0000
 30
0.0000
 40
0.0635
 41
0.0635
 70
0
  0
VERTEX
  8
51
 10
13.0412
 20
10.5214
 30
0.0000
 42
1.0000
  0
VERTEX
  8
51
 10
12.9777
 20
10.5214
 30
0.0000
  0
SEQEND
  8
0
  0
POLYLINE
  8
51
 66
1
 10
0.0000
 20
0.0000
 30
0.0000
 40
0.0635
 41
0.0635
 70
0
  0
VERTEX
  8
51
 10
12.9777
 20
9.6364
 30
0.0000
 42
1.0000
  0
VERTEX
  8
51
 10
13.0412
 20
9.6364
 30
0.0000
  0
SEQEND
  8
0
  0
POLYLINE
  8
21
 66
1
 10
0.0000
 20
0.0000
 30
0.0000
 40
0.2032
 41
0.2032
 70
0
  0
VERTEX
  8
21
 10
14.9144
 20
8.1364
 30
0.0000
 42
1.0000
  0
VERTEX
  8
21
 10
14.9144
 20
10.6764
 30
0.0000
 42
1.0000
  0
VERTEX
  8
21
 10
14.9144
 20
8.1364
 30
0.0000
  0
SEQEND
  8
0
  0
INSERT
  8
31
  2
RECT
 10
17.4544
 20
7.5014
 30
0.0000
 41
0.7620
 42
1.5240
 43
1.0000
 50
270.0000
  0
INSERT
  8
31
  2
RECT
 10
12.3744
 20
7.5014
 30
0.0000
 41
0.7620
 42
1.5240
 43
1.0000
 50
270.0000
  0
INSERT
  8
31
  2
RECT
 10
17.4544
 20
11.3114
 30
0.0000
 41
0.7620
 42
1.5240
 43
1.0000
 50
270.0000
  0
INSERT
  8
31
  2
RECT
 10
12.3744
 20
11.3114
 30
0.0000
 41
0.7620
 42
1.5240
 43
1.0000
 50
270.0000
  0
ENDSEC
  0
EOF
